<svg xmlns="http://www.w3.org/2000/svg" viewBox="0 0 118.69 133.26"><defs><style>.cls-1{fill:#e4ae84;}.cls-2{fill:#0d0b42;}.cls-11,.cls-12,.cls-13,.cls-15,.cls-2,.cls-4,.cls-6,.cls-7,.cls-8,.cls-9{fill-rule:evenodd;}.cls-3,.cls-7{fill:#404fa2;}.cls-14,.cls-4{fill:#fff;}.cls-5,.cls-8{fill:#d3d5d6;}.cls-6{fill:#000007;}.cls-9{fill:#252b67;}.cls-10{fill:#20245e;}.cls-11{fill:#00002d;}.cls-12{fill:#231f20;}.cls-13{fill:#bcbec0;}.cls-15{fill:#d1d3d4;}.cls-16{opacity:0.26;}.cls-17{fill:#511d06;}.cls-18{fill:#502919;}.cls-19{fill:#333d83;}.cls-20{fill:#4e4e4d;}.cls-21{fill:#6f6d6c;}.cls-22{fill:#a7a9ac;}.cls-23{fill:#504ea1;}</style></defs><g id="Layer_2" data-name="Layer 2"><g id="Capa_1" data-name="Capa 1"><path class="cls-1" d="M70.45,46.84C72,36.7,72,26,71.66,25.93l-.2,0a17,17,0,0,1-3.69-1.25c-2.16-1-5.54-.53-5.54-.53H56.86s-3.3-.49-5.41.53a16.27,16.27,0,0,1-3.6,1.25l-.19,0h0a130.41,130.41,0,0,0,1.17,20.63c1.5,10-.71,15.44.09,20.39.27,1.72,8.47-.84,9.09,1.28,0,0,1.2,0,1.5,0s1.53,0,1.53,0c.65-2.12,9.09.44,9.37-1.28C71.23,62,68.91,56.88,70.45,46.84Z"/><path class="cls-2" d="M48.2,122.82a10.45,10.45,0,0,0-5.65-.14,25.2,25.2,0,0,0,.11,5.07c.22,0,4.9-1.8,5-1.92S48.2,122.82,48.2,122.82Z"/><path class="cls-1" d="M45.45,93.88c-.18.72,0,3-.21,4a48.85,48.85,0,0,0-1.72,14.3c0,5.79,0,9.22,0,9.22l4.2.44a107.62,107.62,0,0,0,3.34-14.35c1-7.57,1.16-8.66,1.64-11.73C52.45,94.58,46,93.17,45.45,93.88Z"/><path class="cls-1" d="M45.62,96.4c.14,1.27,6.53,1.49,7.09-.68.72-4.48,9.34-28,3.75-30.79,0,0-5.9-10.45-8.46-.63-1.88,7.23-2.44,21.9-2.67,25A28,28,0,0,0,45.62,96.4Z"/><path class="cls-1" d="M47.74,126.06c.14-1,.43-1,.09-2.17a18.41,18.41,0,0,1,.14-4.57l-3.93.05a20.35,20.35,0,0,1-2.21,6Z"/><path class="cls-3" d="M48.7,61.88S46.53,67,44.9,77.54L43.07,94.23l14,.23,2.82-21.32.28-3.36-.38-6.43Z"/><path class="cls-4" d="M43.07,122.54l.32-1.16,4.44.52,0,1.36S43.23,124.13,43.07,122.54Z"/><path class="cls-5" d="M41,128.29a9.18,9.18,0,0,0,0,2.61c.22.87.8,2.5,4.38,2.35l0-.77S41,128.43,41,128.29Z"/><path class="cls-5" d="M49.44,128.29a8.93,8.93,0,0,1,0,2.61c-.22.87-.8,2.5-4.38,2.35l-.05-.77S49.45,128.43,49.44,128.29Z"/><path class="cls-6" d="M42.6,123.35a10,10,0,0,1,5.12,0,5.7,5.7,0,0,1-.79,1.9,10.66,10.66,0,0,1-3,.58C43.85,125.78,42.6,123.35,42.6,123.35Z"/><path class="cls-7" d="M48.4,124.19c0-3-1.23-.65-1.33-.38-.17.46-3.49.46-3.66,0-.1-.27-1.18-2.89-1.4.49,0,0-1.14,4.54-.9,6,.55,2.11.9,2.35,4.13,2.35s3.85-.38,4.13-2.35C49.61,128.84,48.4,124.19,48.4,124.19Z"/><path class="cls-8" d="M46.52,132.55c0,.31-.45.32-1,.32s-1,0-1-.32.46-.57,1-.57S46.52,132.23,46.52,132.55Z"/><path class="cls-9" d="M49.37,130.25a7.27,7.27,0,0,0-.11-1.93c-.19-.1-.38-.18-.55-.25-1-.42-2.88-1.63-2.19.38,0,0,2.53,1.34,1.72,3.8C49,131.93,49.22,131.33,49.37,130.25Z"/><path class="cls-9" d="M41.23,128.11a3.68,3.68,0,0,1,2.4-1.92l-.05-.68a3.38,3.38,0,0,0-2.1,1.35,2.93,2.93,0,0,1,2.08-1.77l0-.79a4.46,4.46,0,0,0-1.79,1.2c-.16.74-.36,1.71-.5,2.61Z"/><path class="cls-9" d="M46.92,125.09A2.93,2.93,0,0,1,49,126.86a3.38,3.38,0,0,0-2.1-1.35l0,.68a3.68,3.68,0,0,1,2.36,1.88c-.14-.91-.35-1.88-.52-2.62A4.41,4.41,0,0,0,47,124.3Z"/><path class="cls-9" d="M44,128.45c1.06-2.26-1.16-.8-2.18-.38-.18.07-.38.16-.58.26a7.45,7.45,0,0,0-.09,1.92c.28,1.1.52,1.69,1.13,2C41.08,129.67,44,128.45,44,128.45Z"/><path class="cls-10" d="M43.7,123.53s.43,5.43,1.07,6,1.17-.07,1.57-2.07.76-4.06.76-4.06.23-.71-.9-1S43.29,122.6,43.7,123.53Z"/><path class="cls-11" d="M44.52,124.06s-.14-.34-1-.24a24.78,24.78,0,0,0,.44,4.63c.4,1.26.6,1.87,1.64,1.76s1.28-1.84,1.56-3.24a20.46,20.46,0,0,0,.31-3.09,1.26,1.26,0,0,0-1.11.18s-.18,5.68-.93,5.81S44.36,125.35,44.52,124.06Z"/><path class="cls-4" d="M46.32,124.82a.45.45,0,0,0,.43-.07c.09-.08,0-.19-.12-.24a.48.48,0,0,0-.43.06C46.12,124.66,46.17,124.77,46.32,124.82Z"/><path class="cls-12" d="M46.35,124.79a.42.42,0,0,0,.34-.05c.07-.07,0-.16-.09-.2a.36.36,0,0,0-.34,0C46.19,124.66,46.23,124.75,46.35,124.79Z"/><path class="cls-4" d="M46.17,126.06a.48.48,0,0,0,.44,0c.1-.08.08-.19-.07-.25a.46.46,0,0,0-.43,0C46,125.89,46,126,46.17,126.06Z"/><path class="cls-12" d="M46.21,126a.39.39,0,0,0,.35,0c.08-.06.06-.15-.05-.2a.39.39,0,0,0-.35,0C46.08,125.89,46.1,126,46.21,126Z"/><path class="cls-4" d="M45.91,127.25a.48.48,0,0,0,.45,0c.12-.07.11-.18,0-.25a.51.51,0,0,0-.45,0A.13.13,0,0,0,45.91,127.25Z"/><path class="cls-12" d="M46,127.23a.39.39,0,0,0,.35,0c.1-.06.09-.15,0-.2a.43.43,0,0,0-.35,0C45.85,127.08,45.86,127.17,46,127.23Z"/><path class="cls-4" d="M45.81,128.45a.48.48,0,0,0,.44,0c.14-.06.17-.17.06-.25a.48.48,0,0,0-.44,0C45.73,128.26,45.7,128.37,45.81,128.45Z"/><path class="cls-12" d="M45.86,128.43a.39.39,0,0,0,.35,0c.11-.05.13-.14,0-.2a.42.42,0,0,0-.35,0C45.8,128.28,45.78,128.37,45.86,128.43Z"/><path class="cls-4" d="M46.3,125.39a.45.45,0,0,0,.43-.07c.09-.08,0-.19-.11-.24a.48.48,0,0,0-.43.06C46.1,125.23,46.15,125.34,46.3,125.39Z"/><path class="cls-12" d="M46.33,125.36a.41.41,0,0,0,.35,0c.07-.07,0-.16-.09-.2a.38.38,0,0,0-.35,0C46.17,125.23,46.21,125.32,46.33,125.36Z"/><path class="cls-4" d="M46.1,126.64a.48.48,0,0,0,.44,0c.11-.08.08-.19-.06-.25a.48.48,0,0,0-.44,0C45.93,126.47,46,126.58,46.1,126.64Z"/><path class="cls-12" d="M46.14,126.61a.42.42,0,0,0,.35,0c.08-.07.06-.15-.05-.2a.39.39,0,0,0-.35,0C46,126.47,46,126.56,46.14,126.61Z"/><path class="cls-4" d="M45.88,127.83a.49.49,0,0,0,.44,0c.12-.08.11-.19,0-.26a.54.54,0,0,0-.45,0C45.74,127.65,45.75,127.77,45.88,127.83Z"/><path class="cls-12" d="M45.92,127.81a.39.39,0,0,0,.35,0c.1-.06.09-.15,0-.2a.39.39,0,0,0-.35,0C45.82,127.66,45.82,127.75,45.92,127.81Z"/><path class="cls-4" d="M45.59,129a.49.49,0,0,0,.44,0c.14-.06.17-.17.07-.25a.48.48,0,0,0-.44,0C45.52,128.83,45.49,128.94,45.59,129Z"/><path class="cls-12" d="M45.65,129a.42.42,0,0,0,.35,0c.11-.05.13-.14,0-.2a.39.39,0,0,0-.35,0C45.59,128.85,45.56,128.94,45.65,129Z"/><path class="cls-4" d="M44.3,124.82a.44.44,0,0,1-.43-.07c-.09-.08,0-.19.11-.24a.48.48,0,0,1,.43.06C44.5,124.66,44.45,124.77,44.3,124.82Z"/><path class="cls-12" d="M44.26,124.79a.42.42,0,0,1-.34-.05c-.07-.07,0-.16.09-.2a.36.36,0,0,1,.34,0C44.42,124.66,44.38,124.75,44.26,124.79Z"/><path class="cls-13" d="M46.49,125.23c-.07-.07-.06-.11-.5,0a1.68,1.68,0,0,1-1.64-.63s-.52,0-.36.23c0,0,.71.73,1.35.68h0a2.79,2.79,0,0,0,.49,0C46.55,125.4,46.55,125.3,46.49,125.23Z"/><path class="cls-4" d="M44.44,126.06a.48.48,0,0,1-.44,0c-.1-.08-.07-.19.07-.25a.48.48,0,0,1,.44,0C44.61,125.89,44.58,126,44.44,126.06Z"/><path class="cls-12" d="M44.4,126a.39.39,0,0,1-.35,0c-.08-.06,0-.15.06-.2a.39.39,0,0,1,.35,0C44.54,125.89,44.51,126,44.4,126Z"/><path class="cls-13" d="M46.32,126.49c-.06-.08,0-.14-.49,0l-.24,0c-.65-.12-.63-.27-1.13-.65,0,0-.53,0-.32.25a4.2,4.2,0,0,0,.65.41c.05.12.24.25.83.22S46.37,126.56,46.32,126.49Z"/><path class="cls-4" d="M44.7,127.25a.48.48,0,0,1-.45,0c-.12-.07-.11-.18,0-.25a.49.49,0,0,1,.44,0C44.83,127.07,44.83,127.19,44.7,127.25Z"/><path class="cls-12" d="M44.65,127.23a.39.39,0,0,1-.35,0c-.09-.06-.09-.15,0-.2a.43.43,0,0,1,.35,0C44.76,127.08,44.75,127.17,44.65,127.23Z"/><path class="cls-13" d="M46.12,127.71s0-.09-.11-.11l-.09,0c-.71-.07-.67-.21-1.26-.56,0,0-.52,0-.26.27a3.07,3.07,0,0,0,.3.17C45.75,128,46.15,127.78,46.12,127.71Z"/><path class="cls-4" d="M44.8,128.45a.48.48,0,0,1-.44,0c-.14-.06-.16-.17-.06-.25a.48.48,0,0,1,.44,0C44.88,128.26,44.91,128.37,44.8,128.45Z"/><path class="cls-12" d="M44.75,128.43a.39.39,0,0,1-.35,0c-.11-.05-.13-.14,0-.2a.42.42,0,0,1,.35,0C44.81,128.28,44.83,128.37,44.75,128.43Z"/><path class="cls-13" d="M45.88,128.78c-.59-.1-.5-.24-1.18-.55,0,0-.51.09-.18.29a3.1,3.1,0,0,0,1.28.48l.16,0S46.14,128.82,45.88,128.78Z"/><path class="cls-4" d="M44.31,125.39a.45.45,0,0,1-.43-.07c-.09-.08,0-.19.12-.24a.48.48,0,0,1,.43.06C44.51,125.23,44.46,125.34,44.31,125.39Z"/><path class="cls-12" d="M44.28,125.36a.39.39,0,0,1-.34,0c-.07-.07,0-.16.09-.2a.36.36,0,0,1,.34,0C44.44,125.23,44.4,125.32,44.28,125.36Z"/><path class="cls-4" d="M46.26,124.59c-.31.3-.37.46-.63.59a1.22,1.22,0,0,1-1,0c-.43-.13-.42-.06-.49,0s-.06.15.65.26a2,2,0,0,0,1.84-.67C46.79,124.56,46.26,124.59,46.26,124.59Z"/><path class="cls-4" d="M44.51,126.64a.48.48,0,0,1-.44,0c-.1-.08-.07-.19.07-.25a.48.48,0,0,1,.44,0C44.68,126.47,44.65,126.58,44.51,126.64Z"/><path class="cls-12" d="M44.47,126.61a.42.42,0,0,1-.35,0c-.08-.07-.06-.15.05-.2a.38.38,0,0,1,.35,0C44.61,126.47,44.58,126.56,44.47,126.61Z"/><path class="cls-14" d="M46.47,126.08c.22-.25-.31-.25-.31-.25-.51.38-.37.52-1.09.64a.72.72,0,0,1-.28,0c-.45-.09-.44,0-.5,0s0,.18.7.22A1.85,1.85,0,0,0,46.47,126.08Z"/><path class="cls-14" d="M46,126.39v0S46.05,126.4,46,126.39Z"/><path class="cls-4" d="M44.74,127.83a.51.51,0,0,1-.45,0c-.12-.08-.11-.19,0-.26a.52.52,0,0,1,.44,0C44.87,127.65,44.87,127.77,44.74,127.83Z"/><path class="cls-12" d="M44.69,127.81a.39.39,0,0,1-.35,0c-.09-.06-.09-.15,0-.2a.39.39,0,0,1,.35,0C44.8,127.66,44.79,127.75,44.69,127.81Z"/><path class="cls-4" d="M46,127c-.59.35-.55.49-1.26.56l-.09,0c-.08,0-.08.06-.11.11s.28.19,1.42-.25a3.07,3.07,0,0,0,.3-.17C46.47,127.06,46,127,46,127Z"/><path class="cls-4" d="M45,129a.48.48,0,0,1-.44,0c-.14-.06-.17-.17-.06-.25a.48.48,0,0,1,.44,0C45.09,128.83,45.13,128.94,45,129Z"/><path class="cls-12" d="M45,129a.42.42,0,0,1-.35,0c-.11-.05-.14-.14,0-.2a.39.39,0,0,1,.35,0C45,128.85,45.05,128.94,45,129Z"/><path class="cls-4" d="M45.91,128.23a5.82,5.82,0,0,1-1.16.63.13.13,0,0,0,0,.06c0,.07.06.26,1.3-.37l.05,0C46.42,128.32,45.91,128.23,45.91,128.23Z"/><path class="cls-13" d="M45.44,124.48s3.16-.13,2.76-1.75-2.39.89-2.77,1.58l.19,0s1.17-1.68,1.85-1.73.52.5.3.7a5.06,5.06,0,0,1-1.84,1c-.06,0-.3-.06-.37,0S45.54,124.46,45.44,124.48Z"/><path class="cls-13" d="M45.63,124.11s-.94-1.9-2.18-1.78-1.3,1,.47,1.67l1.77.62v-.28a11,11,0,0,1-1.88-.72c-.59-.34-1.18-.75-.64-.86s1-.12,1.66.65c.34.38.54.79.69,1s.25,0,.25,0Z"/><path class="cls-15" d="M45.42,124.64a3.23,3.23,0,0,1-.63.94,2.38,2.38,0,0,0-.42,1.72c.05,0-.08.21-.08.21s-.19,0-.31-.32a1.49,1.49,0,0,1,.56-1.78c.88-.77,1-1.12,1-1.12S45.9,124.23,45.42,124.64Z"/><path class="cls-15" d="M45.51,124.21a15.82,15.82,0,0,1,.4,1.76c.07.64.58,1.51.53,1.86s.24.33.24.33.18-.16-.32-1.34a6.86,6.86,0,0,1-.49-2C45.73,124.4,45.74,124.26,45.51,124.21Z"/><path class="cls-2" d="M71.11,122.82a10.45,10.45,0,0,1,5.65-.14,25.2,25.2,0,0,1-.11,5.07c-.22,0-4.9-1.8-5-1.92S71.11,122.82,71.11,122.82Z"/><path class="cls-1" d="M73.86,93.88c.18.72,0,3,.21,4a48.85,48.85,0,0,1,1.72,14.3c0,5.79,0,9.22,0,9.22l-4.2.44a107.62,107.62,0,0,1-3.34-14.35c-1-7.57-1.16-8.66-1.64-11.73C66.86,94.58,73.29,93.17,73.86,93.88Z"/><path class="cls-1" d="M71.57,126.06c-.14-1-.43-1-.1-2.17a18,18,0,0,0-.13-4.57l3.93.05a20.49,20.49,0,0,0,2.2,6Z"/><path class="cls-4" d="M76.24,122.54l-.32-1.16-4.45.52,0,1.36S76.08,124.13,76.24,122.54Z"/><path class="cls-5" d="M78.27,128.29a8.81,8.81,0,0,1,0,2.61c-.23.87-.8,2.5-4.38,2.35l-.05-.77S78.29,128.43,78.27,128.29Z"/><path class="cls-5" d="M69.88,128.29a8.81,8.81,0,0,0,0,2.61c.22.87.8,2.5,4.38,2.35l0-.77S69.86,128.43,69.88,128.29Z"/><path class="cls-6" d="M76.71,123.35a10,10,0,0,0-5.12,0,5.7,5.7,0,0,0,.79,1.9,10.59,10.59,0,0,0,3,.58C75.46,125.78,76.71,123.35,76.71,123.35Z"/><path class="cls-7" d="M70.91,124.19c0-3,1.23-.65,1.33-.38.17.46,3.48.46,3.66,0,.1-.27,1.18-2.89,1.4.49,0,0,1.14,4.54.9,6-.55,2.11-.9,2.35-4.13,2.35s-3.85-.38-4.13-2.35C69.7,128.84,70.91,124.19,70.91,124.19Z"/><path class="cls-8" d="M72.78,132.55c0,.31.46.32,1,.32s1,0,1-.32-.46-.57-1-.57S72.78,132.23,72.78,132.55Z"/><path class="cls-9" d="M69.94,130.25a7.63,7.63,0,0,1,.1-1.93c.2-.1.39-.18.56-.25,1-.42,2.88-1.63,2.18.38,0,0-2.52,1.34-1.71,3.8C70.35,131.93,70.09,131.33,69.94,130.25Z"/><path class="cls-9" d="M78.07,128.11a3.65,3.65,0,0,0-2.39-1.92l0-.68a3.36,3.36,0,0,1,2.09,1.35,2.91,2.91,0,0,0-2.07-1.77l0-.79a4.46,4.46,0,0,1,1.79,1.2c.16.74.36,1.71.49,2.61Z"/><path class="cls-9" d="M72.39,125.09a2.92,2.92,0,0,0-2.08,1.77,3.38,3.38,0,0,1,2.1-1.35l0,.68a3.71,3.71,0,0,0-2.37,1.88c.15-.91.36-1.88.53-2.62a4.41,4.41,0,0,1,1.74-1.15Z"/><path class="cls-9" d="M75.35,128.45c-1.06-2.26,1.16-.8,2.18-.38.18.07.38.16.58.26a7.45,7.45,0,0,1,.09,1.92c-.28,1.1-.52,1.69-1.13,2C78.23,129.67,75.35,128.45,75.35,128.45Z"/><path class="cls-10" d="M75.61,123.53s-.43,5.43-1.07,6-1.17-.07-1.58-2.07-.75-4.06-.75-4.06-.23-.71.9-1S76,122.6,75.61,123.53Z"/><path class="cls-11" d="M74.79,124.06s.14-.34,1-.24a24.78,24.78,0,0,1-.44,4.63c-.4,1.26-.6,1.87-1.64,1.76s-1.28-1.84-1.56-3.24a20.46,20.46,0,0,1-.31-3.09,1.26,1.26,0,0,1,1.11.18s.18,5.68.93,5.81S75,125.35,74.79,124.06Z"/><path class="cls-4" d="M73,124.82a.45.45,0,0,1-.43-.07c-.09-.08,0-.19.11-.24a.5.5,0,0,1,.44.06C73.19,124.66,73.14,124.77,73,124.82Z"/><path class="cls-12" d="M73,124.79a.42.42,0,0,1-.34-.05c-.07-.07,0-.16.09-.2a.36.36,0,0,1,.34,0C73.12,124.66,73.08,124.75,73,124.79Z"/><path class="cls-4" d="M73.14,126.06a.48.48,0,0,1-.44,0c-.11-.08-.08-.19.06-.25a.48.48,0,0,1,.44,0C73.31,125.89,73.28,126,73.14,126.06Z"/><path class="cls-12" d="M73.1,126a.39.39,0,0,1-.35,0c-.08-.06-.06-.15,0-.2a.39.39,0,0,1,.35,0C73.23,125.89,73.21,126,73.1,126Z"/><path class="cls-4" d="M73.39,127.25a.46.46,0,0,1-.44,0c-.12-.07-.11-.18,0-.25a.51.51,0,0,1,.45,0C73.53,127.07,73.52,127.19,73.39,127.25Z"/><path class="cls-12" d="M73.35,127.23a.39.39,0,0,1-.35,0c-.1-.06-.09-.15,0-.2a.43.43,0,0,1,.35,0C73.46,127.08,73.45,127.17,73.35,127.23Z"/><path class="cls-4" d="M73.5,128.45a.48.48,0,0,1-.44,0c-.14-.06-.17-.17-.06-.25a.48.48,0,0,1,.44,0C73.58,128.26,73.61,128.37,73.5,128.45Z"/><path class="cls-12" d="M73.45,128.43a.39.39,0,0,1-.35,0c-.11-.05-.13-.14,0-.2a.42.42,0,0,1,.35,0C73.51,128.28,73.53,128.37,73.45,128.43Z"/><path class="cls-4" d="M73,125.39a.45.45,0,0,1-.43-.07c-.09-.08,0-.19.11-.24a.48.48,0,0,1,.43.06C73.21,125.23,73.16,125.34,73,125.39Z"/><path class="cls-12" d="M73,125.36a.39.39,0,0,1-.34,0c-.07-.07,0-.16.09-.2a.38.38,0,0,1,.35,0C73.13,125.23,73.09,125.32,73,125.36Z"/><path class="cls-4" d="M73.21,126.64a.48.48,0,0,1-.44,0c-.11-.08-.08-.19.06-.25a.48.48,0,0,1,.44,0C73.38,126.47,73.35,126.58,73.21,126.64Z"/><path class="cls-12" d="M73.17,126.61a.42.42,0,0,1-.35,0c-.08-.07-.06-.15.05-.2a.39.39,0,0,1,.35,0C73.3,126.47,73.28,126.56,73.17,126.61Z"/><path class="cls-4" d="M73.43,127.83a.49.49,0,0,1-.44,0c-.12-.08-.11-.19,0-.26a.54.54,0,0,1,.45,0C73.57,127.65,73.56,127.77,73.43,127.83Z"/><path class="cls-12" d="M73.39,127.81a.39.39,0,0,1-.35,0c-.1-.06-.09-.15,0-.2a.39.39,0,0,1,.35,0C73.49,127.66,73.49,127.75,73.39,127.81Z"/><path class="cls-4" d="M73.72,129a.49.49,0,0,1-.44,0c-.15-.06-.17-.17-.07-.25a.48.48,0,0,1,.44,0C73.79,128.83,73.82,128.94,73.72,129Z"/><path class="cls-12" d="M73.66,129a.42.42,0,0,1-.35,0c-.11-.05-.13-.14,0-.2a.39.39,0,0,1,.35,0C73.72,128.85,73.75,128.94,73.66,129Z"/><path class="cls-4" d="M75,124.82a.45.45,0,0,0,.43-.07c.09-.08,0-.19-.11-.24a.48.48,0,0,0-.43.06C74.81,124.66,74.86,124.77,75,124.82Z"/><path class="cls-12" d="M75.05,124.79a.42.42,0,0,0,.34-.05c.07-.07,0-.16-.09-.2a.36.36,0,0,0-.34,0C74.89,124.66,74.93,124.75,75.05,124.79Z"/><path class="cls-13" d="M72.82,125.23c.07-.07.06-.11.5,0a1.68,1.68,0,0,0,1.64-.63s.52,0,.36.23c0,0-.71.73-1.35.68h0a2.79,2.79,0,0,1-.49,0C72.76,125.4,72.76,125.3,72.82,125.23Z"/><path class="cls-4" d="M74.87,126.06a.48.48,0,0,0,.44,0c.1-.08.07-.19-.07-.25a.48.48,0,0,0-.44,0C74.7,125.89,74.73,126,74.87,126.06Z"/><path class="cls-12" d="M74.91,126a.39.39,0,0,0,.35,0c.08-.06,0-.15-.06-.2a.39.39,0,0,0-.35,0C74.77,125.89,74.8,126,74.91,126Z"/><path class="cls-13" d="M73,126.49c.06-.08,0-.14.49,0l.24,0c.65-.12.63-.27,1.13-.65,0,0,.53,0,.32.25a4.2,4.2,0,0,1-.65.41c0,.12-.24.25-.83.22S72.94,126.56,73,126.49Z"/><path class="cls-4" d="M74.61,127.25a.48.48,0,0,0,.45,0c.12-.07.11-.18,0-.25a.49.49,0,0,0-.44,0C74.48,127.07,74.48,127.19,74.61,127.25Z"/><path class="cls-12" d="M74.66,127.23a.39.39,0,0,0,.35,0c.09-.06.09-.15,0-.2a.43.43,0,0,0-.35,0C74.55,127.08,74.56,127.17,74.66,127.23Z"/><path class="cls-13" d="M73.19,127.71s0-.09.11-.11l.09,0c.71-.07.66-.21,1.26-.56,0,0,.52,0,.26.27a3.07,3.07,0,0,1-.3.17C73.56,128,73.15,127.78,73.19,127.71Z"/><path class="cls-4" d="M74.5,128.45a.51.51,0,0,0,.45,0c.14-.06.16-.17.06-.25a.48.48,0,0,0-.44,0C74.43,128.26,74.4,128.37,74.5,128.45Z"/><path class="cls-12" d="M74.56,128.43a.39.39,0,0,0,.35,0c.11-.05.13-.14,0-.2a.42.42,0,0,0-.35,0C74.5,128.28,74.47,128.37,74.56,128.43Z"/><path class="cls-13" d="M73.34,129l.17,0a3.17,3.17,0,0,0,1.28-.48c.33-.2-.18-.29-.18-.29-.68.31-.59.45-1.18.55C73.17,128.82,73.34,129,73.34,129Z"/><path class="cls-4" d="M75,125.39a.45.45,0,0,0,.43-.07c.09-.08,0-.19-.12-.24a.48.48,0,0,0-.43.06C74.8,125.23,74.85,125.34,75,125.39Z"/><path class="cls-12" d="M75,125.36a.39.39,0,0,0,.34,0c.07-.07,0-.16-.09-.2a.36.36,0,0,0-.34,0C74.87,125.23,74.91,125.32,75,125.36Z"/><path class="cls-4" d="M73.05,124.59c.32.3.37.46.63.59a1.22,1.22,0,0,0,1,0c.43-.13.42-.06.49,0s.06.15-.65.26a2,2,0,0,1-1.84-.67C72.52,124.56,73.05,124.59,73.05,124.59Z"/><path class="cls-4" d="M74.8,126.64a.48.48,0,0,0,.44,0c.1-.08.07-.19-.07-.25a.48.48,0,0,0-.44,0C74.63,126.47,74.66,126.58,74.8,126.64Z"/><path class="cls-12" d="M74.84,126.61a.42.42,0,0,0,.35,0c.08-.07.06-.15-.06-.2a.37.37,0,0,0-.34,0C74.7,126.47,74.73,126.56,74.84,126.61Z"/><path class="cls-14" d="M72.83,126.08c-.21-.25.32-.25.32-.25.51.38.37.52,1.09.64a.8.8,0,0,0,.29,0c.44-.09.43,0,.48,0s0,.18-.69.22A1.88,1.88,0,0,1,72.83,126.08Z"/><path class="cls-14" d="M73.27,126.39v0S73.26,126.4,73.27,126.39Z"/><path class="cls-4" d="M74.57,127.83a.51.51,0,0,0,.45,0c.12-.08.11-.19,0-.26a.52.52,0,0,0-.44,0C74.44,127.65,74.44,127.77,74.57,127.83Z"/><path class="cls-12" d="M74.62,127.81a.39.39,0,0,0,.35,0c.09-.06.09-.15,0-.2a.39.39,0,0,0-.35,0C74.51,127.66,74.52,127.75,74.62,127.81Z"/><path class="cls-4" d="M73.36,127c.59.35.55.49,1.26.56l.09,0c.08,0,.08.06.11.11s-.28.19-1.42-.25a3.07,3.07,0,0,1-.3-.17C72.83,127.06,73.36,127,73.36,127Z"/><path class="cls-4" d="M74.29,129a.48.48,0,0,0,.44,0c.14-.06.17-.17.06-.25a.48.48,0,0,0-.44,0C74.21,128.83,74.19,128.94,74.29,129Z"/><path class="cls-12" d="M74.34,129a.42.42,0,0,0,.35,0c.11-.05.14-.14,0-.2a.39.39,0,0,0-.35,0C74.28,128.85,74.26,128.94,74.34,129Z"/><path class="cls-4" d="M73.22,128.52l0,0c1.25.63,1.32.44,1.31.37a.13.13,0,0,0,0-.06,5.82,5.82,0,0,1-1.16-.63S72.89,128.32,73.22,128.52Z"/><path class="cls-13" d="M73.87,124.48s-3.16-.13-2.76-1.75,2.39.89,2.77,1.58l-.19,0s-1.18-1.68-1.85-1.73-.52.5-.3.7a5.06,5.06,0,0,0,1.84,1c.06,0,.3-.06.37,0S73.77,124.46,73.87,124.48Z"/><path class="cls-13" d="M73.68,124.11s.94-1.9,2.18-1.78,1.3,1-.47,1.67l-1.77.62v-.28a11,11,0,0,0,1.88-.72c.59-.34,1.18-.75.64-.86s-.95-.12-1.66.65c-.34.38-.54.79-.69,1s-.25,0-.25,0Z"/><path class="cls-15" d="M73.89,124.64a3.23,3.23,0,0,0,.63.94,2.3,2.3,0,0,1,.41,1.72c-.05,0,.09.21.09.21s.19,0,.31-.32a1.49,1.49,0,0,0-.56-1.78c-.88-.77-1-1.12-1-1.12S73.41,124.23,73.89,124.64Z"/><path class="cls-15" d="M73.8,124.21a13.73,13.73,0,0,0-.4,1.76c-.07.64-.58,1.51-.53,1.86s-.24.33-.24.33-.18-.16.32-1.34a6.86,6.86,0,0,0,.49-2C73.58,124.4,73.57,124.26,73.8,124.21Z"/><path class="cls-1" d="M112.5,27.21c-.28.54,1,.23.85.27.35-.05.66.66,2,.53l-.46,6a8.46,8.46,0,0,1-1.08-.07c-3.1-.37-3.27-1.49-4.06-1.86a15.14,15.14,0,0,0-3.28-.54l.41-3.43a20.18,20.18,0,0,0,3.07-.32,2.41,2.41,0,0,0,1-.5C111.84,26.79,113,26.18,112.5,27.21Z"/><path class="cls-1" d="M91.85,27.49a3.78,3.78,0,0,1,.91-.33c1.73-.49,7.54-.18,10.9.45a24,24,0,0,0,5.94.38l-.24,4a28.85,28.85,0,0,0-7.18.42,23.25,23.25,0,0,1-10.81-.55C90.48,31.45,91.19,27.79,91.85,27.49Z"/><path class="cls-1" d="M93.44,27a22,22,0,0,1-3.17,0,28.46,28.46,0,0,1-4.77.07,20.27,20.27,0,0,0-7.89-.79C72.59,24,64.93,24.9,69,33.87c1.22,3,4.15,2.11,8.24.78a20.55,20.55,0,0,1,8.84-1.09,29.61,29.61,0,0,0,8-1.34C93.86,30.42,94.51,28.48,93.44,27Z"/><g class="cls-16"><path class="cls-17" d="M80.15,33.79c.8-.46,1.62-.87,2.43-1.29l1.21-.64c.4-.21.8-.44,1.19-.68a6,6,0,0,1-1.07.88,11,11,0,0,1-1.2.7c-.41.21-.83.4-1.25.58A12.66,12.66,0,0,1,80.15,33.79Z"/><path class="cls-17" d="M94,31.59a4.45,4.45,0,0,1,.44-.81l.24-.37a4.48,4.48,0,0,0,.23-.39.91.91,0,0,1,0,.49,2.11,2.11,0,0,1-.2.43,2.2,2.2,0,0,1-.3.37A1.55,1.55,0,0,1,94,31.59Z"/></g><path class="cls-1" d="M54.52,20.56s1.28,3-.51,4.61,9.61.9,9.61,0-1.19-3.19-.45-4.61C63.17,20.56,58.75,20.65,54.52,20.56Z"/><path class="cls-1" d="M73.69,96.4c-.14,1.27-6.53,1.49-7.09-.68-.72-4.48-9.35-28-3.75-30.79,0,0,5.9-10.45,8.46-.63,1.88,7.23,2.44,21.9,2.66,25A27.54,27.54,0,0,1,73.69,96.4Z"/><path class="cls-1" d="M66.73,12.7c0,4.85-3.43,8.78-7.67,8.78s-7.67-3.93-7.67-8.78,3.44-8.79,7.67-8.79S66.73,7.85,66.73,12.7Z"/><path class="cls-18" d="M65.51,15.94a9.48,9.48,0,0,1-3.22,3.89c-.26.15-.55-.23-.77,0-1.72,1.82-2.22.08-2.22.08h-.37l-.52,0s-.41,1.5-2,.06c-.15-.13-.29.13-.46.05a8.4,8.4,0,0,1-3.55-3.93c-.37-2.17-2.12-4.47-1.29-1,.71,2.8,2.47,6.86,7.76,6.86,6.33,0,7.41-5.71,7.72-6.46C67.05,14.29,65.88,13.77,65.51,15.94Z"/><path class="cls-18" d="M60.77,17.13c-1.14.06-1.69.07-1.84.63-.15-.48-.73-.52-2-.53-1.81,0-1.24,2.92-1.24,2.92l1,1.27s1.09-.55.41-.82-.83-.21-.83-1.3.35-1.31,1.42-.93a2.92,2.92,0,0,0,2.25,0c1.08-.38,1.54-.16,1.54.93s-.15,1-.83,1.3.27.54.27.54l1.16-1S62.53,17,60.77,17.13Z"/><path class="cls-18" d="M53.41,19.77s-.35-.55-.79-1.33A2.45,2.45,0,0,0,53.41,19.77Z"/><path class="cls-18" d="M68.49,7.6a7.74,7.74,0,0,0-.38-1.75,14.13,14.13,0,0,0-1.82-2.47c-.05-.09-.12-.18-.18-.28h0a1.49,1.49,0,0,0-.28-.34A3.93,3.93,0,0,0,64,1.68l-.22-.07a3.07,3.07,0,0,1-.31-.17A4.08,4.08,0,0,0,62,1C60.36.33,59.18-.26,57.74.12l-.16,0-.32,0a10.16,10.16,0,0,0-2.37.7A6.09,6.09,0,0,0,52.2,2.47a4.19,4.19,0,0,0-1,1.07,5.39,5.39,0,0,0-.75,1.25c-1.6,3.74,0,8.3.43,10a38,38,0,0,0,1.71,3.69,8.55,8.55,0,0,1-.29-2.66c0-.14,0-.36,0-.63-1-7.86,1.87-8.13,4.49-7.28l.09,0,.6.24a1.62,1.62,0,0,0,1.79-.32A3.79,3.79,0,0,0,60,7.53,8.27,8.27,0,0,1,61.14,7c5.07-.71,4.53,5.57,4.37,6.52s-.24,3.65,0,2.42c0-.08.27.2.34-.39,0,.05,0,0,0,0,.45,1-.66,2.57-.66,2.57s.2-.34.54-1.08l-.32,1.08a26.45,26.45,0,0,0,1.48-2.75,35.41,35.41,0,0,0,1.43-6A3.13,3.13,0,0,0,68.49,7.6Z"/><path class="cls-3" d="M70.61,61.88S72.78,67,74.4,77.54l1.84,16.69h-14L59.64,73.31l-.15-3.87V63.35Z"/><path class="cls-19" d="M48.31,61.39a149.64,149.64,0,0,0,22.66,0L71.25,64s-17.82,1.25-23.2-.1Z"/><g class="cls-16"><path class="cls-17" d="M58,41.2a5.94,5.94,0,0,1-1.22.58,7.62,7.62,0,0,1-1.31.33A7.54,7.54,0,0,1,52.81,42a4.62,4.62,0,0,1-2.32-1.14,3.25,3.25,0,0,1-.71-1,3.61,3.61,0,0,1-.24-1.26,8.81,8.81,0,0,0-.13-1.46,8.8,8.8,0,0,0-.61-1.23l-.15-.25.06.23A12.52,12.52,0,0,1,49,38.59a3.87,3.87,0,0,0,.25,1.46,3.74,3.74,0,0,0,.83,1.25,4.54,4.54,0,0,0,1.22.83,6.24,6.24,0,0,0,1.39.44,7.6,7.6,0,0,0,1.43.12,6.71,6.71,0,0,0,1.42-.15,6.56,6.56,0,0,0,2.62-1.11,4.79,4.79,0,0,0,1-1,3.46,3.46,0,0,0,.55-1.28A4,4,0,0,1,58,41.2Z"/><path class="cls-17" d="M58.67,43.8a3.06,3.06,0,0,0-.51.1,4.77,4.77,0,0,0-1,.38,10,10,0,0,0-1.72,1.13c-.52.42-1,.84-1.58,1.24-.26.2-.53.4-.81.59a7.27,7.27,0,0,1-.86.52,3.74,3.74,0,0,0,1-.28,10,10,0,0,0,.93-.46,14,14,0,0,0,1.68-1.17c.52-.42,1-.82,1.59-1.19a8.94,8.94,0,0,1,.84-.51l.46-.2a1.54,1.54,0,0,1,.48-.12A1.31,1.31,0,0,0,58.67,43.8Z"/><path class="cls-17" d="M53.69,44.66a2.35,2.35,0,0,0,1-.65,8.05,8.05,0,0,1-1.11.22,4.58,4.58,0,0,1-1.05,0,5.46,5.46,0,0,1-1-.26c-.35-.12-.7-.27-1.06-.43a2.73,2.73,0,0,0,.86.83,3.12,3.12,0,0,0,1.15.42A2.75,2.75,0,0,0,53.69,44.66Z"/><path class="cls-17" d="M59.1,50.11a6.88,6.88,0,0,1-1.06.27,3.1,3.1,0,0,1-1,0,4.67,4.67,0,0,1-1-.3c-.33-.15-.66-.32-1-.5a2.63,2.63,0,0,0,.78.88,2.84,2.84,0,0,0,1.11.48,2.27,2.27,0,0,0,1.21-.1A2.2,2.2,0,0,0,59.1,50.11Z"/><path class="cls-17" d="M58.89,52.26a5.53,5.53,0,0,1-1,.23,3.31,3.31,0,0,1-.89,0,4.7,4.7,0,0,1-.88-.27c-.3-.12-.59-.27-.91-.42a2.2,2.2,0,0,0,.69.8,2.53,2.53,0,0,0,1,.44,2,2,0,0,0,1.11-.1A1.82,1.82,0,0,0,58.89,52.26Z"/><path class="cls-17" d="M57.06,54.79a4.05,4.05,0,0,1-.62-.16l-.68-.26a1.49,1.49,0,0,0,.46.64,1.74,1.74,0,0,0,.74.34,1.44,1.44,0,0,0,.82-.09,1.2,1.2,0,0,0,.6-.53,5.24,5.24,0,0,1-.71.1A2.07,2.07,0,0,1,57.06,54.79Z"/><path class="cls-17" d="M63.88,50.05a4.42,4.42,0,0,1-1,.3,3.12,3.12,0,0,1-1,0,6.35,6.35,0,0,1-1.06-.27,2.12,2.12,0,0,0,1,.7,2.29,2.29,0,0,0,1.22.1,2.86,2.86,0,0,0,1.1-.48,2.63,2.63,0,0,0,.78-.88C64.54,49.73,64.21,49.9,63.88,50.05Z"/><path class="cls-17" d="M64.67,51.77c-.32.15-.61.3-.9.42a5.2,5.2,0,0,1-.88.27,3.38,3.38,0,0,1-.9,0,5.43,5.43,0,0,1-1-.23,1.75,1.75,0,0,0,.84.65A2,2,0,0,0,63,53a2.51,2.51,0,0,0,1-.44A2.27,2.27,0,0,0,64.67,51.77Z"/><path class="cls-17" d="M62.86,54.79a2.07,2.07,0,0,1-.61,0,5.47,5.47,0,0,1-.71-.1,1.2,1.2,0,0,0,.6.53,1.44,1.44,0,0,0,.82.09A1.74,1.74,0,0,0,63.7,55a1.49,1.49,0,0,0,.46-.64l-.68.26A3.78,3.78,0,0,1,62.86,54.79Z"/><path class="cls-17" d="M70.75,37.46c0-.22,0-.43,0-.64a9,9,0,0,1,.11-1.15c-.2.23-.4.46-.57.69,0,.15,0,.29,0,.43s0,.46,0,.68,0,.47,0,.67a2.93,2.93,0,0,1-.2,1.18,3.1,3.1,0,0,1-.66,1,5,5,0,0,1-2.15,1.23,7.44,7.44,0,0,1-2.53.28,5.64,5.64,0,0,1-2.45-.67,3.68,3.68,0,0,1-1-.79,3.39,3.39,0,0,1-.65-1.12,3,3,0,0,0,.53,1.22,4,4,0,0,0,1,.93,5.83,5.83,0,0,0,2.56.87,7.49,7.49,0,0,0,2.71-.21,5.41,5.41,0,0,0,2.41-1.35,3.53,3.53,0,0,0,.77-1.2,3.39,3.39,0,0,0,.22-1.41C70.79,37.87,70.76,37.67,70.75,37.46Z"/><path class="cls-17" d="M66.59,47.48a3.85,3.85,0,0,0,1,.28,8.18,8.18,0,0,1-.86-.52c-.28-.19-.55-.39-.81-.59-.53-.4-1-.82-1.57-1.24a10,10,0,0,0-1.72-1.13,5,5,0,0,0-1-.38,3,3,0,0,0-.52-.1,1.25,1.25,0,0,0-.51,0,1.61,1.61,0,0,1,.48.12l.45.2c.29.15.57.33.85.51.55.37,1.06.77,1.58,1.19A13.35,13.35,0,0,0,65.67,47,8.77,8.77,0,0,0,66.59,47.48Z"/><path class="cls-17" d="M66.21,44.23A8.05,8.05,0,0,1,65.1,44a2.33,2.33,0,0,0,1,.65,2.69,2.69,0,0,0,1.23.1,3.12,3.12,0,0,0,1.15-.42,2.87,2.87,0,0,0,.87-.83c-.37.16-.71.31-1.06.43a5.65,5.65,0,0,1-1,.26A4.69,4.69,0,0,1,66.21,44.23Z"/><path class="cls-17" d="M60.2,52.16c0-.69,0-1.39-.06-2.08A18.11,18.11,0,0,0,59.92,48a20.65,20.65,0,0,0-.22,2.08c0,.69-.06,1.39-.06,2.08s0,1.39.06,2.08.1,1.39.22,2.09a18.52,18.52,0,0,0,.22-2.09C60.18,53.55,60.2,52.86,60.2,52.16Z"/></g><path class="cls-20" d="M118.69,31.56a5.31,5.31,0,1,1-5.34-5.28A5.32,5.32,0,0,1,118.69,31.56Z"/><path class="cls-21" d="M116.52,31.57a3.14,3.14,0,1,1-3.16-3.12A3.14,3.14,0,0,1,116.52,31.57Z"/><path class="cls-22" d="M114.91,31.58a1.53,1.53,0,1,1-1.54-1.52A1.52,1.52,0,0,1,114.91,31.58Z"/><path class="cls-1" d="M6.19,27.21c.28.54-1,.23-.85.27-.34-.05-.66.66-2,.53l.46,6a8.46,8.46,0,0,0,1.08-.07C8,33.56,8.18,32.44,9,32.07a15.14,15.14,0,0,1,3.28-.54l-.41-3.43a20.18,20.18,0,0,1-3.07-.32,2.41,2.41,0,0,1-1-.5C6.85,26.79,5.66,26.18,6.19,27.21Z"/><path class="cls-1" d="M26.84,27.49a3.78,3.78,0,0,0-.91-.33c-1.73-.49-7.55-.18-10.9.45A24,24,0,0,1,9.09,28l.24,4a28.85,28.85,0,0,1,7.18.42,23.25,23.25,0,0,0,10.81-.55C28.21,31.45,27.5,27.79,26.84,27.49Z"/><path class="cls-1" d="M25.25,27a22,22,0,0,0,3.17,0,28.46,28.46,0,0,0,4.77.07,20.27,20.27,0,0,1,7.89-.79c5-2.31,12.68-1.41,8.63,7.56-1.22,3-4.15,2.11-8.24.78a20.55,20.55,0,0,0-8.84-1.09,29.61,29.61,0,0,1-8-1.34C24.83,30.42,24.18,28.48,25.25,27Z"/><g class="cls-16"><path class="cls-17" d="M38.54,33.79c-.8-.46-1.62-.87-2.43-1.29l-1.21-.64c-.4-.21-.8-.44-1.19-.68a6,6,0,0,0,1.07.88,11,11,0,0,0,1.2.7c.41.21.83.4,1.25.58A12.66,12.66,0,0,0,38.54,33.79Z"/><path class="cls-17" d="M24.69,31.59a4.45,4.45,0,0,0-.44-.81L24,30.41a4.48,4.48,0,0,1-.23-.39.91.91,0,0,0,0,.49,2.11,2.11,0,0,0,.2.43,2.2,2.2,0,0,0,.3.37A1.55,1.55,0,0,0,24.69,31.59Z"/></g><path class="cls-20" d="M0,31.56a5.31,5.31,0,1,0,5.34-5.28A5.32,5.32,0,0,0,0,31.56Z"/><path class="cls-21" d="M2.17,31.57a3.14,3.14,0,1,0,3.16-3.12A3.15,3.15,0,0,0,2.17,31.57Z"/><path class="cls-22" d="M3.78,31.58a1.53,1.53,0,1,0,1.54-1.52A1.53,1.53,0,0,0,3.78,31.58Z"/><path class="cls-23" d="M49,25.6s2,9.64-.63,17.09a72,72,0,0,1,.31,10.57c-.36,3.81-.34,8.13-.34,8.13a105.58,105.58,0,0,0,22.66,0s-.67-4.15-.56-3.28.57-10.26.46-12.77A19.15,19.15,0,0,1,71,42.69s-3.57-9.5-.76-17.09L68.58,25S65.5,36.61,59.92,36.61,51.4,30.23,50.44,25Z"/></g></g></svg>