<svg xmlns="http://www.w3.org/2000/svg" viewBox="0 0 50.14 143.18"><defs><style>.cls-1{fill:#e4ae84;}.cls-2{fill:#0d0b42;}.cls-11,.cls-12,.cls-13,.cls-15,.cls-2,.cls-4,.cls-6,.cls-7,.cls-8,.cls-9{fill-rule:evenodd;}.cls-3,.cls-7{fill:#404fa2;}.cls-14,.cls-4{fill:#fff;}.cls-5,.cls-8{fill:#d3d5d6;}.cls-6{fill:#000007;}.cls-9{fill:#252b67;}.cls-10{fill:#20245e;}.cls-11{fill:#00002d;}.cls-12{fill:#231f20;}.cls-13{fill:#bcbec0;}.cls-15{fill:#d1d3d4;}.cls-16{fill:#502919;}.cls-17{fill:#333d83;}.cls-18{opacity:0.26;}.cls-19{fill:#511d06;}.cls-20{fill:#504fa1;}</style></defs><g id="Layer_2" data-name="Layer 2"><g id="Capa_1" data-name="Capa 1"><path class="cls-1" d="M31.66,68.69c7.17-3.25,12.13-13.88,11.89-14.1l-.12-.11a14.86,14.86,0,0,1-2.17-2.62,10.24,10.24,0,0,0-3.87-2.93l-4-2.45a9.79,9.79,0,0,0-4.25-2.08,14.07,14.07,0,0,1-3.25-.72l-.16-.06L18,45.71s-1,7.73-1.33,8.52C13.24,62.4,8,70.43,6.92,79.57c-.18,1.5,7.68-1.7,7.18.16,0,0,.86.58,1.1.69s1.15.7,1.15.7c1.44-1.28,6.53,4.48,7.53,3.33C26.75,81.15,23.59,72.33,31.66,68.69Z"/><path class="cls-2" d="M6.54,134.09A9.6,9.6,0,0,0,1.47,134a20.92,20.92,0,0,0,.1,4.41c.19,0,4.39-1.56,4.47-1.67S6.54,134.09,6.54,134.09Z"/><path class="cls-1" d="M4.07,108.88c-.16.62,0,2.61-.19,3.47a41.61,41.61,0,0,0-1.54,12.46c0,5,0,8,0,8l3.77.37a91.86,91.86,0,0,0,3-12.5c.86-6.6,1.05-7.55,1.48-10.21C10.34,109.49,4.58,108.25,4.07,108.88Z"/><path class="cls-1" d="M4.22,111.07c.12,1.1,5.85,1.3,6.35-.59.65-3.91,8.38-24.4,3.36-26.83,0,0-5.28-9.1-7.57-.55C4.67,89.4,4.16,102.18,4,104.85A23.56,23.56,0,0,0,4.22,111.07Z"/><path class="cls-1" d="M6.12,136.91c.13-.83.38-.87.09-1.89a15,15,0,0,1,.12-4l-3.52,0a17.77,17.77,0,0,1-2,5.23Z"/><path class="cls-3" d="M7,81S5,85.46,3.58,94.64L1.94,109.18l12.57.2L17,90.81l.25-2.94L17,82.28Z"/><path class="cls-4" d="M1.94,133.84l.28-1,4,.45,0,1.19S2.08,135.23,1.94,133.84Z"/><path class="cls-5" d="M.12,138.86a7.6,7.6,0,0,0,0,2.27c.2.76.72,2.18,3.92,2.05l0-.67S.1,139,.12,138.86Z"/><path class="cls-5" d="M7.64,138.86a7.37,7.37,0,0,1,0,2.27c-.2.76-.71,2.18-3.92,2.05l0-.67S7.66,139,7.64,138.86Z"/><path class="cls-6" d="M1.52,134.55a9.19,9.19,0,0,1,4.58,0,5,5,0,0,1-.7,1.65,10,10,0,0,1-2.69.51C2.64,136.67,1.52,134.55,1.52,134.55Z"/><path class="cls-7" d="M6.71,135.28c0-2.61-1.1-.56-1.19-.33-.15.4-3.12.4-3.28,0-.09-.23-1.05-2.52-1.25.43,0,0-1,4-.81,5.19.49,1.83.81,2,3.7,2s3.45-.33,3.7-2C7.8,139.34,6.71,135.28,6.71,135.28Z"/><path class="cls-8" d="M5,142.56c0,.28-.41.28-.91.28s-.91,0-.91-.28.41-.49.91-.49S5,142.29,5,142.56Z"/><path class="cls-9" d="M7.58,140.57a6.08,6.08,0,0,0-.09-1.68,5.34,5.34,0,0,0-.5-.23c-.92-.36-2.58-1.41-2,.33,0,0,2.27,1.17,1.54,3.32C7.22,142,7.44,141.5,7.58,140.57Z"/><path class="cls-9" d="M.29,138.7A3.34,3.34,0,0,1,2.44,137l0-.59a3,3,0,0,0-1.88,1.18,2.6,2.6,0,0,1,1.86-1.54l0-.69a4,4,0,0,0-1.6,1c-.15.65-.33,1.49-.45,2.28Z"/><path class="cls-9" d="M5.39,136.07a2.61,2.61,0,0,1,1.86,1.54,3.06,3.06,0,0,0-1.88-1.18l0,.59a3.3,3.3,0,0,1,2.12,1.64c-.13-.79-.31-1.63-.47-2.28a3.93,3.93,0,0,0-1.56-1Z"/><path class="cls-9" d="M2.73,139c1-2-1-.69-1.95-.33-.16.07-.34.14-.52.23a6.88,6.88,0,0,0-.08,1.68c.26,1,.46,1.46,1,1.74C.15,140.06,2.73,139,2.73,139Z"/><path class="cls-10" d="M2.5,134.71s.39,4.73,1,5.26,1-.06,1.41-1.81.68-3.53.68-3.53.2-.62-.81-.85S2.14,133.9,2.5,134.71Z"/><path class="cls-11" d="M3.24,135.17s-.13-.29-.9-.21a21.54,21.54,0,0,0,.39,4c.36,1.11.54,1.64,1.47,1.54s1.15-1.6,1.4-2.82a17.68,17.68,0,0,0,.28-2.7,1.18,1.18,0,0,0-1,.16s-.16,5-.83,5.06S3.09,136.29,3.24,135.17Z"/><path class="cls-4" d="M4.85,135.83a.41.41,0,0,0,.38-.06c.08-.07,0-.17-.1-.21a.43.43,0,0,0-.39.06C4.67,135.69,4.71,135.79,4.85,135.83Z"/><path class="cls-12" d="M4.88,135.8a.31.31,0,0,0,.3,0c.07-.06,0-.14-.08-.17a.33.33,0,0,0-.3,0C4.73,135.69,4.77,135.77,4.88,135.8Z"/><path class="cls-4" d="M4.72,136.91a.44.44,0,0,0,.39,0c.09-.07.07-.17-.06-.22a.44.44,0,0,0-.39,0C4.56,136.76,4.59,136.86,4.72,136.91Z"/><path class="cls-12" d="M4.75,136.89a.37.37,0,0,0,.31,0c.08-.06.06-.13,0-.17a.39.39,0,0,0-.32,0C4.63,136.77,4.65,136.84,4.75,136.89Z"/><path class="cls-4" d="M4.49,138a.47.47,0,0,0,.4,0c.1-.07.1-.17,0-.22a.41.41,0,0,0-.39,0C4.37,137.79,4.37,137.89,4.49,138Z"/><path class="cls-12" d="M4.53,137.93a.34.34,0,0,0,.31,0c.09,0,.08-.13,0-.17a.37.37,0,0,0-.31,0C4.43,137.8,4.44,137.88,4.53,137.93Z"/><path class="cls-4" d="M4.39,139a.46.46,0,0,0,.4,0c.12-.05.15-.15,0-.22a.44.44,0,0,0-.39,0C4.32,138.83,4.3,138.93,4.39,139Z"/><path class="cls-12" d="M4.44,139a.37.37,0,0,0,.31,0c.1,0,.12-.11,0-.17a.39.39,0,0,0-.32,0C4.38,138.85,4.36,138.92,4.44,139Z"/><path class="cls-4" d="M4.83,136.33a.43.43,0,0,0,.39-.06c.08-.07,0-.17-.1-.21a.43.43,0,0,0-.39.05C4.65,136.19,4.7,136.28,4.83,136.33Z"/><path class="cls-12" d="M4.86,136.3a.36.36,0,0,0,.31-.05c.06-.06,0-.13-.08-.17a.36.36,0,0,0-.31,0C4.72,136.19,4.76,136.26,4.86,136.3Z"/><path class="cls-4" d="M4.65,137.41a.43.43,0,0,0,.4,0c.09-.07.07-.16-.06-.22a.44.44,0,0,0-.39,0C4.5,137.27,4.53,137.36,4.65,137.41Z"/><path class="cls-12" d="M4.69,137.39a.33.33,0,0,0,.31,0c.08-.05.06-.13,0-.17a.36.36,0,0,0-.32,0C4.57,137.27,4.59,137.35,4.69,137.39Z"/><path class="cls-4" d="M4.45,138.46a.47.47,0,0,0,.4,0c.11-.06.1-.16,0-.22a.43.43,0,0,0-.4,0C4.33,138.3,4.34,138.4,4.45,138.46Z"/><path class="cls-12" d="M4.49,138.43a.36.36,0,0,0,.32,0c.08-.05.08-.13,0-.18a.4.4,0,0,0-.32,0C4.4,138.31,4.4,138.39,4.49,138.43Z"/><path class="cls-4" d="M4.2,139.49a.41.41,0,0,0,.39,0c.13-.05.15-.14.06-.21a.44.44,0,0,0-.39,0C4.13,139.33,4.1,139.42,4.2,139.49Z"/><path class="cls-12" d="M4.25,139.47a.33.33,0,0,0,.31,0c.1,0,.12-.12,0-.17a.33.33,0,0,0-.31,0C4.19,139.34,4.17,139.42,4.25,139.47Z"/><path class="cls-4" d="M3,135.83a.43.43,0,0,1-.39-.06c-.08-.07,0-.17.1-.21a.43.43,0,0,1,.39.06C3.22,135.69,3.17,135.79,3,135.83Z"/><path class="cls-12" d="M3,135.8a.33.33,0,0,1-.31,0c-.06-.06,0-.14.08-.17a.36.36,0,0,1,.31,0C3.15,135.69,3.11,135.77,3,135.8Z"/><path class="cls-13" d="M5,136.19c-.06-.06-.06-.1-.44,0a1.48,1.48,0,0,1-1.47-.55s-.47,0-.33.2a2,2,0,0,0,1.21.6H4a2.25,2.25,0,0,0,.44,0C5.05,136.34,5.06,136.25,5,136.19Z"/><path class="cls-4" d="M3.17,136.91a.46.46,0,0,1-.4,0c-.09-.07-.06-.17.06-.22a.46.46,0,0,1,.4,0C3.32,136.76,3.29,136.86,3.17,136.91Z"/><path class="cls-12" d="M3.13,136.89a.37.37,0,0,1-.31,0c-.07-.06,0-.13.05-.17a.37.37,0,0,1,.31,0C3.25,136.77,3.23,136.84,3.13,136.89Z"/><path class="cls-13" d="M4.85,137.29c0-.07,0-.12-.44,0l-.22,0c-.57-.11-.56-.24-1-.57,0,0-.48,0-.29.22a3.81,3.81,0,0,0,.59.36c0,.1.21.21.74.19S4.89,137.35,4.85,137.29Z"/><path class="cls-4" d="M3.4,138a.47.47,0,0,1-.4,0c-.11-.07-.1-.17,0-.22a.43.43,0,0,1,.4,0C3.51,137.79,3.51,137.89,3.4,138Z"/><path class="cls-12" d="M3.36,137.93a.36.36,0,0,1-.32,0c-.09,0-.08-.13,0-.17a.4.4,0,0,1,.32,0C3.45,137.8,3.45,137.88,3.36,137.93Z"/><path class="cls-13" d="M4.67,138.35s0-.08-.1-.09l-.08,0c-.63-.06-.6-.18-1.12-.49,0,0-.48,0-.24.24l.27.15C4.33,138.64,4.7,138.41,4.67,138.35Z"/><path class="cls-4" d="M3.49,139a.44.44,0,0,1-.39,0C3,139,3,138.88,3,138.81a.44.44,0,0,1,.39,0C3.56,138.83,3.58,138.93,3.49,139Z"/><path class="cls-12" d="M3.44,139a.37.37,0,0,1-.31,0c-.1,0-.12-.11,0-.17a.37.37,0,0,1,.31,0C3.5,138.85,3.52,138.92,3.44,139Z"/><path class="cls-13" d="M4.46,139.28c-.53-.09-.46-.21-1.06-.47,0,0-.46.07-.16.25a2.88,2.88,0,0,0,1.14.42l.15,0S4.69,139.32,4.46,139.28Z"/><path class="cls-4" d="M3.05,136.33a.43.43,0,0,1-.39-.06c-.08-.07,0-.17.11-.21a.41.41,0,0,1,.38.05C3.23,136.19,3.18,136.28,3.05,136.33Z"/><path class="cls-12" d="M3,136.3a.36.36,0,0,1-.31-.05c-.06-.06,0-.13.09-.17a.34.34,0,0,1,.3,0C3.16,136.19,3.13,136.26,3,136.3Z"/><path class="cls-4" d="M4.8,135.63c-.29.27-.34.41-.57.52a1.1,1.1,0,0,1-.9,0c-.39-.11-.38-.05-.45,0s0,.13.59.22a1.81,1.81,0,0,0,1.65-.58C5.27,135.6,4.8,135.63,4.8,135.63Z"/><path class="cls-4" d="M3.23,137.41a.43.43,0,0,1-.4,0c-.09-.07-.06-.16.06-.22a.46.46,0,0,1,.4,0C3.38,137.27,3.35,137.36,3.23,137.41Z"/><path class="cls-12" d="M3.19,137.39a.33.33,0,0,1-.31,0c-.07-.05,0-.13.05-.17a.33.33,0,0,1,.31,0C3.31,137.27,3.29,137.35,3.19,137.39Z"/><path class="cls-14" d="M5,136.93c.19-.22-.29-.22-.29-.22-.45.34-.32.45-1,.56a1,1,0,0,1-.26,0c-.4-.08-.39,0-.44,0s0,.15.63.19A1.69,1.69,0,0,0,5,136.93Z"/><path class="cls-14" d="M4.6,137.2v0Z"/><path class="cls-4" d="M3.43,138.46a.47.47,0,0,1-.4,0c-.11-.06-.1-.16,0-.22a.43.43,0,0,1,.4,0C3.55,138.3,3.55,138.4,3.43,138.46Z"/><path class="cls-12" d="M3.39,138.43a.34.34,0,0,1-.31,0c-.09-.05-.09-.13,0-.18a.4.4,0,0,1,.32,0C3.49,138.31,3.48,138.39,3.39,138.43Z"/><path class="cls-4" d="M4.52,137.75c-.53.31-.5.43-1.13.49l-.08,0c-.08,0-.08.05-.1.09s.25.16,1.27-.21a2,2,0,0,0,.27-.15C5,137.78,4.52,137.75,4.52,137.75Z"/><path class="cls-4" d="M3.68,139.49a.41.41,0,0,1-.39,0c-.13-.05-.15-.14-.06-.21a.46.46,0,0,1,.4,0C3.75,139.33,3.78,139.42,3.68,139.49Z"/><path class="cls-12" d="M3.64,139.47a.34.34,0,0,1-.31,0c-.1,0-.13-.12-.05-.17a.33.33,0,0,1,.31,0C3.69,139.34,3.71,139.42,3.64,139.47Z"/><path class="cls-4" d="M4.48,138.81a5.73,5.73,0,0,1-1,.54.09.09,0,0,1,0,.05c0,.07.06.23,1.17-.32l0,0C4.94,138.88,4.48,138.81,4.48,138.81Z"/><path class="cls-13" d="M4.06,135.54s2.83-.12,2.48-1.53-2.15.77-2.49,1.38l.17,0s1-1.46,1.66-1.5.46.43.27.6a4.31,4.31,0,0,1-1.65.92c-.06,0-.27-.05-.34,0S4.15,135.52,4.06,135.54Z"/><path class="cls-13" d="M4.23,135.21s-.84-1.65-2-1.55-1.16.92.43,1.46l1.58.54v-.25a9.91,9.91,0,0,1-1.68-.62c-.53-.3-1.06-.66-.57-.76s.85-.1,1.48.58c.3.32.49.68.62.82s.22,0,.22,0Z"/><path class="cls-15" d="M4,135.68a2.9,2.9,0,0,1-.56.81,2,2,0,0,0-.37,1.5s-.08.19-.08.19-.17,0-.28-.28a1.29,1.29,0,0,1,.51-1.55c.78-.67.88-1,.88-1S4.48,135.32,4,135.68Z"/><path class="cls-15" d="M4.12,135.3a13.27,13.27,0,0,1,.36,1.53c.07.56.52,1.32.47,1.63s.22.28.22.28.17-.14-.29-1.17a6.49,6.49,0,0,1-.44-1.75C4.32,135.47,4.33,135.34,4.12,135.3Z"/><path class="cls-2" d="M27.06,134.09a9.6,9.6,0,0,1,5.07-.12,22.36,22.36,0,0,1-.1,4.41c-.2,0-4.39-1.56-4.48-1.67S27.06,134.09,27.06,134.09Z"/><path class="cls-1" d="M29.53,108.88c.16.62,0,2.61.19,3.47a41.6,41.6,0,0,1,1.53,12.46v8l-3.77.37a90.26,90.26,0,0,1-3-12.5c-.87-6.6-1.05-7.55-1.48-10.21C23.25,109.49,29,108.25,29.53,108.88Z"/><path class="cls-1" d="M27.47,136.91c-.12-.83-.38-.87-.08-1.89a15.45,15.45,0,0,0-.12-4l3.52,0a17.45,17.45,0,0,0,2,5.23Z"/><path class="cls-4" d="M31.66,133.84l-.28-1-4,.45,0,1.19S31.52,135.23,31.66,133.84Z"/><path class="cls-5" d="M33.48,138.86a7.6,7.6,0,0,1,0,2.27c-.21.76-.72,2.18-3.93,2.05l-.05-.67S33.5,139,33.48,138.86Z"/><path class="cls-5" d="M26,138.86a7.6,7.6,0,0,0,0,2.27c.21.76.72,2.18,3.93,2.05l0-.67S25.94,139,26,138.86Z"/><path class="cls-6" d="M32.08,134.55a9.19,9.19,0,0,0-4.58,0,4.81,4.81,0,0,0,.7,1.65,9.93,9.93,0,0,0,2.69.51C31,136.67,32.08,134.55,32.08,134.55Z"/><path class="cls-7" d="M26.89,135.28c0-2.61,1.1-.56,1.19-.33.15.4,3.12.4,3.27,0,.09-.23,1.06-2.52,1.26.43,0,0,1,4,.8,5.19-.48,1.83-.8,2-3.7,2s-3.44-.33-3.69-2C25.8,139.34,26.89,135.28,26.89,135.28Z"/><path class="cls-8" d="M28.56,142.56c0,.28.41.28.92.28s.91,0,.91-.28-.41-.49-.91-.49S28.56,142.29,28.56,142.56Z"/><path class="cls-9" d="M26,140.57a5.71,5.71,0,0,1,.09-1.68,4.38,4.38,0,0,1,.5-.23c.92-.36,2.58-1.41,1.95.33,0,0-2.26,1.17-1.53,3.32C26.38,142,26.15,141.5,26,140.57Z"/><path class="cls-9" d="M33.31,138.7A3.34,3.34,0,0,0,31.16,137l0-.59a3.06,3.06,0,0,1,1.88,1.18,2.6,2.6,0,0,0-1.86-1.54l0-.69a4,4,0,0,1,1.61,1c.15.65.32,1.49.45,2.28Z"/><path class="cls-9" d="M28.21,136.07a2.6,2.6,0,0,0-1.86,1.54,3.06,3.06,0,0,1,1.88-1.18l0,.59a3.33,3.33,0,0,0-2.13,1.64c.13-.79.32-1.63.48-2.28a4,4,0,0,1,1.55-1Z"/><path class="cls-9" d="M30.86,139c-.94-2,1-.69,2-.33.16.07.34.14.51.23a6,6,0,0,1,.08,1.68c-.25,1-.46,1.46-1,1.74C33.44,140.06,30.86,139,30.86,139Z"/><path class="cls-10" d="M31.1,134.71s-.39,4.73-1,5.26-1.05-.06-1.41-1.81-.68-3.53-.68-3.53-.2-.62.81-.85S31.46,133.9,31.1,134.71Z"/><path class="cls-11" d="M30.36,135.17s.12-.29.89-.21a20.69,20.69,0,0,1-.39,4c-.35,1.11-.54,1.64-1.46,1.54s-1.16-1.6-1.4-2.82a17.68,17.68,0,0,1-.28-2.7,1.15,1.15,0,0,1,1,.16s.16,5,.83,5.06S30.51,136.29,30.36,135.17Z"/><path class="cls-4" d="M28.75,135.83a.43.43,0,0,1-.39-.06c-.07-.07,0-.17.11-.21a.41.41,0,0,1,.38.06C28.93,135.69,28.89,135.79,28.75,135.83Z"/><path class="cls-12" d="M28.72,135.8a.33.33,0,0,1-.31,0c-.06-.06,0-.14.09-.17a.34.34,0,0,1,.3,0C28.86,135.69,28.83,135.77,28.72,135.8Z"/><path class="cls-4" d="M28.88,136.91a.44.44,0,0,1-.39,0c-.1-.07-.07-.17.06-.22a.44.44,0,0,1,.39,0C29,136.76,29,136.86,28.88,136.91Z"/><path class="cls-12" d="M28.85,136.89a.39.39,0,0,1-.32,0c-.07-.06-.05-.13,0-.17a.37.37,0,0,1,.31,0C29,136.77,29,136.84,28.85,136.89Z"/><path class="cls-4" d="M29.11,138a.47.47,0,0,1-.4,0c-.1-.07-.1-.17,0-.22a.43.43,0,0,1,.4,0C29.23,137.79,29.22,137.89,29.11,138Z"/><path class="cls-12" d="M29.07,137.93a.36.36,0,0,1-.32,0c-.08,0-.08-.13,0-.17a.4.4,0,0,1,.32,0C29.17,137.8,29.16,137.88,29.07,137.93Z"/><path class="cls-4" d="M29.21,139a.46.46,0,0,1-.4,0c-.12-.05-.15-.15-.06-.22a.46.46,0,0,1,.4,0C29.27,138.83,29.3,138.93,29.21,139Z"/><path class="cls-12" d="M29.16,139a.37.37,0,0,1-.31,0c-.1,0-.12-.11-.05-.17a.37.37,0,0,1,.31,0C29.21,138.85,29.23,138.92,29.16,139Z"/><path class="cls-4" d="M28.76,136.33a.41.41,0,0,1-.38-.06c-.08-.07,0-.17.1-.21a.43.43,0,0,1,.39.05C29,136.19,28.9,136.28,28.76,136.33Z"/><path class="cls-12" d="M28.74,136.3a.36.36,0,0,1-.31-.05c-.06-.06,0-.13.08-.17a.36.36,0,0,1,.31,0C28.88,136.19,28.84,136.26,28.74,136.3Z"/><path class="cls-4" d="M28.94,137.41a.41.41,0,0,1-.39,0c-.1-.07-.07-.16.06-.22a.44.44,0,0,1,.39,0C29.09,137.27,29.07,137.36,28.94,137.41Z"/><path class="cls-12" d="M28.91,137.39a.33.33,0,0,1-.31,0c-.08-.05-.06-.13,0-.17a.33.33,0,0,1,.31,0C29,137.27,29,137.35,28.91,137.39Z"/><path class="cls-4" d="M29.15,138.46a.47.47,0,0,1-.4,0c-.11-.06-.1-.16,0-.22a.43.43,0,0,1,.4,0C29.27,138.3,29.26,138.4,29.15,138.46Z"/><path class="cls-12" d="M29.11,138.43a.36.36,0,0,1-.32,0c-.09-.05-.08-.13,0-.18a.4.4,0,0,1,.32,0C29.2,138.31,29.2,138.39,29.11,138.43Z"/><path class="cls-4" d="M29.4,139.49a.43.43,0,0,1-.4,0c-.12-.05-.15-.14-.05-.21a.44.44,0,0,1,.39,0C29.47,139.33,29.49,139.42,29.4,139.49Z"/><path class="cls-12" d="M29.35,139.47a.33.33,0,0,1-.31,0c-.1,0-.12-.12-.05-.17a.36.36,0,0,1,.32,0C29.41,139.34,29.43,139.42,29.35,139.47Z"/><path class="cls-4" d="M30.56,135.83a.43.43,0,0,0,.39-.06c.08-.07,0-.17-.1-.21a.43.43,0,0,0-.39.06C30.38,135.69,30.43,135.79,30.56,135.83Z"/><path class="cls-12" d="M30.59,135.8a.33.33,0,0,0,.31,0c.06-.06,0-.14-.08-.17a.36.36,0,0,0-.31,0C30.45,135.69,30.48,135.77,30.59,135.8Z"/><path class="cls-13" d="M28.6,136.19c.06-.06,0-.1.44,0a1.48,1.48,0,0,0,1.47-.55s.47,0,.33.2a2,2,0,0,1-1.21.6h0a2.25,2.25,0,0,1-.44,0C28.54,136.34,28.54,136.25,28.6,136.19Z"/><path class="cls-4" d="M30.43,136.91a.46.46,0,0,0,.4,0c.09-.07.06-.17-.06-.22a.46.46,0,0,0-.4,0C30.28,136.76,30.31,136.86,30.43,136.91Z"/><path class="cls-12" d="M30.47,136.89a.37.37,0,0,0,.31,0c.07-.06,0-.13-.05-.17a.37.37,0,0,0-.31,0C30.35,136.77,30.37,136.84,30.47,136.89Z"/><path class="cls-13" d="M28.75,137.29c.05-.07,0-.12.44,0l.22,0c.57-.11.56-.24,1-.57,0,0,.47,0,.28.22a4,4,0,0,1-.58.36c0,.1-.22.21-.75.19S28.7,137.35,28.75,137.29Z"/><path class="cls-4" d="M30.2,138a.47.47,0,0,0,.4,0c.11-.07.1-.17,0-.22a.43.43,0,0,0-.4,0C30.08,137.79,30.09,137.89,30.2,138Z"/><path class="cls-12" d="M30.24,137.93a.36.36,0,0,0,.32,0c.08,0,.08-.13,0-.17a.4.4,0,0,0-.32,0C30.15,137.8,30.15,137.88,30.24,137.93Z"/><path class="cls-13" d="M28.93,138.35s0-.08.1-.09l.08,0c.63-.06.59-.18,1.12-.49,0,0,.47,0,.24.24l-.27.15C29.26,138.64,28.9,138.41,28.93,138.35Z"/><path class="cls-4" d="M30.11,139a.44.44,0,0,0,.39,0c.13-.05.15-.15.06-.22a.46.46,0,0,0-.4,0C30,138.83,30,138.93,30.11,139Z"/><path class="cls-12" d="M30.15,139a.39.39,0,0,0,.32,0c.1,0,.11-.11,0-.17a.37.37,0,0,0-.31,0C30.1,138.85,30.08,138.92,30.15,139Z"/><path class="cls-13" d="M29.07,139.45l.15,0a2.88,2.88,0,0,0,1.14-.42c.29-.18-.16-.25-.16-.25-.61.26-.53.38-1.06.47C28.91,139.32,29.07,139.45,29.07,139.45Z"/><path class="cls-4" d="M30.55,136.33a.41.41,0,0,0,.38-.06c.08-.07,0-.17-.1-.21a.41.41,0,0,0-.38.05C30.37,136.19,30.41,136.28,30.55,136.33Z"/><path class="cls-12" d="M30.58,136.3a.34.34,0,0,0,.3-.05c.07-.06,0-.13-.08-.17a.34.34,0,0,0-.3,0C30.43,136.19,30.47,136.26,30.58,136.3Z"/><path class="cls-4" d="M28.8,135.63c.28.27.34.41.57.52a1.1,1.1,0,0,0,.9,0c.38-.11.38-.05.45,0s.05.13-.59.22a1.81,1.81,0,0,1-1.65-.58C28.33,135.6,28.8,135.63,28.8,135.63Z"/><path class="cls-4" d="M30.37,137.41a.41.41,0,0,0,.39,0c.1-.07.07-.16-.05-.22a.46.46,0,0,0-.4,0C30.22,137.27,30.24,137.36,30.37,137.41Z"/><path class="cls-12" d="M30.41,137.39a.34.34,0,0,0,.31,0c.07-.05.05-.13,0-.17a.33.33,0,0,0-.31,0C30.29,137.27,30.31,137.35,30.41,137.39Z"/><path class="cls-14" d="M28.61,136.93c-.19-.22.28-.22.28-.22.46.34.33.45,1,.56a.86.86,0,0,0,.25,0c.41-.08.39,0,.44,0s0,.15-.62.19A1.67,1.67,0,0,1,28.61,136.93Z"/><path class="cls-14" d="M29,137.2v0S29,137.21,29,137.2Z"/><path class="cls-4" d="M30.17,138.46a.47.47,0,0,0,.4,0c.1-.06.1-.16,0-.22a.43.43,0,0,0-.4,0C30.05,138.3,30.05,138.4,30.17,138.46Z"/><path class="cls-12" d="M30.21,138.43a.34.34,0,0,0,.31,0c.09-.05.08-.13,0-.18a.37.37,0,0,0-.31,0C30.11,138.31,30.12,138.39,30.21,138.43Z"/><path class="cls-4" d="M29.08,137.75c.53.31.49.43,1.13.49l.08,0c.07,0,.08.05.09.09s-.24.16-1.27-.21a2.26,2.26,0,0,1-.26-.15C28.61,137.78,29.08,137.75,29.08,137.75Z"/><path class="cls-4" d="M29.91,139.49a.43.43,0,0,0,.4,0c.12-.05.15-.14.06-.21a.46.46,0,0,0-.4,0C29.85,139.33,29.82,139.42,29.91,139.49Z"/><path class="cls-12" d="M30,139.47a.34.34,0,0,0,.31,0c.1,0,.12-.12.05-.17a.33.33,0,0,0-.31,0C29.91,139.34,29.89,139.42,30,139.47Z"/><path class="cls-4" d="M29,139.06l0,0c1.11.55,1.18.39,1.16.32v-.05a6,6,0,0,1-1.05-.54S28.66,138.88,29,139.06Z"/><path class="cls-13" d="M29.53,135.54s-2.82-.12-2.47-1.53,2.14.77,2.48,1.38l-.16,0s-1.06-1.46-1.67-1.5-.46.43-.26.6a4.22,4.22,0,0,0,1.65.92c.06,0,.27-.05.33,0S29.45,135.52,29.53,135.54Z"/><path class="cls-13" d="M29.37,135.21s.84-1.65,1.95-1.55,1.16.92-.42,1.46l-1.58.54v-.25a10.24,10.24,0,0,0,1.68-.62c.53-.3,1.06-.66.57-.76s-.85-.1-1.48.58a9.73,9.73,0,0,0-.62.82c-.14.14-.22,0-.22,0Z"/><path class="cls-15" d="M29.56,135.68a2.9,2.9,0,0,0,.56.81,2,2,0,0,1,.37,1.5s.08.19.08.19.17,0,.27-.28a1.26,1.26,0,0,0-.5-1.55c-.78-.67-.88-1-.88-1S29.12,135.32,29.56,135.68Z"/><path class="cls-15" d="M29.48,135.3a11.37,11.37,0,0,0-.36,1.53c-.07.56-.52,1.32-.48,1.63s-.21.28-.21.28-.17-.14.28-1.17a6.27,6.27,0,0,0,.45-1.75C29.28,135.47,29.27,135.34,29.48,135.3Z"/><path class="cls-1" d="M29.37,111.07c-.12,1.1-5.85,1.3-6.35-.59-.65-3.91-8.37-24.4-3.36-26.83,0,0,5.29-9.1,7.58-.55,1.69,6.3,2.19,19.08,2.39,21.75A23.14,23.14,0,0,1,29.37,111.07Z"/><path class="cls-3" d="M26.62,81s1.94,4.46,3.4,13.64l1.64,14.54H19.1L16.79,91l-.14-3.37v-5.3Z"/><path class="cls-1" d="M33.3,42.77s-.44,2.84-2.49,3.19,6.71,5.06,7.13,4.39.57-2.91,1.77-3.62C39.71,46.73,36.39,44.77,33.3,42.77Z"/><path class="cls-1" d="M46,42.53c-2.22,3.59-6.56,4.94-9.71,3s-3.89-6.43-1.67-10,6.56-4.94,9.7-3S48.17,38.93,46,42.53Z"/><path class="cls-1" d="M25.43,12.46A9,9,0,0,1,27,10.25c.73-.68.94-1,2.05-2.15a5.82,5.82,0,0,1,1.89-1.56c.51-.3.16-1.61-1.22-.75a5.48,5.48,0,0,0-1.63,1.26s1.48-2,2.16-3,1.16-1.73.59-2c-.29-.13-.49-.06-1.47,1.33s-2.1,2.95-2.1,2.95S30.72,1.09,30.1.69c-.4-.26-.69-.11-1.76,1.61s-2,3.41-2,3.41S28.68,1,28.71.59c0-.26-.21-1.42-1.13.47L25.44,5.42s1.81-4.06,1.24-4.27-1.19,1.62-2.22,4.13-.79,2.55-.84,3.32a12.8,12.8,0,0,1-1,2.72Z"/><path class="cls-16" d="M43.56,44.37a8.18,8.18,0,0,1-4.16,1.41c-.27,0-.31-.42-.58-.35-2.11.57-1.68-1-1.68-1l-.28-.16-.37-.26s-1,.92-1.55-.9c0-.16-.27,0-.36-.17a7.32,7.32,0,0,1-.83-4.54c.71-1.77.47-4.28-.51-1.31-.76,2.4-1.31,6.22,2.62,8.64,4.69,2.89,8.1-.86,8.67-1.26C45.45,43.85,44.83,42.93,43.56,44.37Z"/><path class="cls-16" d="M39.5,43.09c-.87-.47-1.28-.72-1.65-.38.11-.42-.31-.72-1.22-1.28C35.29,40.6,34.38,43,34.38,43l.18,1.41s1.06.09.68-.42-.53-.53,0-1.34.86-.81,1.48,0a2.54,2.54,0,0,0,1.67,1c1,.21,1.22.58.72,1.39s-.58.7-1.21.58,0,.52,0,.52l1.31-.2S40.85,43.82,39.5,43.09Z"/><path class="cls-16" d="M32.83,41.69s0-.58,0-1.35A2.12,2.12,0,0,0,32.83,41.69Z"/><path class="cls-16" d="M49.58,39.55a6,6,0,0,0,.52-1.47,12.21,12.21,0,0,0-.22-2.66,2.71,2.71,0,0,0,0-.29h0a1.24,1.24,0,0,0,0-.38,3.43,3.43,0,0,0-.9-1.66l-.13-.15-.16-.27a3.38,3.38,0,0,0-.84-1c-.91-1.24-1.52-2.22-2.76-2.59L44.89,29a1.46,1.46,0,0,0-.22-.17,9.11,9.11,0,0,0-2.08-.56,5.32,5.32,0,0,0-2.75,0,3.72,3.72,0,0,0-1.2.34,4.87,4.87,0,0,0-1.13.59c-2.9,2-3.78,6.17-4.24,7.58a32.31,32.31,0,0,0-.41,3.53,7,7,0,0,1,1-2.11,4.82,4.82,0,0,0,.28-.48c2.87-6.28,5.1-5.17,6.66-3.35l.05.06a4.85,4.85,0,0,0,.34.46,1.41,1.41,0,0,0,1.47.58,2.68,2.68,0,0,0,.66.11,7.81,7.81,0,0,1,1.08.16c4.08,1.79.81,6.2.26,6.84s-1.85,2.6-1.07,1.81c0-.05.11.28.42-.13,0,.05,0,0,0,0-.11,1-1.66,1.61-1.66,1.61a10,10,0,0,0,.9-.56L42.5,46a21.1,21.1,0,0,0,2.36-1.37,29.9,29.9,0,0,0,3.79-3.77A2.68,2.68,0,0,0,49.58,39.55Z"/><path class="cls-17" d="M6.92,79.57a130.39,130.39,0,0,0,19.74,0l.24,2.3S11.38,83,6.69,81.78Z"/><g class="cls-18"><path class="cls-19" d="M26.46,59.68a5.05,5.05,0,0,1-1.17-.12,7,7,0,0,1-1.12-.36,6.55,6.55,0,0,1-2-1.27A4.09,4.09,0,0,1,21,56a2.56,2.56,0,0,1,0-1.1,2.93,2.93,0,0,1,.4-1.05,12.12,12.12,0,0,0,.57-1.14,9.71,9.71,0,0,0,.1-1.19v-.25l-.06.19a10.58,10.58,0,0,1-1,2.15,3.24,3.24,0,0,0-.43,2.51,3.64,3.64,0,0,0,.53,1.17,4.73,4.73,0,0,0,.82,1,6.78,6.78,0,0,0,1,.75,7.7,7.7,0,0,0,1.12.54,5.85,5.85,0,0,0,2.45.37,4.13,4.13,0,0,0,1.2-.29,3.22,3.22,0,0,0,1-.7A3.45,3.45,0,0,1,26.46,59.68Z"/><path class="cls-19" d="M25.75,61.91a2.14,2.14,0,0,0-.42-.16,4.05,4.05,0,0,0-.9-.16,7.65,7.65,0,0,0-1.79.06c-.58.07-1.15.14-1.73.19-.29,0-.58.06-.87.07a6.48,6.48,0,0,1-.88,0,3.69,3.69,0,0,0,.86.25c.3,0,.6.07.9.08a13.19,13.19,0,0,0,1.78-.1c.58-.07,1.15-.14,1.72-.16a8.19,8.19,0,0,1,.86,0,3.18,3.18,0,0,1,.43.06,1.51,1.51,0,0,1,.41.13A1.08,1.08,0,0,0,25.75,61.91Z"/><path class="cls-19" d="M21.66,60.27a2.07,2.07,0,0,0,1.05,0,5.85,5.85,0,0,1-.92-.34A3.68,3.68,0,0,1,21,59.4a4.13,4.13,0,0,1-.65-.67,7.2,7.2,0,0,1-.59-.8,2.33,2.33,0,0,0,.26,1,2.56,2.56,0,0,0,.66.84A2.37,2.37,0,0,0,21.66,60.27Z"/><path class="cls-19" d="M23.18,66.78a4.2,4.2,0,0,1-.91-.28,2.57,2.57,0,0,1-.73-.48,4.36,4.36,0,0,1-.6-.68c-.17-.25-.34-.53-.51-.82a2.17,2.17,0,0,0,.18,1,2.35,2.35,0,0,0,.6.87,2,2,0,0,0,.95.48A1.76,1.76,0,0,0,23.18,66.78Z"/><path class="cls-19" d="M22,68.29a5.49,5.49,0,0,1-.81-.27,3.19,3.19,0,0,1-.65-.43,4.55,4.55,0,0,1-.53-.61c-.16-.22-.31-.46-.47-.72a1.78,1.78,0,0,0,.14.91,2,2,0,0,0,.53.78,1.83,1.83,0,0,0,.87.43A1.59,1.59,0,0,0,22,68.29Z"/><path class="cls-19" d="M19.53,69.33a5.11,5.11,0,0,1-.38-.41l-.39-.49a1.32,1.32,0,0,0,0,.68,1.6,1.6,0,0,0,.39.59,1.35,1.35,0,0,0,.66.31,1.08,1.08,0,0,0,.68-.12,5.34,5.34,0,0,1-.57-.25A2,2,0,0,1,19.53,69.33Z"/><path class="cls-19" d="M26.76,68.93a4.12,4.12,0,0,1-.87-.23,2.64,2.64,0,0,1-.76-.44,4.86,4.86,0,0,1-.66-.69,1.82,1.82,0,0,0,.38,1,2.07,2.07,0,0,0,.86.63,2.35,2.35,0,0,0,1,.15,2.2,2.2,0,0,0,1-.3C27.39,69,27.07,69,26.76,68.93Z"/><path class="cls-19" d="M26.56,70.56c-.31,0-.59,0-.86-.1a3.19,3.19,0,0,1-.78-.2,2.39,2.39,0,0,1-.67-.39,4.29,4.29,0,0,1-.61-.6,1.59,1.59,0,0,0,.33.87,1.75,1.75,0,0,0,.78.58,2.15,2.15,0,0,0,.94.13A1.91,1.91,0,0,0,26.56,70.56Z"/><path class="cls-19" d="M23.84,72a2,2,0,0,1-.48-.25,3.87,3.87,0,0,1-.47-.4,1,1,0,0,0,.2.67,1.19,1.19,0,0,0,.57.44,1.41,1.41,0,0,0,.7.08,1.29,1.29,0,0,0,.63-.25l-.62-.13A2.74,2.74,0,0,1,23.84,72Z"/><path class="cls-19" d="M37.61,62.73c.09-.17.19-.32.29-.48s.39-.54.61-.8c-.25.08-.5.16-.74.26-.07.1-.15.19-.22.3a4.32,4.32,0,0,0-.33.5c-.1.16-.19.35-.28.5a2.52,2.52,0,0,1-1.64,1.23,4.25,4.25,0,0,1-2.15-.07,6.49,6.49,0,0,1-2-.94,5.08,5.08,0,0,1-1.51-1.62,3,3,0,0,1-.38-1,2.87,2.87,0,0,1,0-1.13,2.77,2.77,0,0,0-.16,1.15,3.5,3.5,0,0,0,.3,1.14,5.06,5.06,0,0,0,1.5,1.81A6.52,6.52,0,0,0,33,64.62a4.65,4.65,0,0,0,2.4.1,3,3,0,0,0,1.12-.54,2.92,2.92,0,0,0,.81-.94C37.45,63.05,37.52,62.89,37.61,62.73Z"/><path class="cls-19" d="M29.94,68.26a3.19,3.19,0,0,0,.61.66,6.39,6.39,0,0,1-.4-.78c-.12-.27-.22-.54-.33-.81-.21-.54-.41-1.08-.6-1.63a8.33,8.33,0,0,0-.76-1.63,5.51,5.51,0,0,0-.54-.73,3.17,3.17,0,0,0-.34-.3,1.2,1.2,0,0,0-.4-.22,1.82,1.82,0,0,1,.31.31l.24.36a6.8,6.8,0,0,1,.39.76c.24.53.44,1.06.63,1.61a12.55,12.55,0,0,0,.72,1.64A8.65,8.65,0,0,0,29.94,68.26Z"/><path class="cls-19" d="M31.15,65.67a5.45,5.45,0,0,1-.72-.66,2,2,0,0,0,.45.94,2.37,2.37,0,0,0,.87.64,2.7,2.7,0,0,0,1,.21,2.39,2.39,0,0,0,1-.21c-.35,0-.67-.1-1-.17a5.13,5.13,0,0,1-.89-.28A3.23,3.23,0,0,1,31.15,65.67Z"/><path class="cls-19" d="M23.07,68.81c.31-.51.62-1,.9-1.57a16.48,16.48,0,0,0,.79-1.64c-.4.46-.76,1-1.11,1.44s-.68,1-1,1.52-.62,1-.91,1.57-.56,1.08-.79,1.65a17,17,0,0,0,1.12-1.45C22.42,69.84,22.75,69.33,23.07,68.81Z"/></g><path class="cls-1" d="M19.56,24.15a3.33,3.33,0,0,0,.64-.55c1.1-1.12,3.32-5.68,4.26-8.51a21,21,0,0,1,2.22-4.68L23.57,8.92a25.48,25.48,0,0,1-3.35,5.3,20.18,20.18,0,0,0-4.15,8.47C16,23.52,19.06,24.53,19.56,24.15Z"/><path class="cls-1" d="M18.56,22c0,.32,1.77-.09,1.77-.09s2.67,7.81,2.13,10c0,0,1.59,4.56,1.42,6.69C28.24,44.2,26.29,50.09,21,49.18c-2.82-.38-3.64-4.87-3.4-8.61a17.92,17.92,0,0,0-1-7.69C16,30.38,16,24,16.18,23,17.72,22.74,17.12,21.39,18.56,22Z"/><g class="cls-18"><path class="cls-19" d="M17.65,37.91c.21-.77.38-1.55.56-2.33.09-.39.18-.77.28-1.16s.2-.77.32-1.15a4.92,4.92,0,0,0-.51,1.09A12,12,0,0,0,18,35.53c-.08.39-.16.78-.21,1.18A8.09,8.09,0,0,0,17.65,37.91Z"/><path class="cls-19" d="M16.52,25.75a4.36,4.36,0,0,0,.58-.55l.26-.28a3.7,3.7,0,0,1,.28-.28.72.72,0,0,0-.4.12,1.7,1.7,0,0,0-.33.27,2,2,0,0,0-.24.33A1.22,1.22,0,0,0,16.52,25.75Z"/></g><path class="cls-1" d="M45.7,77.48c0-.32-1.77.19-1.77.19s-3.11-7.64-2.7-9.8c0,0-3.73-3.73-3.68-5.86-2.66-5.54-2.33-9.32,3.05-8.72,2.84.21,5,1.84,5,5.58a17.94,17.94,0,0,0,1.42,7.63c.77,2.46,1.05,8.78,1,9.86C46.49,76.69,47.17,78,45.7,77.48Z"/><path class="cls-20" d="M26.87,44S22.33,48.54,17,52.85a97.21,97.21,0,0,0-5.91,11C6.71,73.76,6.69,80.23,6.69,80.23s9.28.35,20.14.35c0,0,1.4-3.39,1.09-2.69s3.76-7.06,4.83-9a10.43,10.43,0,0,1,2.66-2.19s1.7-8.68,7.25-13l-1-1.22S34.11,59.7,30,57.15s-3.41-8.63-1.73-12.95Z"/><path class="cls-1" d="M34.39,76.44a9,9,0,0,1-2.69.12c-1-.15-1.33-.15-2.95-.31a5.89,5.89,0,0,1-2.39-.55c-.55-.22-1.38.85.14,1.43a5.33,5.33,0,0,0,2,.52s-2.46,0-3.73.14-2.07.13-1.94.74c.08.31.25.42,2,.36l3.62-.13s-6.25.41-6.19,1.14c0,.48.33.62,2.35.42s3.93-.48,3.93-.48-5.15,1-5.52,1.23c-.21.14-1,1,1.07.61l4.76-1s-4.32,1-4.15,1.61,2,0,4.64-.76,2.5-.93,3.14-1.35a13.1,13.1,0,0,1,2.75-.88Z"/><path class="cls-1" d="M47.77,73.77a9.13,9.13,0,0,0-1.36.09c-1.56-.2-6.53.82-9.34,1.79A20.37,20.37,0,0,1,32,76.75l.43,3.48A25.5,25.5,0,0,1,39,79.56c4.14,0,6.79-.63,8.85-1.68C48.53,77.46,48.38,73.94,47.77,73.77Z"/><g class="cls-18"><path class="cls-19" d="M45.68,61.53c-.17.79-.29,1.58-.43,2.36-.06.39-.13.78-.2,1.18s-.16.77-.26,1.17a5,5,0,0,0,.45-1.13,11.86,11.86,0,0,0,.27-1.18c.06-.39.11-.79.14-1.19A9.78,9.78,0,0,0,45.68,61.53Z"/><path class="cls-19" d="M47.52,73.61a3.73,3.73,0,0,0-.55.58l-.25.3-.26.3a.85.85,0,0,0,.4-.15,1.38,1.38,0,0,0,.3-.29,1.56,1.56,0,0,0,.23-.34A1.25,1.25,0,0,0,47.52,73.61Z"/></g></g></g></svg>