<svg xmlns="http://www.w3.org/2000/svg" viewBox="0 0 125.27 53.36"><defs><style>.cls-1{fill:#d3a17b;}.cls-10,.cls-2{fill:#fff;}.cls-3{fill:#717375;}.cls-4,.cls-6{fill:#0d0b42;}.cls-5,.cls-8{fill:#252b67;}.cls-10,.cls-11,.cls-12,.cls-13,.cls-5,.cls-6,.cls-7{fill-rule:evenodd;}.cls-7,.cls-9{fill:#404fa2;}.cls-11{fill:#231f20;}.cls-12{fill:#bcbec0;}.cls-13{fill:#d1d3d4;}.cls-14{fill:#d3d5d6;}.cls-15{fill:#abadb0;}.cls-16{fill:#c69874;}.cls-17{opacity:0.26;}.cls-18{fill:#e4ae84;}.cls-19{fill:#511d06;}.cls-20{fill:#502919;}.cls-21{fill:#504fa1;}.cls-22{fill:#bc916e;}.cls-23{fill:#20245e;}.cls-24{fill:#2d3577;}.cls-25{fill:#333d83;}</style></defs><g id="Layer_2" data-name="Layer 2"><g id="Capa_1" data-name="Capa 1"><path class="cls-1" d="M87.86,26.25c.67,0,7.31.4,8.2.12,2.79-.86,8.89-.48,13,1.5a76.75,76.75,0,0,0,9.57,3.39l1.09,4.57L104.06,34.5C98,34,93.21,34.3,90.43,33.92,89.49,33.39,87.09,26.56,87.86,26.25Z"/><path class="cls-2" d="M119.47,36l-3.77-.5s2-2.84,1.5-4.73l2,.47S121.06,31.85,119.47,36Z"/><path class="cls-3" d="M123.23,28.38c.77,0,1.51.09,1.54,4.61a56.88,56.88,0,0,0,.11,6.32,16.85,16.85,0,0,1-.76,7.9c-.44,1.09-.89,2-1.18,2h.26c.29,0,.74-1,1.18-2,.54-1.32,1.06-3.71.84-7.84-.15-2.82-.18-4.74-.19-6.38,0-4.65-.82-4.63-1.61-4.61Z"/><path class="cls-4" d="M115.55,29.12c-.07.16.1.35.44.49a2.5,2.5,0,0,0,1.15.17v0a1.84,1.84,0,0,0,.64.08v-.23a1.94,1.94,0,0,1-1.07-.3,3.84,3.84,0,0,0-.54-.25C115.69,28.89,115.57,29,115.55,29.12Zm.52.15a3.43,3.43,0,0,1,.51.24l.08,0a2.07,2.07,0,0,1-.58-.15.83.83,0,0,1-.3-.19A1,1,0,0,1,116.07,29.27Z"/><path class="cls-5" d="M123.11,32.55a30.13,30.13,0,0,0,.49,3.13,41.34,41.34,0,0,1,.58,5.14,41.4,41.4,0,0,1-.34,4.94,13.38,13.38,0,0,1-.94,3.31l-.47.12a1.42,1.42,0,0,1-.6-.49,20.37,20.37,0,0,1-1.08-3.13,12.94,12.94,0,0,0-2.25-4.75c-1-1.3-1.93-2.92-1.8-3.36s.65-1.23,1.15-2.79c1-3.07,1-1.45.16-3.67-.38-1-1.61-1-1.35-1.11a3,3,0,0,0,1.71-.49,5.76,5.76,0,0,1,3.92-.72A9.83,9.83,0,0,1,123.11,32.55Z"/><path class="cls-6" d="M115.59,35.41c-.43.32-.89.28-1.23.74-.19.25.06.86,1.39,1.65a7.74,7.74,0,0,1,2,2.06v-.08a15.62,15.62,0,0,1,1.94,3.41l.34-.15c-1-2-2-3.76-2.68-5-.2-.55.11-1.38-.07-1.72C116.75,35.3,115.87,35.21,115.59,35.41Z"/><path class="cls-7" d="M122.63,48.87a.7.7,0,0,0,.56-.53l.09-.25h0l.09-.27h0l.09-.29h0l.09-.31v0c0-.11.06-.22.08-.33h0c0-.11.06-.23.08-.34v0c0-.1.05-.22.07-.32v0l.06-.36a41.4,41.4,0,0,0,.34-4.94,39.53,39.53,0,0,0-.58-5.14c-.19-1.1-.54-6.08-1.13-7.07-.12,0-.6.07-.73.06a9.42,9.42,0,0,1,.65.91c.72,1.45.89,6,1.16,7.55a21.89,21.89,0,0,1-.43,9.46s-.66,2-1.38.57c-.62-1.22-1.68-4.12-1.68-4.12l-.39,0c1.83,4.17,1,4.43,1.67,5.45.11.17.55.64.94.63C122.28,49.07,122.39,48.92,122.63,48.87Z"/><path class="cls-8" d="M121.85,28.64a5,5,0,0,0-3.48.76l-.13.09c0,.21.21.32.69,0a8,8,0,0,1,3-.69A1.11,1.11,0,0,1,121.85,28.64Z"/><path class="cls-7" d="M121,43.29s-1.18-.95-.87.45c.11.5,1.54,4.73,2.22,4.39.44-.22.48-.1.89-1s.79-5.18.58-4.41c-.45,1.69-1.13,1.4-2,.33a10.77,10.77,0,0,1-1.14-1.52Z"/><path class="cls-9" d="M120.72,42s3.28-4.42,3.2-.81c0,0,.2-2.59-.26-3.14s-2.08.12-3.79,2.37Z"/><path class="cls-9" d="M119.47,40s3.74-4.6,4.26-2c0,0,.08-2-.45-2.48-1.08-1-3,.63-4.66,2.88Z"/><path class="cls-9" d="M118.38,38s4.42-5.49,5.08-2.57c0,0,.11-2.51-.42-3-.68-.6-3.33,2.37-4.58-.62-.25-.6-.42,4.07-1.06,4.92Z"/><path class="cls-5" d="M118.77,29.14a2.75,2.75,0,0,0-.4.26l-.09.06a4.25,4.25,0,0,1-1.56.27c-1.66,0-.75.76-.5.83.57.15,1.83.15,1.73,2.57a7.63,7.63,0,0,1-1.1,3.68c-.41.67-.41,1-.39,1a9.13,9.13,0,0,0,1.77,2.29,20.5,20.5,0,0,1,2.21,3.93,1.68,1.68,0,0,0,.56-1.75h0a.49.49,0,0,0,0-.11h0a.56.56,0,0,0,0-.12v0l0-.1a.83.83,0,0,0-.07-.13c-.76-1.45-2.32-3.78-2.63-4.35a4,4,0,0,1,.12-2.59c.76-2.45.06-2.81.55-4.35a3.36,3.36,0,0,1,2.2-1.72s-1.23.06-1.23,0-.86.58-.86.57v-.05h0s0,0,0-.06h0a.21.21,0,0,0,0-.06h0Z"/><path class="cls-10" d="M117.11,37.63a.24.24,0,0,0,0-.47.24.24,0,1,0,0,.47Z"/><path class="cls-11" d="M117.11,37.58a.19.19,0,0,0,.18-.19.18.18,0,0,0-.19-.18.19.19,0,0,0,0,.37Z"/><path class="cls-12" d="M117.3,37.51s.06,1.08-.38,1.29c0,0-.27,0-.16-.2.31-.43.17-.57.16-1.2C116.92,37.4,117.23,37.15,117.3,37.51Z"/><path class="cls-10" d="M118.18,38.87a.24.24,0,0,0,.25-.22.23.23,0,0,0-.21-.25.24.24,0,0,0-.26.21A.26.26,0,0,0,118.18,38.87Z"/><path class="cls-11" d="M118.18,38.82a.18.18,0,0,0,.2-.17.19.19,0,0,0-.37,0A.2.2,0,0,0,118.18,38.82Z"/><path class="cls-12" d="M118.38,38.77s-.06,1.08-.51,1.24c0,0-.27-.07-.15-.21.36-.4.24-.55.29-1.18C118,38.62,118.35,38.41,118.38,38.77Z"/><path class="cls-10" d="M119.06,40.15a.22.22,0,0,0,.27-.18.22.22,0,0,0-.18-.27.23.23,0,0,0-.28.18A.24.24,0,0,0,119.06,40.15Z"/><path class="cls-11" d="M119.07,40.11a.2.2,0,0,0,.22-.15.2.2,0,0,0-.15-.22.19.19,0,0,0-.07.37Z"/><path class="cls-12" d="M119.27,40.08s-.17,1-.64,1.14c0,0-.26-.1-.12-.23.4-.35.28-.49.41-1.1C118.92,39.89,119.28,39.72,119.27,40.08Z"/><path class="cls-10" d="M119.81,41.52a.24.24,0,0,0,.31-.13.24.24,0,0,0-.14-.3.23.23,0,0,0-.3.13A.22.22,0,0,0,119.81,41.52Z"/><path class="cls-11" d="M119.83,41.48a.18.18,0,0,0,.24-.11.18.18,0,0,0-.34-.13A.19.19,0,0,0,119.83,41.48Z"/><path class="cls-12" d="M120,41.49s-.27.91-.74.92c0,0-.25-.14-.08-.24.45-.27.27-.35.51-.93C119.73,41.24,120.1,41.14,120,41.49Z"/><path class="cls-10" d="M117.62,38.18a.23.23,0,0,0,.23-.24.22.22,0,0,0-.24-.22.23.23,0,1,0,0,.46Z"/><path class="cls-11" d="M117.62,38.13a.18.18,0,0,0,.18-.19.19.19,0,0,0-.19-.18.19.19,0,0,0-.18.19A.18.18,0,0,0,117.62,38.13Z"/><path class="cls-10" d="M116.61,38.36s.16.7.79.11c.39-.37.32-.49.23-.53s-.14-.13-.32.17S116.65,38.51,116.61,38.36Z"/><path class="cls-10" d="M118.63,39.47a.22.22,0,0,0,.25-.21.23.23,0,0,0-.21-.25.23.23,0,1,0,0,.46Z"/><path class="cls-11" d="M118.63,39.43a.2.2,0,0,0,.2-.17.18.18,0,0,0-.17-.2.19.19,0,0,0-.2.17A.2.2,0,0,0,118.63,39.43Z"/><path class="cls-10" d="M117.56,39.54s.12.71.81.2c.43-.32.37-.45.29-.51s-.12-.14-.34.14S117.58,39.69,117.56,39.54Z"/><path class="cls-10" d="M119.43,40.81a.24.24,0,0,0,.28-.18.25.25,0,0,0-.19-.28.24.24,0,0,0-.27.19A.22.22,0,0,0,119.43,40.81Z"/><path class="cls-11" d="M119.44,40.76a.18.18,0,0,0,.22-.14.19.19,0,0,0-.15-.22.18.18,0,0,0-.21.15A.17.17,0,0,0,119.44,40.76Z"/><path class="cls-10" d="M118.42,40.72s0,.75.73.32c.46-.27.42-.4.35-.47s-.11-.15-.36.1S118.42,40.87,118.42,40.72Z"/><path class="cls-10" d="M120.07,42.24a.23.23,0,0,0,.3-.14.23.23,0,1,0-.43-.17A.24.24,0,0,0,120.07,42.24Z"/><path class="cls-11" d="M120.09,42.19a.19.19,0,0,0,.24-.1.19.19,0,0,0-.11-.24.19.19,0,0,0-.24.1A.18.18,0,0,0,120.09,42.19Z"/><path class="cls-10" d="M119.11,41.89s-.17.82.64.53c.5-.19.48-.33.42-.4s-.07-.18-.36,0S119.08,42,119.11,41.89Z"/><path class="cls-12" d="M116.76,38.33s-.91-2.16-1.93-1.47,1.23,1.44,1.81,1.52l0-.14s-1.47-.38-1.67-.84.21-.49.4-.38a3.57,3.57,0,0,1,1.21,1s0,.23.06.27S116.72,38.26,116.76,38.33Z"/><path class="cls-12" d="M116.45,38.11s-1.52-.41-2.06.34-.06,1.23,1.16.55l1.21-.67-.15-.15a7.77,7.77,0,0,1-1.32.69c-.48.16-1,.29-.8-.07s.4-.59,1.18-.59a7.65,7.65,0,0,1,.86.08c.17,0,.16-.11.16-.11Z"/><path class="cls-13" d="M116.68,38.44a2.37,2.37,0,0,1,.22.8,1.7,1.7,0,0,0,.74,1.08s.08.16.08.16-.09.1-.33,0a1.09,1.09,0,0,1-.71-1.18,2.73,2.73,0,0,0-.13-1.1S116.7,38,116.68,38.44Z"/><path class="cls-13" d="M116.52,38.13a10.36,10.36,0,0,1,.64,1.17c.19.44.73,1,.76,1.22s.24.19.24.19.1-.16-.5-.89a5.62,5.62,0,0,1-.77-1.34C116.72,38.23,116.69,38.12,116.52,38.13Z"/><path class="cls-14" d="M122.53,28.47a4,4,0,0,1-.79.2,21.57,21.57,0,0,1,1.62,6.84c.09,1.42.43,3.7.47,5.34a41.25,41.25,0,0,1-.19,4.81,14.41,14.41,0,0,1-.62,2.63.68.68,0,0,1-.67.46c-.4,0-.78.12-.38.36a2.83,2.83,0,0,0,1.09.12c.3,0,.75-.94,1.19-2,.53-1.32,1-3.76.84-7.88-.15-2.82-.18-4.71-.19-6.35,0-4.65-.82-4.62-1.61-4.6A3.49,3.49,0,0,0,122.53,28.47Z"/><path class="cls-15" d="M123,29.56a26.69,26.69,0,0,1,.85,4.15c.06,2,.45.72.59-1.31C124.72,29,122.94,28.29,123,29.56Z"/><path class="cls-15" d="M124.89,42a14.16,14.16,0,0,1-1,5.81s.19-1.37.33-2.32C124.67,42,123.88,41.54,124.89,42Z"/><path class="cls-16" d="M28.7,33.68a3.79,3.79,0,0,0-.39.78c-.62,1.51-.95,6.76-.75,9.85a28.51,28.51,0,0,1-.4,6.35l3.32-.41A56.83,56.83,0,0,1,32,43.47a21,21,0,0,0,.65-9.77C32.41,32.86,29,33.12,28.7,33.68Z"/><path class="cls-16" d="M30.55,34.15c0-.33-1.83.14-1.83.14S25,26.26,25.48,24c0,0-2.38-5-2.26-7.24-2.57-5.84.25-8.66,3.84-8.92,3.38-.26,4.86,3.6,4.71,7.49-.18,4.65,0,5.53.57,7.44.71,2.58.55,11.39.44,12.51C31.18,35.59,32.07,34.74,30.55,34.15Z"/><g class="cls-17"><path class="cls-16" d="M31.09,17.6c-.21.82-.36,1.63-.53,2.44-.08.4-.17.81-.25,1.21s-.19.8-.31,1.21a5.45,5.45,0,0,0,.51-1.16,11.91,11.91,0,0,0,.31-1.21c.08-.41.15-.82.19-1.24A10.36,10.36,0,0,0,31.09,17.6Z"/><path class="cls-16" d="M32.58,30.2a4.06,4.06,0,0,0-.59.58l-.27.3a3.84,3.84,0,0,1-.28.3.81.81,0,0,0,.42-.14,1.75,1.75,0,0,0,.33-.28,2.71,2.71,0,0,0,.24-.35A1.44,1.44,0,0,0,32.58,30.2Z"/></g><path class="cls-16" d="M27.37,50.1s-5,1.91-7.1,1.91-5.4.88-2.77,1.06,13.35,0,13.85-.32-.08-2-1.2-2.8C29.5,49.51,27.37,50.1,27.37,50.1Z"/><path class="cls-18" d="M58.65,18.68a101.5,101.5,0,0,0-10-5.95C45,11,41.24,9.6,37.51,8.14a19.68,19.68,0,0,1-2.29-.94c-.75-.39-1.44-.88-2.19-1.29A8.4,8.4,0,0,0,31,5.13a18.8,18.8,0,0,0-9.93,3.16c-1.85,1.12.31,6.28.31,6.28a27.71,27.71,0,0,1,3.74,2.3c4.63,3.3,9.21,3.77,11.61,1.95,1.23-.93,5.4-.39,7.42-.35,8,.15,13.15,4.79,18.61,5.83A10.69,10.69,0,0,0,58.65,18.68Z"/><g class="cls-17"><path class="cls-19" d="M45.37,14.76a4.14,4.14,0,0,1,.27.89,2.77,2.77,0,0,1,0,.91,5.24,5.24,0,0,1-.25,1,1.9,1.9,0,0,0,.63-.86,2,2,0,0,0,.09-1.1,2.36,2.36,0,0,0-.43-1,2.3,2.3,0,0,0-.79-.7C45.08,14.17,45.24,14.46,45.37,14.76Z"/><path class="cls-19" d="M46.92,14.05c.14.28.27.55.38.82a4,4,0,0,1,.25.79,3.13,3.13,0,0,1,0,.81,5,5,0,0,1-.2.86,1.66,1.66,0,0,0,.59-.76,1.89,1.89,0,0,0,.09-1,2.37,2.37,0,0,0-.4-.9A2.07,2.07,0,0,0,46.92,14.05Z"/><path class="cls-19" d="M52.58,20.15a2.09,2.09,0,0,1,0,.56,6.1,6.1,0,0,1-.09.64,1.1,1.1,0,0,0,.48-.54,1.28,1.28,0,0,0,.08-.75,1.5,1.5,0,0,0-.31-.66A1.25,1.25,0,0,0,52.2,19c.08.23.16.42.22.62A3.08,3.08,0,0,1,52.58,20.15Z"/><path class="cls-19" d="M34,8.57H33.4a9,9,0,0,1-1-.12c.2.21.41.42.62.6l.39,0,.62,0,.59,0a2.51,2.51,0,0,1,1.08.21,2.92,2.92,0,0,1,.91.71,5.61,5.61,0,0,1,1.11,2.3,9,9,0,0,1,.25,2.7,7,7,0,0,1-.6,2.62,4,4,0,0,1-.72,1.07,2.88,2.88,0,0,1-1,.7,2.53,2.53,0,0,0,1.1-.57,3.81,3.81,0,0,0,.84-1.05A6.85,6.85,0,0,0,38.34,15a9.42,9.42,0,0,0-.19-2.9,6.07,6.07,0,0,0-1.22-2.57,3.26,3.26,0,0,0-1.08-.82,2.61,2.61,0,0,0-1.28-.24Z"/><path class="cls-19" d="M43,12.31a3.49,3.49,0,0,0,.26-.89,7.62,7.62,0,0,1-.48.77c-.17.25-.35.5-.53.74-.36.48-.74,1-1.11,1.42a8.52,8.52,0,0,0-1,1.55,5.56,5.56,0,0,0-.35.88,3.55,3.55,0,0,0-.09.47,1.19,1.19,0,0,0,0,.46,1.6,1.6,0,0,1,.11-.43c.06-.14.12-.28.19-.41a7.37,7.37,0,0,1,.45-.77c.34-.49.7-1,1.08-1.43a12.17,12.17,0,0,0,1.06-1.52A8.16,8.16,0,0,0,43,12.31Z"/><path class="cls-19" d="M40.1,12.65a5.37,5.37,0,0,1-.2,1,2,2,0,0,0,.59-.91,2.37,2.37,0,0,0,.09-1.12,2.78,2.78,0,0,0-.38-1,2.51,2.51,0,0,0-.74-.78c.14.33.27.64.38,1a5.19,5.19,0,0,1,.24.94A3.77,3.77,0,0,1,40.1,12.65Z"/></g><path class="cls-18" d="M19.13,14.77s2.77-.78,4.2.62.36-7.66-.46-7.66-4.66.41-5.94-.17C16.93,7.56,19.21,11.47,19.13,14.77Z"/><path class="cls-18" d="M13.34,2.69c4.16,1.3,6.82,1.36,6.3,7.25-.19,2.11-.38,5-.57,6.12-.32,1.89-2.71,1.91-7.68,1.3a22.4,22.4,0,0,1-8-3.16C2,12.19,3.3,8.28,4,6,5.38,1.64,8.41,1.14,13.34,2.69Z"/><path class="cls-18" d="M7.19,16s4.35,1.93,4.68,2.21.93.64,1.28-.53,0-1.66,0-1.66Z"/><path class="cls-20" d="M12.6,9.41s4.52,1.67,4.3,4.49c0,.27.51.59.66.84a1.78,1.78,0,0,1-.76,2.73l-.05.2a3.35,3.35,0,0,0,.94-.1c.69-.14,1.07-.21,1.17-.68,1.27-5.1-.18-7-.72-7.45C17.24,8.68,10.83,8.5,12.6,9.41Z"/><path class="cls-20" d="M14.5,14.65c-.25,1-1,2.81-.31,3.14a1,1,0,0,0,.86-.09,17.27,17.27,0,0,0,.32-2c.07-.69.88-1,1.82-.7s.77,0,.81.62.54-.09.54-.09L18,14.3S14.89,13.1,14.5,14.65Z"/><path class="cls-20" d="M17.12,11.08a4.61,4.61,0,0,0-.61-.64l-.18-.12A10.62,10.62,0,0,1,17.12,11.08Z"/><path class="cls-20" d="M8.89,5.42a7.09,7.09,0,0,0-1.62-.15,13.39,13.39,0,0,0-2.62.9l-.29.09h0A1.31,1.31,0,0,0,4,6.41,3.58,3.58,0,0,0,2.55,7.73l-.12.18-.23.22a3.51,3.51,0,0,0-.77,1.1A16.82,16.82,0,0,0,.1,11a2.89,2.89,0,0,0,0,1.43,3.56,3.56,0,0,0,.54,1.19,3.38,3.38,0,0,0,.93,1.06,5,5,0,0,0,1.27.56,9,9,0,0,0,1.55.19c.43.06.81.32,1.26.22A4,4,0,0,0,6,15.49c.11-.12.23-.26.36-.43a1.47,1.47,0,0,0,.21-1.63,4.2,4.2,0,0,0-.06-.69,7.35,7.35,0,0,1-.12-1.13C7.17,7,13.69,10,14.47,10.36s1.84.43.85-.14c-.06,0,.25-.19-.23-.4h0a2,2,0,0,1,1.43.62l.67.45a22.08,22.08,0,0,0-2-2A31.56,31.56,0,0,0,10.45,6,2.75,2.75,0,0,0,8.89,5.42Z"/><path class="cls-20" d="M.1,11A8.23,8.23,0,0,1,.82,8.22c.62-1.3.2-1.45.48-2.35A10,10,0,0,1,3.13,2.8C5.68,0,7.29.54,8.17.3s2.67-.54,3.45,0a3.5,3.5,0,0,0,2.24,1c1.27.1.87.34,1.67,1s.86.38,1.57.93.87.28,1.15,1,.46.46.75.88.48.31.55.9.87,3-.76,3.94c-2,1.12-2.48.1-2.71.19a22.93,22.93,0,0,1-3.14-1.48,18.63,18.63,0,0,0-2.2-1.23A9.23,9.23,0,0,0,8.3,7a39.52,39.52,0,0,0-5,2.38C3.15,9.46.1,11,.1,11Z"/><path class="cls-21" d="M24.37,5.49c-.9.48-1.9,4.28-1.84,5.24a4.07,4.07,0,0,0,.11,1c.28,2.12,4.35,6.39,5.26,6.82,3.61,1.74,6.44,2.87,8.58,3.95,2.9,1.46,17.59,6.76,20.22,6.63-.75-4.4.89-7.29.74-8.93a51.74,51.74,0,0,0-.34-7.78C55.62,12.7,32,1.36,24.37,5.49Zm12.11,6.28c-.27,4.3-10.35,4.92-12.16-1-.16-.32-.49,0-.28-.38C25.28,7,35.15,4.08,36.48,11.77Z"/><path class="cls-18" d="M30.33,33.39a3.35,3.35,0,0,0-.39.78c-.62,1.5-1,6.76-.75,9.84a28.93,28.93,0,0,1-.41,6.36L32.11,50a56.83,56.83,0,0,1,1.51-6.78,21,21,0,0,0,.64-9.77C34,32.57,30.67,32.83,30.33,33.39Z"/><path class="cls-18" d="M32.18,33.86c0-.33-1.84.14-1.84.14s-3.75-8-3.24-10.26c0,0-2.37-5-2.25-7.24-2.57-5.84.25-8.66,3.84-8.93,3.38-.25,4.86,3.61,4.71,7.5-.18,4.65,0,5.53.57,7.44.7,2.58.55,11.39.43,12.5C32.8,35.3,33.69,34.45,32.18,33.86Z"/><g class="cls-17"><path class="cls-19" d="M32.71,17.31c-.2.81-.36,1.63-.52,2.44-.08.4-.17.81-.26,1.21s-.18.8-.3,1.2a5.13,5.13,0,0,0,.5-1.15c.13-.4.23-.8.32-1.21s.15-.82.19-1.24A8.65,8.65,0,0,0,32.71,17.31Z"/><path class="cls-19" d="M34.21,29.91a4.15,4.15,0,0,0-.6.58l-.26.3a4,4,0,0,1-.29.3.75.75,0,0,0,.42-.14,1.52,1.52,0,0,0,.33-.28,1.56,1.56,0,0,0,.24-.35A1.46,1.46,0,0,0,34.21,29.91Z"/></g><path class="cls-18" d="M29,49.81s-5,1.91-7.1,1.91-5.39.87-2.76,1.06,13.34,0,13.84-.32-.08-2-1.19-2.8C31.13,49.21,29,49.81,29,49.81Z"/><path class="cls-21" d="M21.62,7.78a29.36,29.36,0,0,0,3.63-1.55c.65-.47,7.12-1.5,7.12-1.5l-7.73.39S23.67,5.45,21.62,7.78Z"/><path class="cls-22" d="M91.22,28.45c1,.51-.79,6-2.81,5.79-4-.8-25.93-3.74-26.53-9.36,0,0-3.72-7.93,5.41-7,6.72.68,14.55,5.68,17.75,7A47.61,47.61,0,0,1,91.22,28.45Z"/><path class="cls-22" d="M82.26,33.38a29.93,29.93,0,0,0,5.32,1.43c2.45.34,2.35-.23,3.67-.67s.29-1.4.29-1.4-4.71-1.19-4.84-1.18S82.26,33.38,82.26,33.38Z"/><path class="cls-22" d="M87.71,26.94c.66.1,7.23,1.12,8.14.94,2.87-.58,8.9.41,12.79,2.8A75.74,75.74,0,0,0,117.82,35l.62,4.66s-7.22-1.35-15.44-2.91c-6-1.13-10.78-1.28-13.5-1.94C88.61,34.2,86.91,27.17,87.71,26.94Z"/><path class="cls-2" d="M118.18,39.79l-3.71-.88s2.27-2.62,2-4.55l2,.67S120.18,35.85,118.18,39.79Z"/><path class="cls-22" d="M83.4,27.32A29.27,29.27,0,0,0,85,32.58c1,2.26,1.76,2.06,3,2.6,1.66.69,5.5-1.2,5.5-1.2s-6.19-3.77-6.27-3.87S83.4,27.32,83.4,27.32Z"/><path class="cls-3" d="M122.68,32.61c.77,0,1.5.24,1.07,4.73a58.16,58.16,0,0,0-.52,6.3,16.91,16.91,0,0,1-1.55,7.79c-.55,1-1.09,1.91-1.39,1.91l-.13,0,.39,0c.3,0,.84-.87,1.39-1.91.66-1.26,1.43-3.59,1.62-7.71.14-2.83.3-4.75.45-6.38.45-4.63-.35-4.68-1.13-4.74Z"/><path class="cls-4" d="M115,32.57c-.08.15.08.36.4.53a2.23,2.23,0,0,0,1.12.28v0a1.72,1.72,0,0,0,.63.15v-.23a1.85,1.85,0,0,1-1-.41,4.9,4.9,0,0,0-.51-.3C115.13,32.36,115,32.5,115,32.57Zm.51.21a3.9,3.9,0,0,1,.49.28l.07,0a2.22,2.22,0,0,1-.57-.21.66.66,0,0,1-.27-.22A1.05,1.05,0,0,1,115.47,32.78Z"/><path class="cls-5" d="M122.15,36.75a28.67,28.67,0,0,0,.17,3.16,40.07,40.07,0,0,1,.06,5.17,40,40,0,0,1-.84,4.88,13.31,13.31,0,0,1-1.26,3.2l-.48.07a1.46,1.46,0,0,1-.56-.54,22.89,22.89,0,0,1-.76-3.22,13,13,0,0,0-1.75-5c-.87-1.4-1.63-3.1-1.46-3.53s.78-1.15,1.43-2.66c1.28-3,1.14-1.34.52-3.63-.27-1-1.49-1.18-1.22-1.24a2.9,2.9,0,0,0,1.74-.32,5.75,5.75,0,0,1,4-.32A10.08,10.08,0,0,1,122.15,36.75Z"/><path class="cls-6" d="M114.38,38.84c-.46.27-.91.18-1.31.61-.21.23,0,.86,1.22,1.78a7.61,7.61,0,0,1,1.82,2.25v-.07A15.57,15.57,0,0,1,117.7,47l.35-.12c-.76-2.07-1.57-3.93-2.16-5.24-.14-.56.25-1.37.1-1.72C115.54,38.84,114.67,38.66,114.38,38.84Z"/><path class="cls-7" d="M120,52.94a.74.74,0,0,0,.61-.48l.11-.24h0l.12-.26h0l.12-.29h0l.12-.3v0c0-.1.07-.21.11-.31h0c0-.11.07-.22.11-.33v0l.09-.32a0,0,0,0,0,0,0l.09-.35a40,40,0,0,0,.84-4.88,38.33,38.33,0,0,0-.06-5.17c-.08-1.12.07-6.11-.41-7.15-.13,0-.61,0-.74,0a8.34,8.34,0,0,1,.56,1c.57,1.51.28,6,.39,7.63a21.79,21.79,0,0,1-1.38,9.37s-.86,1.9-1.43.42c-.49-1.27-1.26-4.27-1.26-4.27l-.38,0c1.39,4.34.54,4.52,1.11,5.6.09.17.48.69.87.72A.41.41,0,0,1,120,52.94Z"/><path class="cls-8" d="M121.29,32.73a5,5,0,0,0-3.55.4l-.13.08c0,.21.18.34.68.1a8.23,8.23,0,0,1,3.07-.39A.54.54,0,0,1,121.29,32.73Z"/><path class="cls-7" d="M119,47.22s-1.08-1.07-.91.35c.06.52,1.06,4.86,1.76,4.59.46-.17.49,0,1-.91s1.31-5.08,1-4.32c-.61,1.63-1.27,1.27-2,.11a11.28,11.28,0,0,1-1-1.62Z"/><path class="cls-9" d="M118.82,45.91s3.71-4.07,3.27-.49c0,0,.45-2.56,0-3.15s-2.09-.09-4,2Z"/><path class="cls-9" d="M117.78,43.81s4.18-4.2,4.43-1.54c0,0,.28-2-.2-2.51-1-1.07-3,.33-4.92,2.39Z"/><path class="cls-9" d="M116.89,41.69s5-5,5.31-2c0,0,.37-2.49-.12-3-.61-.67-3.54,2-4.49-1.08-.19-.62-.83,4-1.55,4.79Z"/><path class="cls-5" d="M118.17,32.92a3.42,3.42,0,0,0-.43.21l-.09,0a4.08,4.08,0,0,1-1.57.11c-1.66-.19-.83.69-.58.78.54.2,1.8.34,1.46,2.73a7.66,7.66,0,0,1-1.47,3.55c-.48.63-.51.91-.49,1a9.13,9.13,0,0,0,1.53,2.46,21.23,21.23,0,0,1,1.81,4.13,1.69,1.69,0,0,0,.72-1.69h0s0-.07,0-.11h0l0-.12v0l0-.1a.69.69,0,0,1,0-.13c-.62-1.52-1.93-4-2.19-4.6a4,4,0,0,1,.38-2.56c1-2.36.34-2.79,1-4.27a3.38,3.38,0,0,1,2.37-1.49s-1.23-.07-1.22-.09l-.92.49s0,0,0-.06h0a.08.08,0,0,0,0-.07h0l0-.06h0Z"/><path class="cls-10" d="M115.67,41.19a.22.22,0,0,0,.24-.21.23.23,0,0,0-.46,0A.24.24,0,0,0,115.67,41.19Z"/><path class="cls-11" d="M115.67,41.14a.19.19,0,0,0,0-.37.19.19,0,0,0-.2.18A.17.17,0,0,0,115.67,41.14Z"/><path class="cls-12" d="M115.87,41.09s-.05,1.09-.51,1.25c0,0-.27-.07-.14-.21.35-.4.22-.56.28-1.18C115.5,41,115.83,40.73,115.87,41.09Z"/><path class="cls-10" d="M116.6,42.53a.24.24,0,0,0,.28-.19.24.24,0,0,0-.19-.27.23.23,0,0,0-.27.19A.22.22,0,0,0,116.6,42.53Z"/><path class="cls-11" d="M116.61,42.48a.18.18,0,0,0,.22-.14.19.19,0,1,0-.37-.07A.18.18,0,0,0,116.61,42.48Z"/><path class="cls-12" d="M116.82,42.46s-.18,1.07-.64,1.18c0,0-.26-.09-.12-.22.39-.36.28-.53.4-1.15C116.46,42.27,116.82,42.09,116.82,42.46Z"/><path class="cls-10" d="M117.35,43.9a.23.23,0,0,0,.29-.15.22.22,0,0,0-.15-.29.23.23,0,1,0-.14.44Z"/><path class="cls-11" d="M117.36,43.86a.19.19,0,0,0,.23-.13.18.18,0,0,0-.12-.23.19.19,0,0,0-.23.12A.2.2,0,0,0,117.36,43.86Z"/><path class="cls-12" d="M117.57,43.85s-.28,1-.75,1.07c0,0-.26-.13-.1-.24.43-.31.33-.45.52-1.06C117.24,43.62,117.61,43.49,117.57,43.85Z"/><path class="cls-10" d="M118,45.34a.23.23,0,1,0-.1-.31A.23.23,0,0,0,118,45.34Z"/><path class="cls-11" d="M118,45.3a.19.19,0,0,0,.25-.08.2.2,0,0,0-.09-.25.17.17,0,0,0-.24.08A.18.18,0,0,0,118,45.3Z"/><path class="cls-12" d="M118.19,45.33s-.35.88-.83.84c0,0-.23-.16,0-.24.48-.23.3-.32.6-.88C117.91,45.05,118.29,45,118.19,45.33Z"/><path class="cls-10" d="M116.12,41.8a.24.24,0,1,0-.22-.25A.24.24,0,0,0,116.12,41.8Z"/><path class="cls-11" d="M116.12,41.75a.19.19,0,1,0-.17-.2A.19.19,0,0,0,116.12,41.75Z"/><path class="cls-10" d="M115.1,41.87s.08.71.77.19c.43-.32.36-.45.29-.51s-.13-.14-.35.14S115.11,42,115.1,41.87Z"/><path class="cls-10" d="M117,43.18a.23.23,0,0,0,.27-.18.24.24,0,0,0-.19-.28.24.24,0,0,0-.27.19A.23.23,0,0,0,117,43.18Z"/><path class="cls-11" d="M117,43.13a.17.17,0,0,0,.21-.14.18.18,0,1,0-.36-.07A.18.18,0,0,0,117,43.13Z"/><path class="cls-10" d="M115.92,43.14s0,.72.79.28c.46-.28.41-.41.34-.48s-.11-.15-.35.11S115.92,43.29,115.92,43.14Z"/><path class="cls-10" d="M117.65,44.6a.25.25,0,0,0,.3-.16.25.25,0,0,0-.16-.29.23.23,0,0,0-.29.15A.24.24,0,0,0,117.65,44.6Z"/><path class="cls-11" d="M117.67,44.55a.19.19,0,0,0,.23-.12.19.19,0,0,0-.12-.24.19.19,0,0,0-.11.36Z"/><path class="cls-10" d="M116.66,44.4s-.1.75.69.4c.49-.23.46-.36.39-.43s-.09-.17-.36.06S116.64,44.55,116.66,44.4Z"/><path class="cls-10" d="M118.14,46.08a.24.24,0,1,0-.1-.32A.25.25,0,0,0,118.14,46.08Z"/><path class="cls-11" d="M118.17,46a.17.17,0,0,0,.24-.08.18.18,0,1,0-.32-.16A.17.17,0,0,0,118.17,46Z"/><path class="cls-10" d="M117.22,45.63s-.25.81.59.59c.52-.13.51-.27.46-.35s-.06-.18-.37,0S117.18,45.78,117.22,45.63Z"/><path class="cls-12" d="M115.24,41.86s-.68-2.24-1.77-1.66,1.08,1.55,1.65,1.69v-.13s-1.43-.53-1.58-1,.26-.46.44-.34a3.46,3.46,0,0,1,1.09,1.12s0,.23,0,.27S115.21,41.79,115.24,41.86Z"/><path class="cls-12" d="M115,41.61s-1.47-.57-2.08.12S112.7,43,114,42.4l1.27-.54-.13-.16a8.55,8.55,0,0,1-1.39.55c-.49.11-1,.18-.78-.15s.46-.55,1.24-.48c.37,0,.69.16.84.17s.17-.09.17-.09Z"/><path class="cls-13" d="M115.16,42a2.33,2.33,0,0,1,.13.83,1.82,1.82,0,0,0,.63,1.15s.07.16.07.16-.1.1-.33,0a1.08,1.08,0,0,1-.59-1.25,2.55,2.55,0,0,0,0-1.1S115.22,41.49,115.16,42Z"/><path class="cls-13" d="M115,41.64a11,11,0,0,1,.52,1.23c.14.45.62,1,.63,1.29s.22.2.22.2.12-.14-.41-.93a6.13,6.13,0,0,1-.63-1.41C115.21,41.75,115.2,41.64,115,41.64Z"/><path class="cls-14" d="M122,32.63a5.27,5.27,0,0,1-.81.12,21.19,21.19,0,0,1,.92,7c0,1.42.06,3.72-.07,5.35a40.37,40.37,0,0,1-.67,4.78,14.4,14.4,0,0,1-.88,2.55.67.67,0,0,1-.71.38c-.4,0-.79,0-.42.32a3,3,0,0,0,1.08.24c.29,0,.84-.87,1.38-1.91.66-1.25,1.43-3.63,1.63-7.75.14-2.82.29-4.71.45-6.34.44-4.63-.35-4.68-1.14-4.74A3.25,3.25,0,0,0,122,32.63Z"/><path class="cls-15" d="M122.38,33.77A26.49,26.49,0,0,1,122.8,38c-.14,2,.38.76.73-1.25C124.11,33.35,122.41,32.49,122.38,33.77Z"/><path class="cls-15" d="M123,46.29A14.15,14.15,0,0,1,121.34,52l.56-2.27C122.75,46.28,122,45.77,123,46.29Z"/><path class="cls-23" d="M57.1,12.38s7-4,18,5.35c6.32,5.36,11.76,5.93,11.76,5.93L84,35.61l-25.9-8.54Z"/><path class="cls-1" d="M91.3,26.59c1.07.41-.19,6.05-2.22,6C85,32.24,61.3,29.9,60.13,24.37c0,0-3.53-6.7,5.65-6.69,6.75,0,16.23,4.82,19.54,5.8C87.17,24,89.57,25.71,91.3,26.59Z"/><path class="cls-1" d="M82.88,32.39a28.57,28.57,0,0,0,5.43.89c2.48.09,2.31-.46,3.58-1s.15-1.41.15-1.41-4.8-.72-4.93-.69S82.88,32.39,82.88,32.39Z"/><path class="cls-1" d="M83.4,26.25a29.31,29.31,0,0,0,2.14,5.07c1.24,2.15,2,1.87,3.29,2.28,1.73.52,5.36-1.75,5.36-1.75s-6.54-3.12-6.63-3.22S83.4,26.25,83.4,26.25Z"/><path class="cls-24" d="M57.64,11.63s5.88-2,16.58,5.92a28,28,0,0,0,12.28,5.3L84.75,34.5,56.87,26.14Z"/><path class="cls-25" d="M55.46,27a64,64,0,0,0-.21-14.61l2.34-.66s1.63,11.7.48,15.38Z"/><path class="cls-1" d="M87.86,26.25c.67,0,7.31.4,8.2.12,2.79-.86,8.89-.48,13,1.5a51.85,51.85,0,0,1,5.5,3l-1,2.33-9.88.08c-6.11.05-10.5,1-13.28.63C89.49,33.39,87.09,26.56,87.86,26.25Z"/></g></g></svg>