<svg xmlns="http://www.w3.org/2000/svg" viewBox="0 0 421.49 272.21"><defs><style>.cls-1{fill:#585afa;}.cls-2{fill:#3f47aa;}.cls-3{fill:#fff;}.cls-4{fill:#ffe000;}.cls-5{opacity:0.3;}</style></defs><g id="Layer_2" data-name="Layer 2"><g id="Ribbon"><path class="cls-1" d="M18.78,272.21c.36.36,70.06-23.6,70.06-23.6L62,187.11,0,210.83l34.13,19.61Z"/><path class="cls-1" d="M51.47,205.65V121.9s96.15-17.57,165.42-16.54,140.6,12.41,140.6,12.41v80.39S140.38,178.76,51.47,205.65Z"/><path class="cls-2" d="M51,205.72,88.84,249V198.16S57.17,202,51,205.72Z"/><path class="cls-2" d="M51.47,121.9c.3,0,.44,18.77.3,41.91s-.49,41.9-.8,41.9-.43-18.76-.29-41.91S51.17,121.9,51.47,121.9Z"/><path class="cls-1" d="M390.08,265.78c-.36.37-70.06-23.59-70.06-23.59l26.8-61.5,62,23.72L374.73,224Z"/><path class="cls-2" d="M357.89,199.29,320,242.55V195.41A281,281,0,0,1,357.89,199.29Z"/><path class="cls-2" d="M357.49,117.77c.3,0,.64,18.25.75,40.76s-.05,40.77-.35,40.77-.64-18.25-.75-40.76S357.19,117.77,357.49,117.77Z"/><path class="cls-3" d="M105.7,158.62c-.93-6.67,3.53-12.16,10.43-13.12a11.56,11.56,0,0,1,9.66,2.66l-2.87,3.49a7.24,7.24,0,0,0-5.93-1.82A7.16,7.16,0,1,0,119,164a7.13,7.13,0,0,0,5.21-3.4l3.71,2.58a11.46,11.46,0,0,1-8.59,5.22C112.41,169.37,106.62,165.3,105.7,158.62Z"/><path class="cls-3" d="M128.6,155.47c-.68-6.61,4-12,11-12.75s12.67,3.6,13.35,10.24-4,12-11,12.76S129.28,162.08,128.6,155.47Zm19.13-2a7,7,0,1,0-6.23,7.83A6.83,6.83,0,0,0,147.73,153.5Z"/><path class="cls-3" d="M178.07,162.46l-.9-13.38-5.85,11.45-2.33.15-7.22-10.32.84,13.09-4.84.32-1.44-22.31,4.27-.27,9.24,13.32,7.33-14.39,4.24-.27,1.5,22.3Z"/><path class="cls-3" d="M207,147.19c.14,5-3.51,8.18-9.48,8.35l-4.5.13.17,6.16L188,162l-.63-22.36,9.68-.27C203,139.18,206.82,142.18,207,147.19Zm-5.23.15c-.07-2.46-1.71-3.85-4.87-3.76l-4.22.11.22,7.76,4.22-.12C200.24,151.25,201.79,149.76,201.73,147.34Z"/><path class="cls-3" d="M210.89,139.07h5.17V157.2h11.21v4.22H210.89Z"/><path class="cls-3" d="M247.43,157.83l-.12,4.16L230,161.48l.65-22.35,16.89.49-.12,4.15-11.75-.34-.14,4.86,10.38.3-.12,4-10.38-.3-.15,5.17Z"/><path class="cls-3" d="M257,144.38l-7.14-.43.26-4.21,19.44,1.17-.26,4.21-7.14-.43-1.09,18.1-5.16-.31Z"/><path class="cls-3" d="M288.36,160.9,288,165l-17.24-1.59,2.07-22.27,16.82,1.56-.38,4.14-11.71-1.09-.44,4.84,10.33.95-.37,4-10.33-1-.48,5.15Z"/><path class="cls-3" d="M294.82,143.29l10.07,1.35c7.24,1,11.63,6,10.73,12.7s-6.45,10.41-13.69,9.44l-10.07-1.34Zm7.42,19.25c4.39.59,7.62-1.65,8.19-5.89s-2-7.25-6.36-7.84l-4.68-.63-1.84,13.74Z"/></g><g id="Confetti"><polygon class="cls-1" points="400.51 125.39 406 131.84 421.49 125.39 416.97 118.61 400.51 125.39"/><path class="cls-4" d="M393.42,94.74a8.07,8.07,0,1,1-8.07-8.07A8.06,8.06,0,0,1,393.42,94.74Z"/><path class="cls-4" d="M212.87,215a4,4,0,1,1-4-4A4,4,0,0,1,212.87,215Z"/><path class="cls-4" d="M25.12,154.38a3.06,3.06,0,1,1-3.06-3.06A3.06,3.06,0,0,1,25.12,154.38Z"/><polygon class="cls-1" points="13.74 120.64 22.77 121.19 27.06 103.45 18.63 103.79 13.74 120.64"/><polygon class="cls-4" points="295.84 262.38 298.88 270.91 316.88 267.89 313.26 260.27 295.84 262.38"/><polygon class="cls-1" points="113.69 213.21 108.13 220.35 120.33 233.93 124.82 226.78 113.69 213.21"/></g><g id="Stars"><polygon class="cls-4" points="92.13 45.56 113.45 67.3 143.45 55.97 144.63 63.41 131.64 90.01 143.62 109.87 142.61 115.8 113.59 110.91 96.43 129.75 92.4 126.69 88.84 102.74 61.77 88.64 60.58 83.18 87.84 75.71 92.13 45.56"/><g class="cls-5"><polygon points="92.13 45.56 113.45 67.3 143.45 55.97 144.63 63.41 131.64 90.01 143.62 109.87 142.61 115.8 113.59 110.91 96.43 129.75 92.4 126.69 88.84 102.74 61.77 88.64 60.58 83.18 87.84 75.71 92.13 45.56"/></g><polygon class="cls-4" points="92.13 39.47 113.45 61.21 143.45 55.97 129.36 82.96 143.62 109.87 113.59 104.82 92.4 126.69 87.93 96.57 60.58 83.18 87.84 69.61 92.13 39.47"/><polygon class="cls-4" points="313.04 45.56 291.72 67.3 261.72 55.97 260.54 63.41 273.53 90.01 261.55 109.87 262.56 115.8 291.58 110.91 308.74 129.75 312.77 126.69 316.32 102.74 343.4 88.64 344.59 83.18 317.32 75.71 313.04 45.56"/><g class="cls-5"><polygon points="313.04 45.56 291.72 67.3 261.72 55.97 260.54 63.41 273.53 90.01 261.55 109.87 262.56 115.8 291.58 110.91 308.74 129.75 312.77 126.69 316.32 102.74 343.4 88.64 344.59 83.18 317.32 75.71 313.04 45.56"/></g><polygon class="cls-4" points="313.04 39.47 291.72 61.21 261.72 55.97 275.81 82.96 261.55 109.87 291.58 104.82 312.77 126.69 317.24 96.57 344.59 83.18 317.32 69.61 313.04 39.47"/><polygon class="cls-4" points="201.88 7.44 219.62 42.08 260.54 39.68 259.15 49.2 233.16 76.72 240.21 105.51 236.73 112.36 203.17 95.34 175.06 111.79 171.31 106.52 176.1 75.94 148.43 48.43 149.07 41.31 185.17 42.59 201.88 7.44"/><g class="cls-5"><polygon points="201.88 7.44 219.62 42.08 260.54 39.68 259.15 49.2 233.16 76.72 240.21 105.51 236.73 112.36 203.17 95.34 175.06 111.79 171.31 106.52 176.1 75.94 148.43 48.43 149.07 41.31 185.17 42.59 201.88 7.44"/></g><polygon class="cls-4" points="204.21 0 221.94 34.65 260.54 39.68 233.07 67.25 240.21 105.51 205.5 87.9 171.31 106.52 177.33 68.07 149.07 41.31 187.5 35.15 204.21 0"/></g></g></svg>