<?xml version="1.0" encoding="UTF-8"?>
<svg xmlns="http://www.w3.org/2000/svg" xmlns:xlink="http://www.w3.org/1999/xlink" width="375pt" height="374.999991pt" viewBox="0 0 375 374.999991" version="1.2">
<defs>
<clipPath id="clip1">
  <path d="M 34 14.515625 L 341 14.515625 L 341 360.054688 L 34 360.054688 Z M 34 14.515625 "/>
</clipPath>
</defs>
<g id="surface1">
<g clip-path="url(#clip1)" clip-rule="nonzero">
<path style=" stroke:none;fill-rule:nonzero;fill:rgb(0%,0%,0%);fill-opacity:1;" d="M 187.625 14.515625 C 157.941406 14.515625 133.894531 38.570312 133.894531 68.265625 C 133.894531 97.960938 157.941406 122.015625 187.625 122.015625 C 217.304688 122.015625 241.351562 97.960938 241.351562 68.265625 C 241.351562 38.570312 217.304688 14.515625 187.625 14.515625 Z M 133.894531 152.730469 C 108.949219 152.730469 91.890625 170.1875 88.320312 174.898438 C 74.679688 192.984375 42.210938 246.105469 42.210938 246.105469 C 31.386719 264.671875 31.296875 279.128906 46.285156 294.125 L 85.773438 333.660156 C 93.867188 341.789062 107.03125 341.789062 115.15625 333.660156 C 117.464844 331.351562 119.023438 328.621094 120.011719 325.742188 L 122.382812 360.054688 L 252.863281 360.054688 L 255.023438 327.902344 C 256.042969 330.390625 257.542969 332.699219 259.582031 334.738281 C 267.675781 342.839844 280.835938 342.839844 288.964844 334.738281 L 328.960938 294.125 C 343.949219 279.128906 343.859375 264.671875 333.035156 246.105469 C 333.035156 246.105469 300.566406 192.984375 286.925781 174.898438 C 283.355469 170.1875 266.296875 152.730469 241.351562 152.730469 L 233.316406 152.730469 L 199.167969 234.648438 L 207.292969 237.4375 C 209.929688 238.304688 211.277344 241.066406 210.347656 243.585938 L 196.707031 280.058594 C 195.75 282.578125 192.871094 283.867188 190.230469 283 L 167.953125 275.351562 C 165.316406 274.480469 163.9375 271.71875 164.867188 269.199219 L 176.980469 236.867188 L 141.78125 152.730469 Z M 156.320312 152.730469 L 187.625 227.449219 L 218.804688 152.730469 Z M 110.839844 221.839844 L 118.542969 308.945312 C 117.613281 307.292969 116.535156 305.675781 115.15625 304.265625 L 77.917969 266.980469 Z M 264.40625 221.839844 L 297.328125 266.980469 L 259.582031 305.34375 C 258.441406 306.453125 257.511719 307.683594 256.703125 308.972656 Z M 264.40625 221.839844 "/>
</g>
</g>
</svg>
