<svg xmlns="http://www.w3.org/2000/svg" viewBox="0 0 2891.29 1154.87"><defs><style>.cls-1{fill:#ebf3fa;}.cls-2{fill:#dfebfa;}.cls-3{fill:#eef6ff;}.cls-4{opacity:0.4;}.cls-5{fill:#afcdfb;}.cls-6{fill:#d4e4f8;}.cls-7,.cls-9{fill:#94b0ed;}.cls-8{fill:#aec3ff;}.cls-9{opacity:0.6;}.cls-10{fill:#ef7e29;}.cls-11{fill:#f99746;}.cls-12{fill:#ffb27d;}.cls-13{fill:#f4a671;}.cls-14{fill:#2c3a64;}.cls-15{fill:#213f7a;}.cls-16{fill:#789cdd;}.cls-17{fill:#cadaff;}.cls-18{fill:#7a9edd;}.cls-19{fill:#233862;}.cls-20{fill:#fff;}.cls-21{fill:#ed7d2b;}.cls-22{fill:#2a4e96;}.cls-23{fill:#ed985f;}.cls-24{fill:#adcbff;}.cls-25{fill:#c5dbff;}.cls-26{fill:#f9ddbf;}.cls-27{fill:#739cf3;}.cls-28{fill:#ffa969;}.cls-29{fill:#a9453d;}.cls-30{fill:#c0783d;}.cls-31{fill:#485ca6;}</style></defs><g id="Layer_2" data-name="Layer 2"><g id="_ëîé_1" data-name="‘ëîé_1"><path class="cls-1" d="M2891.09,896c-1.28-48.58-8.6-87.25-20.38-118.38-18.82-49.71-49-80.18-84.22-101q-8.07-4.77-16.46-8.92-3.47-1.71-7-3.35c-10.36-4.8-21-9-31.78-12.82q-8.4-3-16.89-5.68c-2.17-.69-4.33-1.37-6.52-2-18.76-5.84-37.66-11-56-16.54q-10-3-19.75-6.28c-6.24-2.1-12.38-4.29-18.39-6.62a253.81,253.81,0,0,1-30.7-14.17c-.63-.34-1.27-.7-1.9-1.06q-4-2.26-7.88-4.73c-15.92-10.1-29.85-22.61-40.93-38.86-.59-.86-1.18-1.73-1.73-2.61-1.52-2.32-3-4.71-4.34-7.17-8.72-15.56-15.11-34.17-18.56-56.78a257.64,257.64,0,0,1-2.7-29.16c-6.2-160.08-169.77-524-621.46-450q-30.15,4.93-62,12.54-17.46,4.17-35.44,9.19C1419,134,1510.64,302.38,991.7,218.61q-29.64-4.79-62-10.68Q919.25,206,908.51,204C774.57,178.74,405.43,171.4,139.32,439.08q-9.73,9.78-18.65,19.78-13.33,14.94-25,30.33L94,491.48a460.84,460.84,0,0,0-27.9,41.84h0q-5,8.42-9.53,16.91-4,7.44-7.64,14.94a459.73,459.73,0,0,0-23.52,57.89q-2.14,6.54-4.11,13.11c-.94,3.17-1.86,6.35-2.73,9.53-1.15,4.13-2.22,8.26-3.26,12.41-.69,2.85-1.37,5.71-2,8.57q-.64,2.79-1.22,5.56-1.78,8.09-3.24,16.19Q5.89,704.39,4,720.4,1.13,744.25.36,768.1,0,778.46,0,788.82c0,122.93,36.6,242.45,75.18,334.31q4.95,11.79,9.93,22.94c.55,1.25,1.11,2.48,1.65,3.72.68,1.5,1.35,3,2,4.48h5.1a1.54,1.54,0,0,1,.08.19l.18.41v-.6h2765c.62-2.75,1.22-5.49,1.82-8.2C2884,1041.75,2892.79,960.2,2891.09,896Z"/><path class="cls-2" d="M2870.71,777.59c-18.82-49.71-49-80.18-84.22-101q-8.07-4.77-16.46-8.92-3.47-1.71-7-3.35c-10.36-4.8-21-9-31.78-12.82l-23.41-7.72c-18.76-5.84-37.66-11-56-16.54q-10-3-19.75-6.28c-6.24-2.1-12.38-4.29-18.39-6.62a253.81,253.81,0,0,1-30.7-14.17c-.63-.34-1.27-.7-1.9-1.06q-4-2.26-7.88-4.73c-15.92-10.1-29.85-22.61-40.93-38.86-.59-.86-1.18-1.73-1.73-2.61-1.52-2.32-3-4.71-4.34-7.17-8.72-15.56-15.11-34.17-18.56-56.78h-73V590.86H2383v25.69h-55.78V572.32H2226.92V452.18h-15.7v-12H2209v12h-13v0h-65.08V440.21h-2.25v11.94h-17v60.43l-84.29-.34v37.29h-71.47V319H1744.19V566h-64.66V432.43H1467.81v721.84H2856.57c.4-1.94.81-3.87,1.21-5.79.17-.8.35-1.61.51-2.41q2.45-11.62,4.67-22.94c18-90.88,26.75-165.55,28.13-227.16C2889.81,847.39,2882.49,808.72,2870.71,777.59Z"/><polygon class="cls-2" points="1468.01 1154.27 1468.01 1146.07 1468.01 589.75 1467.81 589.75 1364.98 589.75 1361.67 589.75 1361.67 1146.07 1361.67 1154.27 1372.95 1154.27 1467.81 1154.27 1468.01 1154.27"/><rect class="cls-2" x="2460.56" y="441.38" width="3.9" height="48.42"/><rect class="cls-2" x="1758.25" y="301.74" width="2.53" height="17.27"/><rect class="cls-2" x="1811.85" y="301.74" width="2.53" height="17.27"/><rect class="cls-2" x="1934.71" y="301.74" width="2.53" height="17.27"/><rect class="cls-2" x="1886.68" y="301.74" width="2.53" height="17.27"/><path class="cls-2" d="M1372.83,1146.07,1365,589.74l-1.19-84.54h-55.88v-111l-2.59-1.33h-16.66v-.05h-96.93v.05h-.08V409.5h.08V421h-.08v16.63h.08v11.48h-.08V465.7h.08v.07l-10.27-.07V378.64H1072.69v11h-.06v16.63h.06V421h-.06v16.63h.06v11.48h-.06V465.7h.06v10.63h-.06V493h.06v10.63h-.06v16.64h.06v10h-.06v10.57h.06V542H950.08v95.25h-45.8v24H854.89V619.89H766.05V507.65H752.16V496.46h-2v11.19H738.64v0H681V496.46h-2v11.16H664v56.46l-74.62-.32v34.85H526.12V383.23H338.67V614H281.42V489.19H94v665.27l.18.41v-.6H1373Z"/><path class="cls-2" d="M94.15,636.18v518.69l-.18-.41a1.54,1.54,0,0,0-.08-.19c-1.16-2.7-2.32-5.44-3.48-8.2C49,1047.85,4.73,911,.36,768.1A546.07,546.07,0,0,1,8.8,688.44a488.21,488.21,0,0,1,12.47-52.26Z"/><rect class="cls-3" x="386.9" y="383.22" width="139.22" height="36.51"/><rect class="cls-3" x="386.9" y="439.42" width="139.22" height="36.51"/><rect class="cls-3" x="386.9" y="496.79" width="139.22" height="36.51"/><rect class="cls-3" x="386.9" y="555.07" width="139.22" height="36.51"/><rect class="cls-3" x="386.9" y="611.3" width="139.22" height="36.51"/><rect class="cls-3" x="1072.71" y="378.65" width="69.61" height="22.17"/><rect class="cls-3" x="1072.71" y="412.78" width="69.61" height="22.17"/><rect class="cls-3" x="1072.71" y="447.62" width="69.61" height="22.17"/><rect class="cls-3" x="1072.71" y="483.02" width="69.61" height="22.17"/><rect class="cls-3" x="1072.71" y="517.17" width="69.61" height="22.17"/><rect class="cls-3" x="1072.71" y="554.76" width="69.61" height="22.17"/><rect class="cls-3" x="1072.71" y="588.88" width="69.61" height="22.17"/><rect class="cls-3" x="1072.71" y="623.72" width="69.61" height="22.17"/><rect class="cls-3" x="1072.71" y="659.12" width="69.61" height="22.17"/><rect class="cls-3" x="1072.71" y="693.27" width="69.61" height="22.17"/><rect class="cls-3" x="1191.86" y="393.19" width="69.61" height="22.17"/><rect class="cls-3" x="1191.86" y="427.32" width="69.61" height="22.17"/><rect class="cls-3" x="1191.86" y="462.16" width="69.61" height="22.17"/><rect class="cls-3" x="1191.86" y="497.56" width="69.61" height="22.17"/><rect class="cls-3" x="1191.86" y="531.71" width="69.61" height="22.17"/><rect class="cls-2" x="972.91" y="497.56" width="3.45" height="45.24"/><rect class="cls-2" x="1031.11" y="458.71" width="5.37" height="87.61"/><rect class="cls-2" x="351.12" y="367.09" width="2.24" height="16.13"/><rect class="cls-2" x="398.57" y="367.09" width="2.24" height="16.13"/><rect class="cls-2" x="507.35" y="367.09" width="2.24" height="16.13"/><rect class="cls-2" x="1083.48" y="366.2" width="1.73" height="12.45"/><rect class="cls-2" x="1165.14" y="366.2" width="1.73" height="12.45"/><rect class="cls-2" x="464.82" y="367.09" width="2.24" height="16.13"/><rect class="cls-3" x="1745.25" y="340.52" width="138.24" height="28.15"/><rect class="cls-3" x="1745.25" y="383.85" width="138.24" height="28.15"/><rect class="cls-3" x="1745.25" y="428.08" width="138.24" height="28.15"/><rect class="cls-3" x="1745.25" y="473.02" width="138.24" height="28.15"/><rect class="cls-3" x="1745.25" y="516.38" width="138.24" height="28.15"/><g class="cls-4"><rect class="cls-3" x="1534.92" y="445.48" width="144.19" height="32.86"/><rect class="cls-3" x="1534.92" y="496.06" width="144.19" height="32.86"/><rect class="cls-3" x="1534.92" y="547.69" width="144.19" height="32.86"/><rect class="cls-3" x="1534.92" y="600.14" width="144.19" height="32.86"/><rect class="cls-3" x="1534.92" y="650.75" width="144.19" height="32.86"/></g><path class="cls-5" d="M2863,1123.13q-2.24,11.3-4.67,22.94c-.16.8-.34,1.61-.51,2.41l-8.1,0-909.8,1.29H86.76c-.54-1.24-1.1-2.47-1.65-3.72q-5-11.14-9.93-22.94Z"/><polygon class="cls-6" points="836.96 194.97 836.96 1132.42 805.95 1132.42 805.95 193.18 836.96 194.97"/><polygon class="cls-6" points="1962.54 1.04 1962.54 1132.42 1931.54 1132.42 1931.54 3.48 1962.54 1.04"/><path class="cls-7" d="M319.57,1128.05a13.62,13.62,0,0,1-12.77-8.91L174.3,759.73a13.61,13.61,0,0,1,25.54-9.41l132.51,359.41a13.62,13.62,0,0,1-8.07,17.47A13.4,13.4,0,0,1,319.57,1128.05Z"/><path class="cls-7" d="M420.33,1128.05a13.63,13.63,0,0,1-12.78-8.91L275,759.73a13.61,13.61,0,0,1,25.54-9.41L433.1,1109.73A13.6,13.6,0,0,1,425,1127.2,13.35,13.35,0,0,1,420.33,1128.05Z"/><polygon class="cls-7" points="316.63 820.37 209.76 829.9 177.91 755.03 290.76 750.94 316.63 820.37"/><path class="cls-7" d="M869.58,1147.11H239.71a21.84,21.84,0,0,1-21.78-21.78h0a21.85,21.85,0,0,1,21.78-21.79H869.58a21.85,21.85,0,0,1,21.78,21.79h0A21.84,21.84,0,0,1,869.58,1147.11Z"/><path class="cls-7" d="M396.27,885.72H228.82a5.45,5.45,0,1,1,0-10.89H395.75L430.83,868H328.2a5.45,5.45,0,1,1,0-10.89H487.49a5.45,5.45,0,0,1,1,10.79l-91.22,17.7A5.24,5.24,0,0,1,396.27,885.72Z"/><path class="cls-8" d="M2750.54,582.21l-37.45,473.55-.25,3.13a43.65,43.65,0,0,1-46.81,39.95l-86.35-6.83a43.65,43.65,0,0,1-40-46.82l37.7-476.67a43.67,43.67,0,0,1,46.82-40l39.64,3.14,46.71,3.7A43.64,43.64,0,0,1,2750.54,582.21Z"/><path class="cls-7" d="M2740.89,1056.38v70.23a21.14,21.14,0,0,1-21.08,21.08H2532.23a21.14,21.14,0,0,1-21.07-21.08v-70.23a21.14,21.14,0,0,1,21.07-21.08h187.58A21.14,21.14,0,0,1,2740.89,1056.38Z"/><path class="cls-9" d="M2750.54,582.21l-37.45,473.55c-25.81-3.34-49.58-20.46-49.58-20.46s27.79-346.16,35.66-423.71c6.26-61.69-23.05-76.44-35.29-79.89l46.71,3.7A43.64,43.64,0,0,1,2750.54,582.21Z"/><g id="man"><rect class="cls-10" x="1713.92" y="1034.56" width="135.03" height="113.85" rx="7.93"/><rect class="cls-11" x="1766.45" y="1034.57" width="135.03" height="113.85" rx="7.93"/><path class="cls-12" d="M1767.43,840c-4.07,7.45-14.21,11.77-26.2,15-1.33.37-2.69.73-4.07,1.07-21,5.24-49.15,2.23-57.3,13.15-9.06,12.14-19.84,75.88-19.84,75.88-13,5.17-12.83,2.64-12.83,2.64-4-17.23-4.29-69.63-3.34-84.06,1.07-16.58,35.13-39.85,64.42-56.88,22.38-13,42-22.4,42-22.4.6.12,1.21.26,1.79.41C1777.85,791.38,1778.63,819.47,1767.43,840Z"/><path class="cls-10" d="M1752,784.83c-2.77,23.19-7.23,57.46-10.81,70.19-1.33.37-2.69.73-4.07,1.07V856c-4.05-24.31-24.5-45-28.89-49.22,22.38-13,42-22.4,42-22.4C1750.85,784.54,1751.46,784.68,1752,784.83Z"/><path class="cls-12" d="M1786.51,770.22s-30.9,33.9-55.79,35.62a57,57,0,0,1,10.17-18.06c-1.24-2.07-2.38-4-3.41-5.84A156.28,156.28,0,0,1,1729,765.1l19.94-33.65c.46,1.24.93,2.44,1.44,3.61a69,69,0,0,0,3.48,7.1c.61,1.08,1.24,2.12,1.88,3.12C1768.46,765.23,1786.51,770.22,1786.51,770.22Z"/><path class="cls-13" d="M1737.48,781.94A156.28,156.28,0,0,1,1729,765.1l19.94-33.65c.46,1.24.93,2.44,1.44,3.61C1752.5,743.67,1755.21,764.62,1737.48,781.94Z"/><path class="cls-12" d="M1725,769.91s35.23-18.58,23.32-40.34S1733,690.76,1710,701.7s-22.78,21.62-20.57,29.85S1715.55,774.18,1725,769.91Z"/><path class="cls-14" d="M1749.16,731.07s-20.52-25.67-52.21-8.2c-21.7,12-22.28-13.34-22-17.62,0,0,17.09-8.49,34.91-16.75C1747.24,671.16,1749.59,724.61,1749.16,731.07Z"/><path class="cls-12" d="M1790,963a6.07,6.07,0,0,1-1.92-2.53c-.39-1.25-18.79-1-57.8-107.69-6.79-18.55-2.26-46.5,4.47-58.37l5-8.3c8.34-.89,17.16-5.08,24.15-11.79a17.12,17.12,0,0,1,6.56-3.83,30.92,30.92,0,0,1,16.08-.26c26.12,9.1,46.4,46.57,60.53,101.82,8.81,34.82,21,55.66,29.32,85.74a236.94,236.94,0,0,1,6.24,30.07C1884.06,998.08,1803.81,975.21,1790,963Z"/><path class="cls-13" d="M1797.76,1009c-9.28,1.24-22.78,1.25-37.61.82-40.37-1.19-91-5.77-93.94,2.22-19.37,52.14-89,93.12-90.21,112.46.22,1.26-17.68-8.33-17.12-8.73,0,0,5.67-2.36,61.85-155.19,5.16-14,63.8-19.37,99.27-22.2,22.66-1.82,40.33-2.52,40.33-2.52s24.18-4,49-2.3S1832.31,1004.4,1797.76,1009Z"/><path class="cls-12" d="M1647.19,947.76s17.54,6.33,25,2.61.94-13.37-4-13.37S1652.16,937.19,1647.19,947.76Z"/><path class="cls-15" d="M1807.55,1009c-9.29,1.24-22.77,1.25-37.61.82,3.63-11.72,13.18-32.84-.9-48.49,0,0-15.32-21.06-27.63-24.49,22.66-1.82,28.71-1,28.71-1s24.19-4,49-2.31S1842.1,1004.4,1807.55,1009Z"/><path class="cls-11" d="M1876.36,957.78l-.4.35L1790,963a6,6,0,0,1-1.91-2.53c-.07-.2-.58-.36-1.55-.91-2.74-1.55-9.16-6.23-19.47-23.66-9.14-15.44-21.35-40.91-36.79-83.12-6.79-18.56-2.26-46.5,4.47-58.37a12.59,12.59,0,0,0,11.07-.25c14.82-7.19,39.66-24.26,40.69-23.93,26.12,9.1,46.4,46.57,60.53,101.82C1855.85,906.86,1868,927.7,1876.36,957.78Z"/><path class="cls-10" d="M1825.47,852.24l-42.12,39.54-25.73-39.64,9.45,83.75c10.31,17.43,16.73,22.11,19.47,23.66,23.81,1.35,58.36.81,61.13-13.33C1851.92,924.5,1825.47,852.24,1825.47,852.24Z"/><path class="cls-12" d="M1862.86,1031.81c-77.28,18.41-149.48-27.29-152.16-14.24-8.3,40.42-50.25,99-51.23,106-.14,1-18.5,2.6-18.5,2.6s18.09-142.78,33.37-161.27c15.78-19.09,157.71-11.41,157.71-11.41C1887.4,942.52,1897.2,1023.63,1862.86,1031.81Z"/><path class="cls-15" d="M1772.11,951.89s37.77,39.1,42,43,20.28,2.45,20.28,2.45-17.6,2.33-17.6,5.36,11.19,35.19,15.39,35.19,35.43-1.86,42.89-5.59,17.24-45.22,2.09-78.32l-12.18-29.36S1847.67,949.84,1772.11,951.89Z"/><path class="cls-7" d="M1772.78,889.56c-3.45-12.87-17.09-20.39-30.46-16.81a25.92,25.92,0,0,0-9.11,4.5l-5.27,3.82.65.82a23.75,23.75,0,0,0-4.23,20.66c3.45,12.87,17.09,20.39,30.46,16.81.84-.23,1.65-.49,2.45-.79l.61.78,6-4.42h0A24.13,24.13,0,0,0,1772.78,889.56Z"/><path class="cls-8" d="M1719.36,906.18c-3.45-12.87,4.59-26.21,18-29.79s27,3.94,30.46,16.81-4.59,26.21-18,29.79S1722.82,919.05,1719.36,906.18Z"/><path class="cls-16" d="M1748.23,899.48a5.59,5.59,0,0,0-7.5-4.33c-1.52.56-41.82,25.78-41.82,25.78l8.62,10.68,39.11-27.92A4.63,4.63,0,0,0,1748.23,899.48Z"/><path class="cls-12" d="M1827.24,951.14c-18.19,18.17-101.62-33.57-101.62-33.57l9.44-16.43,54.42,12.71a286.31,286.31,0,0,1-31.86-61.71c-8.5-22.85-11-38.52-11-38.52-4.67-18.65,36.4-42.25,56.4-23.31,6.68,6.32,13.62,24.3,19.23,46.13C1833.44,880.05,1839.36,939,1827.24,951.14Z"/><path class="cls-13" d="M1819.6,826.83c-19.25,4.53-57.31,14.7-62,25.31,0,0,35.52-15.25,70.21,9.67Z"/><path class="cls-11" d="M1822.23,836.44c-36.68-3.43-60.8,12.91-64.61,15.7-8.5-22.85-11-38.52-11-38.52-4.67-18.65,36.4-42.25,56.4-23.31C1809.68,796.63,1816.62,814.61,1822.23,836.44Z"/><path class="cls-14" d="M1579.7,1147.85h-9.54c-3.2-.5-5.55-1.42-8.83-1.85-5-.66-7.27,1.38-7.72,1.85l-.09.1H1513c-1-1.46,0-4.83.92-7.31a5.78,5.78,0,0,1,3.79-3.47c4.3-1.24,12.77-2.35,20.53-9.37,4.36-3.94,21.07-14.5,21.07-14.5l.09,0c.37,0,2.11.54,9.71,7,3.93,3.31,10.63-4.68,10.63-4.68a9.6,9.6,0,0,1,2.19,3,10,10,0,0,1,.87,6.22c-.6,3.65,1.35,10.43,2.91,15,.94,2.78,1.74,4.76,1.74,4.76S1587.9,1146.83,1579.7,1147.85Z"/><path class="cls-14" d="M1664.38,1147.85h-10.06c-3.37-.53-5.86-1.51-9.31-2-5.25-.69-7.66,1.46-8.14,2l-.1.1h-42.72c-1.08-1.54,0-5.09,1-7.71a6.09,6.09,0,0,1,4-3.65c4.54-1.32,13.47-2.49,21.65-9.89,4.6-4.16,22.22-15.29,22.22-15.29l.09,0c.39,0,2.23.57,10.25,7.34,4.14,3.49,11.2-4.93,11.2-4.93a9.93,9.93,0,0,1,2.32,3.14,10.71,10.71,0,0,1,.92,6.56c-.64,3.85,1.41,11,3.06,15.84,1,2.93,1.83,5,1.83,5S1673,1146.77,1664.38,1147.85Z"/><path class="cls-7" d="M1742,912.65c-3.75-14-18.59-22.18-33.14-18.28a28,28,0,0,0-9.91,4.89l-5.73,4.16.7.89a25.86,25.86,0,0,0-4.6,22.47c3.76,14,18.59,22.19,33.14,18.29.91-.25,1.8-.53,2.66-.86l.67.85,6.49-4.81h0A26.26,26.26,0,0,0,1742,912.65Z"/><path class="cls-8" d="M1683.9,930.74c-3.76-14,5-28.52,19.54-32.42s29.38,4.29,33.14,18.29-5,28.51-19.54,32.41S1687.65,944.74,1683.9,930.74Z"/><path class="cls-7" d="M1718.88,920.29a8.69,8.69,0,0,0-10.76-5.94,9.34,9.34,0,0,0-3.22,1.59l-1.86,1.35.23.29a8.36,8.36,0,0,0-1.49,7.29,8.85,8.85,0,0,0,11.62,5.66l.22.28,2.1-1.56h0A8.52,8.52,0,0,0,1718.88,920.29Z"/><path class="cls-17" d="M1700,926.16a8.86,8.86,0,1,1,10.76,5.94A8.68,8.68,0,0,1,1700,926.16Z"/></g><path class="cls-7" d="M1936.48,1132.75c5.06-12.32-1.21-26.58-14-31.84a25.69,25.69,0,0,0-10-2l-6.5-.16v1a23.77,23.77,0,0,0-15.89,13.86c-5.07,12.32,1.21,26.58,14,31.84a24.22,24.22,0,0,0,2.43.86v1l7.43.11h0A24.11,24.11,0,0,0,1936.48,1132.75Z"/><path class="cls-8" d="M1883.93,1113.56c5.07-12.33,19.55-18,32.36-12.79s19.08,19.52,14,31.84-19.55,18.05-32.35,12.79S1878.87,1125.88,1883.93,1113.56Z"/><path class="cls-18" d="M1911,1125.74a5.6,5.6,0,0,0-3.34-8c-1.55-.48-48.89-4.88-48.89-4.88l.38,13.72,48,1.53A4.66,4.66,0,0,0,1911,1125.74Z"/><path class="cls-7" d="M1898,1132.44c5.51-13.41-1.32-28.92-15.25-34.64a27.8,27.8,0,0,0-10.85-2.12l-7.07-.18v1.14a25.85,25.85,0,0,0-17.29,15.07c-5.51,13.4,1.32,28.91,15.25,34.64.87.36,1.75.67,2.63.94l0,1.07,8.08.12h0A26.25,26.25,0,0,0,1898,1132.44Z"/><path class="cls-8" d="M1840.84,1111.56c5.51-13.41,21.27-19.64,35.2-13.92s20.76,21.24,15.25,34.65-21.27,19.63-35.2,13.91S1835.33,1125,1840.84,1111.56Z"/><path class="cls-7" d="M1875,1124.47a8.69,8.69,0,0,0-5-11.24,9,9,0,0,0-3.52-.69l-2.3-.06v.37a8.38,8.38,0,0,0-5.61,4.89,8.69,8.69,0,0,0,5,11.25,6.74,6.74,0,0,0,.86.3v.35l2.62,0h0A8.54,8.54,0,0,0,1875,1124.47Z"/><path class="cls-17" d="M1856.43,1117.69a8.86,8.86,0,1,1,5,11.25A8.69,8.69,0,0,1,1856.43,1117.69Z"/><path class="cls-10" d="M1054.35,821.66c2.39-15.22,17.16-25.55,33-23.06a30,30,0,0,1,11,4.06l6.52,3.75-.64,1a27.47,27.47,0,0,1,7.39,23.23c-2.4,15.22-17.16,25.54-33,23.05-1-.15-2-.36-2.92-.6l-.6,1-7.41-4.36h0A27.92,27.92,0,0,1,1054.35,821.66Z"/><path class="cls-11" d="M1117.81,834.24c2.39-15.22-8.49-29.58-24.3-32.07s-30.58,7.84-33,23.06,8.48,29.57,24.29,32.06S1115.41,849.46,1117.81,834.24Z"/><path class="cls-10" d="M1083.79,830.06a6.48,6.48,0,0,1,8.1-5.9c1.82.46,51.24,24.54,51.24,24.54L1134.52,862l-48.38-27.32A5.37,5.37,0,0,1,1083.79,830.06Z"/><path class="cls-12" d="M1114.19,847c-.74-.11-16.25,7.37-24.18-3.58-3.64-5-.88-9.74,2.62-11.11,2.67-1,7.07,2.07,8.8,3.84C1104.3,839,1114.19,847,1114.19,847Z"/><path class="cls-19" d="M1068.44,1145.6c-5.27-3.22-2.27-27.22-2.27-27.22s24.56-19.65,27.94-4.61,23.33,21.8,34.69,23.64c7.84,1.28,10.27,5.62,11,8.19Z"/><path class="cls-15" d="M1096.27,1126.35c-8,2.55-23.37,10.37-33.11,6.69-6.3-2.37-41.51-104.21-43.79-148.74-.12-2.17-.44-4.92-.94-8.16-.25-1.59-.54-3.29-.87-5.11-3.26-18-10.36-46.58-17.42-75.42-9.51-38.93-18.93-78.38-18.68-93.11.51-29,86.38-6.07,86.38-6.07s5.14,20.72,6.79,51.47q.18,3.29.29,6.72c2.34,68.33,8.74,183.75,26.18,263.9A6.9,6.9,0,0,1,1096.27,1126.35Z"/><path class="cls-19" d="M1074.63,847.9l-56.2,128.24c-.25-1.59-.54-3.29-.87-5.11-3.26-18-10.36-46.58-17.42-75.42l-10-100.1,77.71.92S1073,817.15,1074.63,847.9Z"/><path class="cls-12" d="M1027,604.65s28.77,1,39.47,13.79S1090,722.3,1097.1,741s15.69,84.28,15.69,86.79L1101.24,830s-32-67.7-34.82-82.59-37.6-88.81-37.34-93.93S1027,604.65,1027,604.65Z"/><path class="cls-12" d="M954.74,638.93a12.16,12.16,0,0,0-17.23-12.57c-11,5.15-23,12.33-26.72,20.16-7.16,15.31-22.91,81.94-21.69,106.71,0,0,13.4,3.57,22.95-.52s41.67-106,41.67-106Z"/><path class="cls-19" d="M992,1145.76s-1.52-11.86-5-18.91-26-2.56-26-2.56-4.49,3.84-5.45,21.79Z"/><path class="cls-15" d="M1036.67,802.6l-45.39,329s-19.94,4.8-35.44,1c0,0-13.29-175-12.18-217.28s1.83-102,6.74-115.43C958.12,778.76,1036.67,802.6,1036.67,802.6Z"/><path class="cls-12" d="M1020.06,589.48l0,4.26s1.16,13.33-15.25,15.27-28.85-5.19-28.41-15.48c1.48-8,3.11-13.43,3.22-20a46.05,46.05,0,0,0-.59-8l31.81-.64,9.36,1.53Z"/><path class="cls-13" d="M1020.18,566.42v16.71c-12.15,4.37-36.76-3-38.78-12.81l29.42-5.43Z"/><path class="cls-12" d="M976.58,560.41c3.69,19.86,29.31,19.21,40.38,18,3.12-.35,5.08-.75,5.08-.75,3.52-.94,5.48-6.47,6.39-13.72,1.8-14.35-.48-35.41-2.9-40.8-3.65-8.1-10.52-16.87-36.33-10.54S971.84,535,976.58,560.41Z"/><path class="cls-20" d="M1009.37,565.12s2.14,3.74,9.41,3a5.43,5.43,0,0,0,5.2-4.61A26.91,26.91,0,0,0,1009.37,565.12Z"/><path class="cls-20" d="M1064.92,674.15c18.38-1.5,27.19-10.3,27.19-10.3s-16.59-45.41-25.69-53.21-46.25-14.59-46.26-14.59a2.24,2.24,0,0,0-.52-.28h0c0,4.13-6.5,11.74-16.51,12.39-11.88.78-26.74-7.8-26.74-14.64,0,0-28.31,2-43.4,10.15s-33.1,48.64-33.1,48.64,6.11,20,43.71,26.39l-2.7,133c69.43,23,133.39-.71,133.39-.71,1.49,0-8.2-76.23-8.68-95C1065.28,703.79,1065,689.9,1064.92,674.15Z"/><path class="cls-19" d="M1031.87,522.51a9.71,9.71,0,0,0-2.4-15.37c-5.78-3.07-14.85-7.51-22.6-9.61-11.44-3.1-22.77.45-27.22,2.8a6.44,6.44,0,0,1,1.08-2.68,6,6,0,0,0-2.29,3.4c-.21.15-.3.25-.25.29a7.58,7.58,0,0,0-3.72.24s1-.15,1.38.51a.58.58,0,0,0,.17.18c-17,8.2-22.64,28.25-13.07,41.21,5.9,8,16.46,24.26,16.46,24.26a33.82,33.82,0,0,1-2.2-8.09,6.91,6.91,0,0,1,.59-3.15,8.23,8.23,0,0,0,0-6.15c-1.15-2.88-1.43-5.86,1-7.09,2.86-1.43,5.11.65,6.55,2.81a4.3,4.3,0,0,0,5.19,1.66l.18-.08c7.16-3,1.19-11.34,7.46-16.41s23-2.44,28.47-4.54A36.93,36.93,0,0,0,1031.87,522.51Z"/><path class="cls-10" d="M1092.56,844.45c2.6-16.56,18.66-27.79,35.86-25.08a32.29,32.29,0,0,1,12,4.42l7.1,4.08-.7,1.11a29.89,29.89,0,0,1,8,25.27c-2.61,16.56-18.67,27.79-35.87,25.08a32.35,32.35,0,0,1-3.17-.66l-.66,1.06L1107.1,875h0A30.34,30.34,0,0,1,1092.56,844.45Z"/><path class="cls-11" d="M1161.59,858.14c2.6-16.56-9.23-32.18-26.43-34.89s-33.27,8.52-35.87,25.08,9.23,32.18,26.43,34.89S1159,874.69,1161.59,858.14Z"/><path class="cls-10" d="M1120.09,850.4a10,10,0,0,1,11.64-8.14,10.5,10.5,0,0,1,3.9,1.43l2.3,1.33-.23.36a9.67,9.67,0,0,1,2.61,8.2,10,10,0,0,1-11.64,8.14,9,9,0,0,1-1-.21l-.21.34-2.62-1.53h0A9.85,9.85,0,0,1,1120.09,850.4Z"/><path class="cls-11" d="M1142.5,854.84a10.25,10.25,0,1,0-11.65,8.15A10.06,10.06,0,0,0,1142.5,854.84Z"/><path class="cls-12" d="M889.1,753.23s46.8,17.85,111.13,10V749.92S930.91,736.13,917.35,724C917.35,724,893,734.19,889.1,753.23Z"/><path class="cls-10" d="M1051.66,731.39c-4-14.88-19.76-23.58-35.22-19.43a29.81,29.81,0,0,0-10.54,5.2l-6.09,4.42.74.95a27.47,27.47,0,0,0-4.88,23.88c4,14.88,19.76,23.59,35.22,19.44a29.19,29.19,0,0,0,2.83-.91l.71.9,6.9-5.11h0A27.9,27.9,0,0,0,1051.66,731.39Z"/><path class="cls-11" d="M989.89,750.62c-4-14.89,5.31-30.31,20.77-34.46s31.23,4.56,35.22,19.44-5.3,30.31-20.77,34.45S993.88,765.5,989.89,750.62Z"/><path class="cls-10" d="M1023.27,742.86a6.46,6.46,0,0,0-8.67-5c-1.76.65-48.37,29.81-48.37,29.81l10,12.35,45.23-32.29A5.36,5.36,0,0,0,1023.27,742.86Z"/><path class="cls-12" d="M1013.09,765.61c.23-.71,13.9-11.17,7.72-23.2-2.83-5.51-8.3-5.18-11.1-2.67-2.13,1.91-1.34,7.25-.55,9.58C1010.48,753.21,1013.09,765.61,1013.09,765.61Z"/><path class="cls-10" d="M1016.08,758.1c-4.34-16.19-21.5-25.66-38.32-21.15a32.55,32.55,0,0,0-11.46,5.66l-6.63,4.81.81,1a29.92,29.92,0,0,0-5.32,26c4.34,16.19,21.5,25.66,38.32,21.15a30.74,30.74,0,0,0,3.08-1l.77,1,7.51-5.56h0A30.35,30.35,0,0,0,1016.08,758.1Z"/><path class="cls-11" d="M948.88,779c-4.34-16.19,5.77-33,22.59-37.49s34,5,38.32,21.15-5.77,33-22.59,37.48S953.22,795.2,948.88,779Z"/><path class="cls-10" d="M989.33,766.93a10.05,10.05,0,0,0-12.44-6.87,10.38,10.38,0,0,0-3.72,1.84L971,763.46l.26.34a9.71,9.71,0,0,0-1.73,8.43A10.05,10.05,0,0,0,982,779.1a9.76,9.76,0,0,0,1-.33l.25.32,2.44-1.8h0A9.84,9.84,0,0,0,989.33,766.93Z"/><path class="cls-11" d="M967.51,773.71A10.25,10.25,0,1,1,980,780.58,10,10,0,0,1,967.51,773.71Z"/><path class="cls-13" d="M1312.7,620.45s-34,2-37.71,16c-5.9,22.41-11.4,74.63-11.4,74.63l-34.32-42.56-12.36,6s29.29,78.7,54,75S1312.7,620.45,1312.7,620.45Z"/><path class="cls-14" d="M1347.63,515.37s4.44-17.75,30.5-12.2c0,0-12.47-1.58-15.89,3.23,0,0,9.89-4.53,16.08-.74s7.21,16.54,6.28,20.43-7.76,15.43-12.29,15.43-9.89-4-9.89-4Z"/><path class="cls-14" d="M1300.78,533.66s33-39.64,50.46-14.27c0,0,13,5.4,17.74,27.58,4.81,22.63-10.24,39.84-18,35.59-5-2.73-8.77,6-8.77,6Z"/><path class="cls-12" d="M1311.15,620.63c-.13.06,12.13,6.42,21.34,3.9,8.68-2.36,19.66-5.27,19.55-5.3-3.68-.72-10.06-14.11-10-35.79l-1.66.33-27.91,5.52s.63,8.79.65,17.06C1313.16,613.3,1312.74,619.89,1311.15,620.63Z"/><path class="cls-13" d="M1312.49,589.29s.63,8.79.65,17.06c15.62-.44,23.87-14.69,27.26-22.58Z"/><path class="cls-14" d="M1343.28,580.73s8.19-12.94,10.15-24c1.4-7.9-2.62-37.17-32-33a40,40,0,0,0-16.57,6.26c-6.38,4.32-15.6,13.63-5.29,39.16l2.67,8.63Z"/><path class="cls-12" d="M1307.27,597.13s37,.61,37-22.41,4.81-38.44-18.78-39.81-28.19,7.42-30.07,15.1S1297.66,596.38,1307.27,597.13Z"/><path class="cls-14" d="M1308.64,534.35s10.12,27,25.64,31,22.27-.17,22.27-.17a44,44,0,0,1-14.39-26S1316.27,521.5,1308.64,534.35Z"/><path class="cls-14" d="M1311.14,536.54s-7.55,6-9.39,11.89-2.67,17.93-6.19,17.52c0,0-7.62-18.35.94-28.74C1305.59,526.2,1311.14,536.54,1311.14,536.54Z"/><path class="cls-12" d="M1282.6,786.48c18.79-60.07-1.8-73.13.15-103.19S1308,620.91,1308,620.91s28.19-2.85,43-1.85c13.15.89,35.68,41.82,30.07,79.61a72,72,0,0,1-3.45,13.83c-6.93,19.13-10.49,26.93-10.32,34.16.21,9.15,6.41,17.37,19.37,46.43C1393.79,809.15,1263.41,847.84,1282.6,786.48Z"/><path class="cls-12" d="M1331.25,921.62c-5.23,29.62-9.07,51.83-9.07,51.83,9.79,40.15-4.94,91.64-17.07,124-2.77,7.4-5.41,13.81-7.59,18.86l0,0s0,0,0,0a.89.89,0,0,0,0,.13h0c-.06.15-.12.3-.19.44a.09.09,0,0,1,0,0c-3.19,7.34-5.32,11.6-5.32,11.6l-17.89.81s1.38-7.7,2.9-20.69a.69.69,0,0,0,0-.13c.49-4.19,1-8.92,1.47-14.13,2.72-29.47,4.62-73.89-1.74-118.62-15.53-109.24,5-182.44,5-182.44l65.7,21.2,3.07,1C1344.56,846.59,1337.06,888.68,1331.25,921.62Z"/><path class="cls-12" d="M1350.06,618.51s31.58,3.23,35.28,11.36c11.93,26.26,23.85,114.79,27.17,122.56s13.5,50.46,22.18,71.53l-11.09,3.33s-36.6-60.73-39.92-76.53-21.57-80.08-21.57-80.08Z"/><path class="cls-20" d="M1375,691.07l.44,27.42a289.37,289.37,0,0,0-49.8-9.13,157.65,157.65,0,0,0-18.77-.52,79.54,79.54,0,0,0-21.12,3.29s-4.06-17.75-8.13-38.82c-.15-.76-.26-1.51-.35-2.26-2.35-20,15.46-36.43,8-44.45,0,0,6.52-3.56,22.79-5.69,0,0-12.48,22-11.37,27.54S1346,649,1349.3,646s8.59-26.41,8.59-26.41,17.09,1.87,25.44,8a74.1,74.1,0,0,0-9.19,15.51,38.1,38.1,0,0,0-2.38,7.66c-1.29,6.9-4.72,20.06,3,30.4Z"/><path class="cls-13" d="M1343.75,850.58c-5.84,30.94-6.7,38.11-12.5,71-36-62.93-30.75-79.36-30.75-79.36Z"/><path class="cls-12" d="M1456.9,1108.05c0,1.16-.09,2.28-.13,3.36-.53,10.55-1.42,17-1.42,17l-17.25-6s-.82-2.49-2.25-6.78l-2-6.09,0,0c-1.41-4.17-3.12-9.19-5.07-14.75-11.74-33.67-31.73-87.58-43.37-100-33.28-35.47-82.28-190.16-82.28-190.16l66.2-21.48c9.82,9.51,17.8,27.33,24.23,48.3,16.21,52.92,22.51,126,23.36,136.53v0a3.63,3.63,0,0,0,1.05,2.13c31,34.48,38.25,84.7,39.12,119.28C1457.19,1096.31,1457.11,1102.62,1456.9,1108.05Z"/><path class="cls-15" d="M1328.57,856.15l-11.5-1.41a105.77,105.77,0,0,0-16-3.94,108.33,108.33,0,0,0-28.64-1.15c5-53.37,12.23-70.4,12.23-70.4l24,42Z"/><path class="cls-19" d="M1328.57,856.15l-11.5-1.41a105.77,105.77,0,0,0-16-3.94c-.73-10.25,3.4-21.23,7.6-29.52Z"/><path class="cls-15" d="M1284.63,779.25s15.87,12,31.95,10.88,63-11.83,63-11.83,8.7,12.64,14.79,37.71c6.28,25.88,6.28,45.1,6.28,45.1s-55.08-7.21-77.26,4.44Z"/><path class="cls-14" d="M1309.74,537.45s7.21,28.28,26.8,37.34c0,0-19.59-17.37-21.25-36S1309.74,537.45,1309.74,537.45Z"/><path class="cls-10" d="M1473.62,831c-2.75-10.23-13.59-16.22-24.23-13.37a20.6,20.6,0,0,0-7.25,3.58l-4.18,3,.51.65a18.9,18.9,0,0,0-3.37,16.43c2.75,10.24,13.6,16.22,24.23,13.37.67-.18,1.32-.39,2-.62l.49.62,4.75-3.52h0A19.2,19.2,0,0,0,1473.62,831Z"/><path class="cls-11" d="M1431.13,844.25c-2.74-10.23,3.65-20.84,14.29-23.7s21.48,3.14,24.23,13.37-3.65,20.85-14.29,23.7S1433.88,854.49,1431.13,844.25Z"/><path class="cls-10" d="M1454.09,838.92a4.44,4.44,0,0,0-6-3.44c-1.22.44-33.27,20.51-33.27,20.51l6.86,8.49,31.1-22.21A3.67,3.67,0,0,0,1454.09,838.92Z"/><path class="cls-10" d="M1193.53,642.87c2.75-10.23,13.59-16.22,24.23-13.37a20.6,20.6,0,0,1,7.25,3.58l4.19,3-.51.66a18.9,18.9,0,0,1,3.36,16.42c-2.75,10.24-13.6,16.23-24.23,13.37-.67-.18-1.32-.39-2-.62l-.49.62-4.74-3.52h0A19.2,19.2,0,0,1,1193.53,642.87Z"/><path class="cls-11" d="M1236,656.09c2.75-10.23-3.65-20.84-14.29-23.7s-21.48,3.14-24.23,13.38,3.66,20.84,14.29,23.69S1233.28,666.33,1236,656.09Z"/><path class="cls-10" d="M1213.06,650.76a4.45,4.45,0,0,1,6-3.44c1.21.45,33.26,20.51,33.26,20.51l-6.86,8.49-31.1-22.21A3.69,3.69,0,0,1,1213.06,650.76Z"/><path class="cls-13" d="M1217,674.57s-11.44-14.18-3.2-21.51,18.91-5.18,19.22-.91-3.66,16.47-3.66,16.47Z"/><path class="cls-12" d="M1433.91,822.11s3.37,7.95,6.88,10.17,8.51,7.57,7.58,11.83-1.85,10.9-6.28,10.9-14.79-19.59-16.08-23.29-2.41-4.43-2.41-4.43Z"/><path class="cls-10" d="M1449.14,849.4c-3-11.14-14.78-17.65-26.35-14.55a22.52,22.52,0,0,0-7.89,3.9l-4.55,3.31.55.71a20.56,20.56,0,0,0-3.66,17.87c3,11.13,14.79,17.64,26.36,14.54a21,21,0,0,0,2.12-.68l.53.68,5.17-3.83h0A20.86,20.86,0,0,0,1449.14,849.4Z"/><path class="cls-11" d="M1402.92,863.78c-3-11.13,4-22.68,15.54-25.78s23.38,3.41,26.36,14.55-4,22.67-15.54,25.78S1405.91,874.92,1402.92,863.78Z"/><path class="cls-10" d="M1430.75,855.47a6.92,6.92,0,0,0-8.56-4.72,7.47,7.47,0,0,0-2.56,1.26l-1.48,1.08.18.23a6.68,6.68,0,0,0-1.19,5.8,6.91,6.91,0,0,0,8.56,4.72,5.54,5.54,0,0,0,.69-.22l.17.22,1.68-1.24h0A6.81,6.81,0,0,0,1430.75,855.47Z"/><path class="cls-11" d="M1415.74,860.14a7,7,0,1,1,8.56,4.72A6.92,6.92,0,0,1,1415.74,860.14Z"/><path class="cls-10" d="M1218,661.24c3-11.14,14.79-17.65,26.36-14.54a22.29,22.29,0,0,1,7.88,3.89l4.56,3.31-.56.71a20.56,20.56,0,0,1,3.66,17.87c-3,11.13-14.79,17.65-26.36,14.54a21,21,0,0,1-2.12-.68l-.53.68-5.16-3.83h0A20.89,20.89,0,0,1,1218,661.24Z"/><path class="cls-11" d="M1264.23,675.62c3-11.13-4-22.68-15.54-25.78s-23.37,3.41-26.36,14.55,4,22.68,15.54,25.78S1261.24,686.76,1264.23,675.62Z"/><path class="cls-10" d="M1236.41,667.31a6.91,6.91,0,0,1,8.55-4.72,7.39,7.39,0,0,1,2.56,1.26l1.48,1.08-.18.23A6.68,6.68,0,0,1,1250,671a6.91,6.91,0,0,1-8.56,4.72,6.12,6.12,0,0,1-.69-.22l-.17.22-1.67-1.24h0A6.77,6.77,0,0,1,1236.41,667.31Z"/><path class="cls-11" d="M1251.41,672a7,7,0,1,0-8.56,4.72A6.92,6.92,0,0,0,1251.41,672Z"/><path class="cls-19" d="M1283.16,783.48s14.4,10.55,29.66,11,68.86-12.69,68.86-12.69l-2.21-4.17s-58.76,15.72-72.55,11.06a104.36,104.36,0,0,1-22.14-10.17Z"/><path class="cls-12" d="M1296,1145.81c-6.52.09-21.84-1.66-28,0h-24.64c-5.75-3.53-8.06-7.62,7.15-9.5,22-2.72,26-24.76,26.38-27.54a.69.69,0,0,0,0-.13c0-.1,0-.16,0-.16l20.57,7.86,0,0s0,0,0,0a.32.32,0,0,0,0,.13h0l-.19.44a.09.09,0,0,1,0,0,20.72,20.72,0,0,0-.09,13.9C1299.08,1136.56,1302.5,1145.72,1296,1145.81Z"/><path class="cls-12" d="M1457.57,1145.81c-6.51.09-21.83-1.66-28,0H1405c-5.74-3.53-7.93-6.82,7.15-9.5,22.21-3.93,24.72-14.07,23.74-20.7a18.11,18.11,0,0,0-2-6.09l0,0,23.12-1.43s-.09,1.31-.13,3.36c-.13,4.85,0,13.86,2,19.55S1464.08,1145.72,1457.57,1145.81Z"/><path class="cls-15" d="M1297.22,1117.06a20.72,20.72,0,0,0-.09,13.9c1.95,5.6,5.37,14.76-1.14,14.85s-21.84-1.66-28,0h-24.64c-5.75-3.53-8.06-7.62,7.15-9.5,22-2.72,26-24.76,26.38-27.54a.69.69,0,0,0,0-.13c.49-4.19,1-8.92,1.47-14.13,0,0,10.17,7.53,26.71,3h0c-2.77,7.4-5.41,13.81-7.59,18.86l0,0s0,0,0,0a.89.89,0,0,0,0,.13h0c-.06.15-.12.3-.19.44A.09.09,0,0,1,1297.22,1117.06Z"/><path class="cls-15" d="M1457.57,1145.81c-6.51.09-21.83-1.66-28,0H1405c-5.74-3.53-7.93-6.82,7.15-9.5,22.21-3.93,24.72-14.07,23.74-20.7l-2-6.09,0,0c-1.41-4.17-3.12-9.19-5.07-14.75,6.34,0,17.92-.62,28.31-5.35.17,6.93.09,13.24-.12,18.67,0,1.16-.09,2.28-.13,3.36-.13,4.85,0,13.86,2,19.55S1464.08,1145.72,1457.57,1145.81Z"/><path class="cls-20" d="M1302.89,583.64s.95,2.12,1.38,3.17,6.57,1.1,8.52-.08a16.08,16.08,0,0,0,3.5-3.6S1305.66,582.88,1302.89,583.64Z"/><path class="cls-11" d="M561.82,919.41c-5.6,6.1-14,12.39-.64,26.34,17.12,17.88,43.6,94.93,43.6,94.93-.91,3,0,7-2.07,8.24-3.38,1.94-12-4-12-4s-78.64-81.46-85-99.78c-4.71-13.52,19.37-79,33.78-113.37,5.1-12.16,9-20.4,10-21l.45-.29c8.47-5.37,16.44-4.68,23.57-.56a34.33,34.33,0,0,1,4.44,3.08c17.59,14.28,28.9,48.14,27.72,55.17-.81,4.9-9.39,15.28-18.81,25.5-2,2.12-3.95,4.23-5.91,6.29C572.3,908.9,564.22,916.79,561.82,919.41Z"/><path class="cls-21" d="M586.77,893.64c-2,2.12-3.95,4.23-5.91,6.29l-41.42-68.15c5.1-12.16,9-20.4,10-21l.45-.29,23.57-.56,4.26-.1.18,3.18Z"/><path class="cls-12" d="M563.33,656.6s8.81,21.54,6.52,34.35-32.61,76.66-43.67,87.59S441.82,743,441.82,743L449,736.1s58,14.76,61.06,10.13S527.92,650.62,563.33,656.6Z"/><path class="cls-11" d="M561.59,825.39s15,75.21,53,128.13c36.68,51.13,55.76,129.5,55.76,129.5s2.44,1.9,7.23-.14,8,.44,9-1.89c0,0-6.93-123.71-26-150.79-10.76-15.3-16.49-71.47-16.13-86.76s-6.32-34-6.32-34Z"/><path class="cls-19" d="M686.18,1103.21l-8.87.06c-3-.44-5.18-1.29-8.23-1.67-4.63-.57-6.75,1.34-7.17,1.78l-.08.09-37.7.26c-1-1.34-.07-4.49.81-6.8a5.37,5.37,0,0,1,3.5-3.25c4-1.19,11.87-2.27,19-8.86,4-3.69,19.51-13.63,19.51-13.63l.08,0c.34,0,2,.5,9.09,6.42,3.67,3.05,9.85-4.42,9.85-4.42a8.82,8.82,0,0,1,2.06,2.75,9.3,9.3,0,0,1,.85,5.78c-.54,3.4,1.32,9.7,2.8,14,.9,2.58,1.65,4.41,1.65,4.41S693.81,1102.2,686.18,1103.21Z"/><path class="cls-19" d="M688.07,1075.92c-2.11,1.51-6.56,4.48-9.52,4.89-4,.55-11.56-9.62-11.56-9.62l.08,0c.34,0,2,.5,9.09,6.42,3.67,3.05,9.85-4.42,9.85-4.42A8.82,8.82,0,0,1,688.07,1075.92Z"/><path class="cls-19" d="M686.18,1103.21l-8.87.06c-3-.44-5.18-1.29-8.23-1.67-4.63-.57-6.75,1.34-7.17,1.78l-.08.09-37.7.26c-1-1.34-.07-4.49.81-6.8,1.13-1,1.49,4.41,2.13,5.27s30.76.1,32.49-1.17,6.93-3.53,14.22-1.84c6.34,1.46,15.64-2.48,17.94-3.53.9,2.58,1.65,4.41,1.65,4.41S693.81,1102.2,686.18,1103.21Z"/><path class="cls-22" d="M640.43,762.11c0-42.16-7.68-103-18.23-107.7-9-4-28.51-9.64-48.66-9.34-15.9.24-49.8,7.68-53.24,33.95-2.19,16.64-3.07,30.34-3.07,30.34s3.65,10.62,13.7,13.47c1.25,4.69,1.82,9.35,3.32,13.29,16.69,44,8.49,88,8.49,88,15.37,12.78,91.83,5.3,99.53.27C654.83,816.16,640.4,804.28,640.43,762.11Z"/><path class="cls-19" d="M622.11,1051.24l-6.37,6.18c-2.46,1.73-4.63,2.65-7.1,4.48-3.74,2.79-3.95,5.64-3.95,6.25v.12l-27,26.26c-1.63-.31-3.16-3.19-4.13-5.47a5.35,5.35,0,0,1,.29-4.77c2.06-3.62,7-9.85,7.62-19.56.36-5.46,4.67-23.34,4.67-23.34l0-.07c.24-.24,1.76-1,11-1.65,4.77-.34,4.06-10,4.06-10a9,9,0,0,1,3.4.56,9.39,9.39,0,0,1,4.61,3.59c2,2.83,7.66,6.09,11.68,8.15,2.43,1.24,4.24,2,4.24,2S626.92,1045.23,622.11,1051.24Z"/><path class="cls-19" d="M604.6,1030.22c-.48,2.55-1.64,7.77-3.5,10.12-2.51,3.16-15,1.05-15,1.05l0-.07c.24-.24,1.76-1,11-1.65,4.77-.34,4.06-10,4.06-10A9,9,0,0,1,604.6,1030.22Z"/><path class="cls-19" d="M622.11,1051.24l-6.37,6.18c-2.46,1.73-4.63,2.65-7.1,4.48-3.74,2.79-3.95,5.64-3.95,6.25v.12l-27,26.26c-1.63-.31-3.16-3.19-4.13-5.47.12-1.53,4.14,2.15,5.19,2.33s22.29-21.2,22.65-23.32,2.57-7.34,9-11.16c5.6-3.32,9.59-12.61,10.53-15,2.43,1.24,4.24,2,4.24,2S626.92,1045.23,622.11,1051.24Z"/><path class="cls-12" d="M600.28,660s23.26-.26,34.33,6.59,59.24,58.58,65.32,72.89-49.82,55.1-49.82,55.1L642.23,782s24.9-34.94,21.73-39.5S581.66,690.69,600.28,660Z"/><path class="cls-12" d="M645.17,780.09l9.28,7.15s-8.16,17.63-12.62,19.28l-.46.09c-4.79,1-16.69-6.82-18.68-14.85a4.41,4.41,0,0,1,.11-2.32c1.84-4.86,13-7.62,18.82-8.75C643.75,780.28,645.17,780.09,645.17,780.09Z"/><path class="cls-12" d="M455.43,737.65l-4.65,10.76s-19.09-3.58-21.8-7.5l-.2-.42c-2.1-4.41,2.51-17.86,9.81-21.76a4.45,4.45,0,0,1,2.28-.46c5.16.59,10.57,10.72,13.1,16.1C454.89,736.33,455.43,737.65,455.43,737.65Z"/><path class="cls-22" d="M591.47,646.24s21.58,1,37.07,10.58c7.13,4.43,34.53,30.4,34.53,30.4s-3,27.12-35.67,34.48c-33.22,7.48-38.56-48-38.56-48Z"/><path class="cls-12" d="M585.56,646.63a4.62,4.62,0,0,1,.09,5.07c-2.9,4.59-11,12.54-32.14,11.08-7.23-.5-8.89-6-4.31-11.6,1.11-1.37.74-9.25.62-12.41a103.13,103.13,0,0,1-.15-11.41l15-10.25,14.2-9.81C576.5,630.25,582.57,642.25,585.56,646.63Z"/><path class="cls-23" d="M578.32,618.83s-10.45,16.37-28.5,19.94a103.13,103.13,0,0,1-.15-11.41l15-10.25Z"/><path class="cls-12" d="M543.21,626.44s34.8,8.08,39.54-13.32,12.41-34.78-9.6-40.85-28.16,1.16-31.5,7.92S534.29,623.78,543.21,626.44Z"/><path class="cls-14" d="M598.36,571.34c.34-.35,1.1-.59,2.74-.57a6.61,6.61,0,0,0-3-1.07c-.19-2.3-1.14-6.42-5-7.66a4.93,4.93,0,0,1,2.15,3.71c-4.23-5-13.74-9-40.84-8.67-35.72.45-25.52,24-21.1,27s16.49-3.65,25-2.4,9.33,13.74,12.13,15.63,1.85-1.19,5.9-2.7,4,5,2.57,9.18,3.62,10.11,3.62,10.11l5.85-5.52c5.86-5.52,12.65-30.09,10.52-35.56C598.74,572.32,598.55,571.83,598.36,571.34Z"/><path class="cls-20" d="M540.22,612.9a5.39,5.39,0,0,0,4.48,3.59,7.31,7.31,0,0,0,5.83-2.1S544.75,611.69,540.22,612.9Z"/><path class="cls-24" d="M2109.36,783.59v217.55h-2.09V783.68l1.05,0Z"/><path class="cls-25" d="M2278.69,894.19a180.91,180.91,0,0,0-37.84-57.63,175.75,175.75,0,0,0-56.12-38.85A171.5,171.5,0,0,0,2116,783.46c-2.21,0-4.43,0-6.63.13l-1,0-1.05,0a171.22,171.22,0,0,0-60,14,175.79,175.79,0,0,0-56.13,38.85,181.25,181.25,0,0,0-37.84,57.63,186.49,186.49,0,0,0,0,141.15,181.25,181.25,0,0,0,37.84,57.63,175.79,175.79,0,0,0,56.13,38.85,172.9,172.9,0,0,0,137.47,0,175.75,175.75,0,0,0,56.12-38.85,180.91,180.91,0,0,0,37.84-57.63,186.24,186.24,0,0,0,0-141.15Zm-44.32,192.11c-31.63,32.46-73.66,50.35-118.38,50.35s-86.75-17.89-118.37-50.35-49-75.63-49-121.54,17.42-89.07,49-121.53c29.56-30.35,68.22-48,109.65-50.12l1.05-.05,1,0c2.2-.09,4.42-.13,6.63-.13,44.72,0,86.75,17.88,118.38,50.35s49,75.62,49,121.53S2266,1053.84,2234.37,1086.3Z"/><path class="cls-21" d="M2053.1,1112.12c-.31,14.44-.55,24.14-.55,24.14a10,10,0,0,1-10.53,9.4l-36.61-2.64a10.06,10.06,0,0,1-9.15-10.81s1-9.74,2.4-24.09c.26-2.74.54-5.56.83-8.55,3.1-32,7.46-78.62,9-99.42,1.4-20.38,3.23-68.17,4.32-97.6.12-3,.23-5.75.32-8.33.34-10,.53-16.39.53-16.39a10,10,0,0,1,10.53-9.4l36.61,2.63a10.07,10.07,0,0,1,9.15,10.82s-.77,6.31-1.94,16.12c-.26,2.56-.62,5.46-.92,8.54-3.42,29.26-8.75,76.63-10.15,97.1-1.41,20.72-2.77,67.6-3.62,99.72C2053.24,1106.45,2053.21,1109.38,2053.1,1112.12Z"/><path class="cls-11" d="M2037.09,1111c-.31,14.43-.56,24.14-.56,24.14a10,10,0,0,1-10.53,9.39l-20.59-1.48a10.06,10.06,0,0,1-9.15-10.81s1-9.74,2.4-24.09c.26-2.74.54-5.56.83-8.55,3.1-32,7.46-78.62,9-99.42,1.4-20.38,3.23-68.17,4.32-97.6.12-3,.23-5.75.32-8.33.34-10,.53-16.39.53-16.39a10,10,0,0,1,10.53-9.4l20.6,1.48a10.06,10.06,0,0,1,9.15,10.81s-.77,6.32-1.94,16.13c-.26,2.56-.63,5.46-.92,8.54-3.42,29.26-8.75,76.63-10.15,97.1-1.41,20.72-2.77,67.6-3.62,99.72C2037.23,1105.3,2037.2,1108.22,2037.09,1111Z"/><path class="cls-26" d="M2068,898c-.26,2.56-.62,5.46-.92,8.54l-53.54-3.86a2.1,2.1,0,0,1-.74-.13c.12-3,.23-5.75.32-8.33a2.07,2.07,0,0,1,1-.1Z"/><path class="cls-26" d="M1998.65,1108.12a1,1,0,0,0,.5.12l53.95,3.88c.11-2.74.14-5.67.18-8.76l-53.53-3.85a.29.29,0,0,0-.26.06Z"/><path class="cls-27" d="M2096.82,902v0Z"/><path class="cls-24" d="M2096.82,903.05a1.06,1.06,0,0,1-1-1.07V784.57a1,1,0,1,1,2.09,0V902A1.06,1.06,0,0,1,2096.82,903.05Z"/><path class="cls-11" d="M2096.34,922.81h0a4.06,4.06,0,0,1-4-4V904.33a4.06,4.06,0,0,1,4-4.05h0a4.06,4.06,0,0,1,4,4.05v14.43A4.06,4.06,0,0,1,2096.34,922.81Z"/><path class="cls-11" d="M2108.32,1017.33h0a4.06,4.06,0,0,1-4.05-4.05V998.85a4.06,4.06,0,0,1,4.05-4.05h0a4.07,4.07,0,0,1,4,4.05v14.43A4.07,4.07,0,0,1,2108.32,1017.33Z"/><path class="cls-8" d="M18.54,645.71c.87-3.18,1.79-6.36,2.73-9.53q2-6.57,4.11-13.11a42,42,0,0,1,13.52,2.66S26.3,636.49,18.54,645.71Z"/><path class="cls-8" d="M136.48,694.59c-9.39,21.47-24.2,24.07-29.49,21.62s-33.26-25.55-35.48-21.28S83.65,720.42,97,725.67c0,0-35.08,19.55-49.32,5.68S36.31,704.1,27.35,695.69s-18-11.46-15.29-5.06,20.26,17.68,22.69,30.44,5.43,21.81-11.25,13.24A95.27,95.27,0,0,1,4,720.4q1.9-16,4.82-32,1.47-8.12,3.24-16.19.57-2.78,1.22-5.56c.65-2.86,1.33-5.72,2-8.57,8.15-1.85,30.3-32.45,30.3-32.45s40.23,9.4,50.72,19.66c0,0-42.5,16-36,20s51.47-10.61,51.47-10.61S145.9,673.14,136.48,694.59Z"/><path class="cls-8" d="M118.42,689.15C62.89,672.4,30.69,669.76,12,672.25q.57-2.78,1.22-5.56C53.37,664.65,116.25,688.34,118.42,689.15Z"/><path class="cls-8" d="M297.66,566.53c-13.89,33.93-36.94,38.55-45.3,34.93s-53-38.71-56.28-32S216,608.9,237,616.64c0,0-54.13,31.89-76.9,10.72s-18.74-42.2-33.07-55S98.5,555.11,103,565s32.32,26.88,36.62,46.74,9.31,33.91-17.1,21.11S57.36,585.8,62.6,562c.23-1,.45-2,.66-3v0l4.58-20.83s-.76-1.78-1.78-4.81h0A460.84,460.84,0,0,1,94,491.48l1.72-2.29q11.66-15.39,25-30.33c7.43.15,15.12,1.14,21.79,3.67,0,0-47.44,42.57-39,50.91s49.45-51.24,49.45-51.24,63.26,13.17,80,28.8c0,0-65.86,26.62-55.6,32.61s80.08-18.5,80.08-18.5S311.57,532.62,297.66,566.53Z"/><path class="cls-8" d="M269.14,558.69c-176-48.51-202-11.08-205.87.28v0a12.11,12.11,0,0,0-.66,3c-2.93-.37-8,1-13.7,3.22q3.66-7.48,7.64-14.94a87.49,87.49,0,0,0,11.31-12.1C115.08,505,263.85,556.82,269.14,558.69Z"/><path class="cls-28" d="M2827.07,1079.32l.16,54.74a11.82,11.82,0,0,1-11.75,11.82l-22.44.06a12.48,12.48,0,0,1-12.49-12.42l-.17-54.07a22.69,22.69,0,0,1,13.46-20.72,2.56,2.56,0,0,0,1.55-2.67,8.42,8.42,0,0,1-.07-1v-2.89l16.67-.05v2.9a8.05,8.05,0,0,1-.08,1.11,2.27,2.27,0,0,0,1.32,2.45A22.68,22.68,0,0,1,2827.07,1079.32Z"/><path class="cls-10" d="M2827.07,1079.32l.16,54.74a11.82,11.82,0,0,1-11.75,11.82l-14.1,0a12.5,12.5,0,0,1-12.5-12.42l-.16-54.08a22.66,22.66,0,0,1,13.46-20.71,2.73,2.73,0,0,0,1-.74,2.45,2.45,0,0,0,.57-1.94,8.26,8.26,0,0,1-.06-1v-2.89l8.33,0v2.9a8.05,8.05,0,0,1-.08,1.11,2.27,2.27,0,0,0,1.32,2.45A22.68,22.68,0,0,1,2827.07,1079.32Z"/><path class="cls-11" d="M2817.82,1079.34l.17,54.75a11.84,11.84,0,0,1-11.76,11.82h-4.85a12.5,12.5,0,0,1-12.5-12.42l-.16-54.08a22.66,22.66,0,0,1,13.46-20.71,2.73,2.73,0,0,0,1-.74,2,2,0,0,0,.83.62A22.68,22.68,0,0,1,2817.82,1079.34Z"/><rect class="cls-26" x="2780.45" y="1084.07" width="46.68" height="32.13" transform="translate(-3.23 8.27) rotate(-0.17)"/><rect class="cls-14" x="2794.37" y="1047.53" width="18.54" height="4.39" transform="translate(-5.16 13.9) rotate(-0.28)"/><path class="cls-29" d="M2271.65,629.86a71.24,71.24,0,0,0-.57-13c-5.06,12.89-12,19.43-17,22.65a9.29,9.29,0,0,1-3.55.39,52.88,52.88,0,0,1-7.84-2.56c7.31-5.64,14.41-14.56,14.84-15.12-6.57,6.06-14.56,10.2-20.07,12.61-13.6-7.39-22.92-19.46-28-27.41,34.89-11,45.16-32.89,45.16-32.89-31,24.75-44.74,26-49.55,25.1l-.09-.19c46.64-12.36,59.57-66.87,75.3-86s34.84-4.49,34.84-4.49S2313.17,576.53,2271.65,629.86Z"/><path class="cls-13" d="M2353,613.91s30.49,16.19,28,30.7c-4,23.13-21,73.55-21,73.55l49.59-24.7,8.87,10.7s-60.23,60.12-81.44,46.31S2353,613.91,2353,613.91Z"/><path class="cls-30" d="M2418.25,704.2s16.53-8.24,12-18.46-15.23-12.77-17.32-9-3.58,16.72-3.58,16.72Z"/><path class="cls-29" d="M2360.38,525.5s-33.44-40.17-51.14-14.47c0,0-13.21,5.48-18,28-4.88,22.94,10.37,40.37,18.26,36.06,5.06-2.76,8.89,6.09,8.89,6.09Z"/><path class="cls-12" d="M2349.87,613.64c.13.06-12.29,6.5-21.63,4-8.79-2.4-19.93-5.34-19.81-5.37,3.72-.74,10.19-14.3,10.11-36.27l1.69.33,28.28,5.6s-.64,8.9-.66,17.29C2347.83,606.21,2348.26,612.89,2349.87,613.64Z"/><path class="cls-13" d="M2348.51,581.88s-.64,8.9-.66,17.29c-15.83-.45-24.2-14.89-27.62-22.89Z"/><path class="cls-29" d="M2317.3,573.2S2309,560.09,2307,548.88c-1.42-8,2.65-37.65,32.45-33.38a40.46,40.46,0,0,1,16.8,6.35c6.47,4.37,15.81,13.8,5.37,39.68l-2.72,8.74Z"/><path class="cls-12" d="M2353.8,589.82s-37.45.62-37.48-22.71-4.87-39,19-40.34,28.56,7.52,30.46,15.3S2363.54,589.06,2353.8,589.82Z"/><path class="cls-29" d="M2352.41,526.2s-10.25,27.37-26,31.41-22.56-.17-22.56-.17a44.59,44.59,0,0,0,14.58-26.32S2344.68,513.17,2352.41,526.2Z"/><path class="cls-29" d="M2349.87,528.42s7.66,6.11,9.52,12.05,2.71,18.17,6.28,17.75c0,0,7.72-18.6-1-29.12C2355.5,517.94,2349.87,528.42,2349.87,528.42Z"/><path class="cls-12" d="M2273.37,788.4c13.13-29.45,19.42-37.78,19.63-47a81.2,81.2,0,0,0-.67-11,151.18,151.18,0,0,0-4-20.8h0a2.08,2.08,0,0,1-.06-.24c-.17-.68-.52-2.19-1-4.34-3.58-17.76-13.15-79.85,21.2-92.84l1-.09c15-1,43.55,1.87,43.55,1.87a170.62,170.62,0,0,1,11.06,18.29c6.42,12.19,13.47,28.88,14.51,44.93,1.07,16.38-4.48,27.78-6.86,44.29-2.06,14.19-1.78,32.14,7,60.28C2398.24,843.89,2266.12,804.68,2273.37,788.4Z"/><path class="cls-29" d="M2351.29,529.34s-7.3,28.66-27.16,37.84c0,0,19.86-17.6,21.54-36.52S2351.29,529.34,2351.29,529.34Z"/><path class="cls-13" d="M2371.78,721.43s-49.85,14.28-79.45,8.93a151.18,151.18,0,0,0-4-20.8h0a2.08,2.08,0,0,1-.06-.24c-.17-.68-.52-2.19-1-4.34a139.39,139.39,0,0,1,20.59-9.48Z"/><path class="cls-8" d="M2378.34,688.79c-1.24,10.83-4.78,20.31-6.56,32.64-34.27,4.5-71.68-7.6-83.46-11.87h0a2.08,2.08,0,0,1-.06-.24c-1.57-6.29-18.28-82.61,20.24-97.18,5,1.61,8.64,7.12,15.4,9.74a95.89,95.89,0,0,0,40.66,5.82c4.46,8.46,8.78,23.59,11.62,34.65a80.55,80.55,0,0,1,2.46,14.79A64.55,64.55,0,0,1,2378.34,688.79Z"/><path class="cls-8" d="M2349.87,613.64s8.78-.38,11.59,1.5,17,18.54,17.79,20.79c0,0-17.6-1.5-19.29-.38C2360,635.55,2366.38,631.81,2349.87,613.64Z"/><path class="cls-30" d="M2490.33,638.93s28.1-12,29.22-8.25,3.38,20.61-2.62,22.86-27.72,0-27.72,0Z"/><path class="cls-12" d="M2428.49,1132.85l-13.74-4.18s-63.53-73.19-49.26-150a3.72,3.72,0,0,0-.22-2.4v0c-2.75-5.43-14.57-29.13-26.84-58.53-5.88-14.08-11.86-29.47-17-44.8-3-9-5.77-18.08-8-26.8a1.43,1.43,0,0,1-.05-.2l0-.09c-5.52-21.54-8-41.16-4.56-54.58l68.61-16.38s6.82,27.7,14.06,63.5c10.14,50.17,21.08,116.26,15.22,144.42C2401.47,1007.73,2428.49,1132.85,2428.49,1132.85Z"/><path class="cls-15" d="M2402.75,696.76a36.84,36.84,0,0,1,7.73,15s7.72-7.51,8.18-7.69,7.24-4,10.19-8.32,4.91-8,1-14.52-15.17-8.43-16.48-7.12-4.88,17.61-4.88,17.61S2408.07,693,2402.75,696.76Z"/><path class="cls-13" d="M2338.42,917.69c-5.88-14.08-11.86-29.47-17-44.8-3-9-5.77-18.08-8-26.8a1.43,1.43,0,0,1-.05-.2l0-.09,5.2-.58,52.66-5.82s.33,4,.79,10.57C2373.09,866,2356.17,893.46,2338.42,917.69Z"/><path class="cls-12" d="M2368.3,793.28l-30.87,68.55-.47-.23c-17.5,48.1-42.59,110.19-62.28,131.17-17.46,18.61-59.61,139.46-59.61,139.46l-11.34-4s-14.28-102.27,38-160.41a3.78,3.78,0,0,0,1.06-2.16v0c.45-5.61,2.41-28.56,6.54-56.86,1-6.87,2.13-14,3.39-21.37,1.84-10.62,4-21.55,6.41-32.26,0-.18.07-.35.11-.52.1-2.6.35-6.93,1-12.58a237.33,237.33,0,0,1,5.1-29.35l.24-1c6.17-25.42,15-38.22,15-38.22s46.93,13,63.23,14.1S2368.3,793.28,2368.3,793.28Z"/><path class="cls-11" d="M2391.45,838.35c-2.37,3.72-10,7.91-19.46,11.62l-.12,0a168.85,168.85,0,0,1-34.34,9.39c-8.58,1.26-14.89,1-15.6-1.79-5.51-21.53-16.61-53-13.15-66.39l68.61-16.39S2384.21,802.54,2391.45,838.35Z"/><path class="cls-31" d="M2203,1147.59h7.89c2.64-.42,4.59-1.18,7.3-1.54,4.11-.54,6,1.15,6.38,1.54l.08.08h33.49c.84-1.21,0-4-.76-6a4.76,4.76,0,0,0-3.14-2.87c-3.55-1-10.55-2-17-7.75-3.61-3.26-17.42-12-17.42-12h-.07c-.31,0-1.75.45-8,5.75-3.24,2.74-8.78-3.87-8.78-3.87a7.8,7.8,0,0,0-1.81,2.47,8.26,8.26,0,0,0-.72,5.14c.5,3-1.12,8.62-2.4,12.42-.78,2.3-1.44,3.93-1.44,3.93S2196.23,1146.74,2203,1147.59Z"/><path class="cls-29" d="M2201.17,1123.36c1.88,1.32,5.85,3.94,8.49,4.28,3.55.46,10.21-8.62,10.21-8.62h-.07c-.31,0-1.75.45-8,5.75-3.24,2.74-8.78-3.87-8.78-3.87A7.8,7.8,0,0,0,2201.17,1123.36Z"/><path class="cls-29" d="M2203,1147.59h7.89c2.64-.42,4.59-1.18,7.3-1.54,4.11-.54,6,1.15,6.38,1.54l.08.08h33.49c.84-1.21,0-4-.76-6-1-.91-1.3,3.92-1.87,4.69s-27.32.28-28.86-.84-6.19-3.09-12.65-1.55c-5.62,1.35-13.91-2.1-16-3-.78,2.3-1.44,3.93-1.44,3.93S2196.23,1146.74,2203,1147.59Z"/><path class="cls-31" d="M2408.68,1147.59h7.88c2.65-.42,4.6-1.18,7.3-1.54,4.12-.54,6,1.15,6.39,1.54l.07.08h33.49c.85-1.21,0-4-.76-6a4.75,4.75,0,0,0-3.13-2.87c-3.55-1-10.55-2-17-7.75-3.6-3.26-17.42-12-17.42-12h-.07c-.3,0-1.75.45-8,5.75-3.25,2.74-8.78-3.87-8.78-3.87a7.91,7.91,0,0,0-1.82,2.47,8.33,8.33,0,0,0-.72,5.14c.5,3-1.11,8.62-2.4,12.42-.78,2.3-1.44,3.93-1.44,3.93S2401.9,1146.74,2408.68,1147.59Z"/><path class="cls-29" d="M2406.83,1123.36c1.88,1.32,5.86,3.94,8.49,4.28,3.56.46,10.21-8.62,10.21-8.62h-.07c-.3,0-1.75.45-8,5.75-3.25,2.74-8.78-3.87-8.78-3.87A7.91,7.91,0,0,0,2406.83,1123.36Z"/><path class="cls-29" d="M2408.68,1147.59h7.88c2.65-.42,4.6-1.18,7.3-1.54,4.12-.54,6,1.15,6.39,1.54l.07.08h33.49c.85-1.21,0-4-.76-6-1-.91-1.3,3.92-1.86,4.69s-27.32.28-28.87-.84-6.18-3.09-12.64-1.55c-5.63,1.35-13.92-2.1-16-3-.78,2.3-1.44,3.93-1.44,3.93S2401.9,1146.74,2408.68,1147.59Z"/><path class="cls-7" d="M2378.34,688.79c-59.07-2.85-84.08-26.45-84.08-26.45h81.92a80.55,80.55,0,0,1,2.46,14.79A64.55,64.55,0,0,1,2378.34,688.79Z"/><path class="cls-12" d="M2489.21,653.54s-47.49,15.64-82.05,16.48c-29.07.71-79.32,4.29-106.06-4.57-5-1.67-8.6-3.85-10.07-6.67-9.28-17.7,6-36,6-36s8.63.88,21.62,2.12c32.76,3.15,75,12.75,94.89,12.15,27.81-.84,53.2,1.13,76.8,1.88Z"/><path class="cls-8" d="M2301.1,665.45c-5-1.67-8.6-3.85-10.07-6.67-9.28-17.7,6-36,6-36s8.63.88,21.62,2.12C2315.61,628,2299.62,645.61,2301.1,665.45Z"/><path class="cls-15" d="M2482.84,638.64s1.25,10.43-2.33,17.6c0,0,8.08-2.5,8.78-2.47s17,1.33,22.73.7,8.75-.18,9.31-10.58.29-14.61-1.68-14.71-11.43,1.6-28.85,9.09C2490.8,638.27,2489.77,638.79,2482.84,638.64Z"/><path class="cls-11" d="M2280.49,773.42s-17.52,21.1-21.29,81.17c0,0,23.59,4.81,28.64,3.31s13.86-23,13.86-23-4.87,21.17-.18,25.1,34.28,7.49,34.28,7.49l35.21-78.3S2322,783.54,2280.49,773.42Z"/><path class="cls-10" d="M2278.38,775s43,21.64,72.5,15.17,27.92-8.47,27.92-8.47l-4.88-17.37a73.91,73.91,0,0,1-36,7.86c-20.51-.84-50.86-14.05-50.86-14.05Z"/></g></g></svg>