<svg xmlns="http://www.w3.org/2000/svg" viewBox="0 0 423.36 364.62"><defs><style>.cls-1{fill:#ebebeb;}.cls-2{fill:#f5f5f5;}.cls-3,.cls-9{fill:#766df4;}.cls-10,.cls-12,.cls-24,.cls-25,.cls-28,.cls-29,.cls-31,.cls-34,.cls-36,.cls-4,.cls-5,.cls-7{fill:#fff;}.cls-4{opacity:0.5;}.cls-28,.cls-5,.cls-6{opacity:0.3;}.cls-34,.cls-8{opacity:0.6;}.cls-22,.cls-29,.cls-31,.cls-9{opacity:0.4;}.cls-10,.cls-11,.cls-24,.cls-25,.cls-28,.cls-31,.cls-34,.cls-9{isolation:isolate;}.cls-10,.cls-36{opacity:0.7;}.cls-11,.cls-23,.cls-25{opacity:0.2;}.cls-12{opacity:0.8;}.cls-13,.cls-14,.cls-15,.cls-16,.cls-17,.cls-18,.cls-19,.cls-20,.cls-21,.cls-35{fill:none;}.cls-13,.cls-14,.cls-15,.cls-16,.cls-17,.cls-18,.cls-19,.cls-20,.cls-21{stroke:#766df4;stroke-miterlimit:10;stroke-width:2px;}.cls-14{stroke-dasharray:5.15 8.24;}.cls-15{stroke-dasharray:4.77 7.63;}.cls-16{stroke-dasharray:5.07 8.12;}.cls-17{stroke-dasharray:5.05 8.09;}.cls-18{stroke-dasharray:5.47 8.76;}.cls-19{stroke-dasharray:4.97 7.95;}.cls-20{stroke-dasharray:4.93 7.88;}.cls-21{stroke-dasharray:5.12 8.2;}.cls-24{opacity:0.1;}.cls-26{fill:#2c2535;}.cls-27{fill:#b97964;}.cls-30{fill:#e4897b;}.cls-32{fill:#a24e3f;}.cls-33{fill:#de5753;}.cls-35{stroke:#2c2535;stroke-linecap:round;stroke-linejoin:round;}</style></defs><g id="Layer_2" data-name="Layer 2"><g id="Background_Complete" data-name="Background Complete"><rect class="cls-1" x="286.87" y="338.27" width="8.69" height="0.25"/><rect class="cls-1" x="16.8" y="327.95" width="43.19" height="0.25"/><polygon class="cls-2" points="423.36 319.62 423.36 308.66 412.75 308.66 412.75 259.75 404.31 259.75 404.31 243.33 397.68 243.33 397.68 214.63 391.12 214.63 391.12 181.5 388.75 181.5 388.75 214.63 384.98 214.63 384.98 207.87 378.58 207.87 378.58 214.63 373.79 214.63 373.79 243.33 362.13 243.33 362.13 218.58 356.94 218.58 356.94 214 351.3 214 351.3 218.58 343.91 218.58 343.91 243.33 332.24 243.33 332.24 283.36 312.5 283.36 312.5 273.3 308.31 273.3 308.31 296.99 303.04 296.99 303.04 289.03 295.56 289.03 295.56 281.61 300.92 281.61 300.92 279.57 295.56 279.57 295.56 270.53 291.21 270.53 291.21 235.49 288.53 235.49 288.53 217.53 285.52 217.53 285.52 235.49 279.82 235.49 279.82 270.53 255.56 270.53 255.56 295.32 241.06 295.32 241.06 285.23 233.32 285.23 233.32 258.81 229.98 258.81 229.98 285.23 228.13 285.23 228.13 307.54 216 307.54 216 295.11 211.13 295.11 211.13 283.49 209.93 283.49 209.93 295.11 203.08 295.11 203.08 285.72 188.07 285.72 188.07 281.25 182.77 281.25 182.77 270.53 180.26 270.53 180.26 281.25 168.48 281.25 168.48 295.11 161.38 295.11 161.38 280.69 141.8 280.69 141.8 295.11 136 295.11 136 288.28 124.48 288.28 124.48 241.13 122.11 241.13 122.11 288.28 116.41 288.28 116.41 295.11 113.5 295.11 113.5 268.16 107.86 268.16 107.86 257.57 84.97 257.57 84.97 263.66 75.44 263.66 75.44 295.11 68.34 295.11 68.34 262.87 48.75 262.87 48.75 295.11 42.96 295.11 42.96 273.67 23.37 273.67 23.37 295.11 20.45 295.11 20.45 245.02 10.22 245.02 10.22 295.11 6.59 295.11 6.59 308.66 0 308.66 0 319.62 423.36 319.62"/><circle class="cls-1" cx="77.32" cy="49.98" r="27.79" transform="translate(3.03 104.36) rotate(-69.08)"/><path class="cls-1" d="M204.47,20.46a4.83,4.83,0,0,0-4.83-4.83,4.92,4.92,0,0,0-1.39.2A10.21,10.21,0,0,0,188.13,4.12a9.74,9.74,0,0,0-1.88.18,8.94,8.94,0,0,0-16.58,4.52h-.15a8.24,8.24,0,0,0,0,16.48h30.25A4.82,4.82,0,0,0,204.47,20.46Z"/><path class="cls-1" d="M174,171.82a4.83,4.83,0,0,0-4.83-4.83,4.92,4.92,0,0,0-1.39.2,10.21,10.21,0,0,0-10.12-11.71,9.74,9.74,0,0,0-1.88.18,8.94,8.94,0,0,0-16.58,4.52h-.15a8.24,8.24,0,0,0,0,16.48h30.26A4.82,4.82,0,0,0,174,171.82Z"/><path class="cls-1" d="M412.21,83.21A4.83,4.83,0,0,0,406,78.58a10.21,10.21,0,0,0-10.12-11.71,9.77,9.77,0,0,0-1.89.18,8.94,8.94,0,0,0-16.58,4.52h-.14a8.24,8.24,0,0,0,0,16.48h30.25A4.82,4.82,0,0,0,412.21,83.21Z"/><path class="cls-1" d="M50.46,123.53a4.84,4.84,0,0,1,6.22-4.63A10.21,10.21,0,0,1,66.8,107.19a9.85,9.85,0,0,1,1.89.18,8.93,8.93,0,0,1,16.57,4.52h.15a8.24,8.24,0,0,1,0,16.48H55.16A4.82,4.82,0,0,1,50.46,123.53Z"/><path class="cls-1" d="M58.61,197.85a3,3,0,0,0-3-3,3,3,0,0,0-.86.12,7,7,0,0,0,.06-.92,6.36,6.36,0,0,0-6.36-6.36,6.45,6.45,0,0,0-1.17.11A5.55,5.55,0,0,0,37,190.61h-.1a5.12,5.12,0,0,0,0,10.24H55.69A3,3,0,0,0,58.61,197.85Z"/><path class="cls-1" d="M314.45,30.15a3,3,0,0,1,3-3,3.16,3.16,0,0,1,.87.13,5.62,5.62,0,0,1-.07-.92A6.36,6.36,0,0,1,324.61,20a6.45,6.45,0,0,1,1.17.11,5.56,5.56,0,0,1,10.31,2.81h.09a5.13,5.13,0,0,1,0,10.25H317.37A3,3,0,0,1,314.45,30.15Z"/><path class="cls-2" d="M72.88,36.5c-27.19,9-47.53,21.37-45.43,27.74.93,2.81,6.07,4,13.87,3.63-2.16-.49-3.54-1.33-4-2.55-1.73-5.26,15.05-15.5,37.47-22.88s42-9.1,43.72-3.84c.41,1.22-.21,2.73-1.66,4.4,6.48-4.36,9.93-8.35,9-11.16C123.81,25.47,100.07,27.55,72.88,36.5Z"/></g><g id="Shadow"><ellipse id="_Path_" data-name="&lt;Path&gt;" class="cls-2" cx="214.34" cy="353.3" rx="193.89" ry="11.32"/></g><g id="Globe"><rect class="cls-3" x="277.19" y="293.39" width="8" height="58.77"/><path class="cls-3" d="M291.09,329.5l-.68-3.68H272l-.68,3.68a6.15,6.15,0,0,1-6,5h0v11.61h31.89V334.51h0A6.15,6.15,0,0,1,291.09,329.5Z"/><path class="cls-4" d="M291.09,329.5l-.68-3.68H272l-.68,3.68a6.15,6.15,0,0,1-6,5h0v11.61h31.89V334.51h0A6.15,6.15,0,0,1,291.09,329.5Z"/><path class="cls-3" d="M320.2,349.16h-78l8.11-12a6.37,6.37,0,0,1,5.28-2.8h51.25a6.37,6.37,0,0,1,5.28,2.8Z"/><path class="cls-5" d="M320.2,349.16h-78l8.11-12a6.37,6.37,0,0,1,5.28-2.8h51.25a6.37,6.37,0,0,1,5.28,2.8Z"/><path class="cls-3" d="M224.79,345.73H337.58a3.62,3.62,0,0,1,3.62,3.62v3.3a0,0,0,0,1,0,0h-120a0,0,0,0,1,0,0v-3.3A3.62,3.62,0,0,1,224.79,345.73Z"/><path class="cls-4" d="M224.79,345.73H337.58a3.62,3.62,0,0,1,3.62,3.62v3.3a0,0,0,0,1,0,0h-120a0,0,0,0,1,0,0v-3.3A3.62,3.62,0,0,1,224.79,345.73Z"/><path class="cls-3" d="M279.52,297.34a132.89,132.89,0,0,1-68.72-19.11l4.12-6.85A125.75,125.75,0,1,0,344.57,55.87L348.7,49a133.73,133.73,0,0,1-69.18,248.33Z"/><g class="cls-6"><path class="cls-7" d="M279.52,297.34a132.89,132.89,0,0,1-68.72-19.11l4.12-6.85A125.75,125.75,0,1,0,344.57,55.87L348.7,49a133.73,133.73,0,0,1-69.18,248.33Z"/></g><rect class="cls-3" x="140.54" y="162.12" width="278.41" height="3" transform="translate(-4.69 318.94) rotate(-58.96)"/><path class="cls-3" d="M355,46.46a4.11,4.11,0,1,1-1.4-5.64A4.11,4.11,0,0,1,355,46.46Z"/><path class="cls-3" d="M211.5,285a4.11,4.11,0,1,1-1.4-5.64A4.11,4.11,0,0,1,211.5,285Z"/><g class="cls-6"><path class="cls-7" d="M355,46.46a4.11,4.11,0,1,1-1.4-5.64A4.11,4.11,0,0,1,355,46.46Z"/></g><g class="cls-6"><path class="cls-7" d="M211.5,285a4.11,4.11,0,1,1-1.4-5.64A4.11,4.11,0,0,1,211.5,285Z"/></g><path class="cls-3" d="M171.21,108.28q2.76-5.4,6-10.4a121.89,121.89,0,0,1,158-42.66l2,1a121.89,121.89,0,0,1,34.62,27.57h0a121.92,121.92,0,1,1-200.6,24.46Z"/><g class="cls-8"><path class="cls-7" d="M171.21,108.28q2.76-5.4,6-10.4a121.89,121.89,0,0,1,158-42.66l2,1a121.89,121.89,0,0,1,34.62,27.57h0a121.92,121.92,0,1,1-200.6,24.46Z"/></g><path class="cls-9" d="M206.38,225.68c-2.14-.86-4.35,1.16-5.82,3l-6.62,8.2c2.82,3.68.15,8.06-3.19,10.23a121.93,121.93,0,0,1-19.54-138.81q2.76-5.4,6-10.4h.36c3.67.14,4.68,3.87,6.17,6.45.33.58,5.17,7.1,5.71,6.26a32.55,32.55,0,0,0-4,8.72,1,1,0,0,0,0,.71c.27.51,1.05.17,1.46-.23,1-1,1.89-2.27,3-3.25a5,5,0,0,1,4-1.45c1.46.26,2.58,1.43,4,1.93a6.07,6.07,0,0,0,5.16-.86,20.1,20.1,0,0,0,3.8-3.57c-.24,4.18,4.72,4.11,5.57,8,.28,1.26.5,3,1.78,3.12s2.23-1.55,3.38-1.12c.81.3.93,1.42.65,2.23a9,9,0,0,0-.86,2.41,2.23,2.23,0,0,0,2.28,2.25c1.08-.07,1.93-.91,2.87-1.46s2.39-.66,2.87.32a1.72,1.72,0,0,1,.15.74c0,1.84-1.76,3.15-3.43,3.91s-3.58,1.39-4.53,3a1.51,1.51,0,0,0,2.07.58,2.55,2.55,0,0,1,.72-.43c.6-.13,1,.52,1.34,1a11,11,0,0,0,6.68,5.13l5.7-9.6c.76.36,1.23.55,1.91-.07,1.22,3.69,2.14,7.46,3.73,11.05a2.18,2.18,0,0,1,.3,1.35,7.76,7.76,0,0,1-.71,1.29c-.66,1.48,1.07,2.86,2.53,3.57.3.45-.3,1-.84,1a9.7,9.7,0,0,0-1.6-.14,2.07,2.07,0,0,0-1.4,1.79,5.36,5.36,0,0,0,4.41,6.07,1.62,1.62,0,0,0,1-.11c.65-.35.67-1.24.94-1.92,1.07-2.69,3.51-.67,4.42.7,1.22,1.85.87,4.9.25,6.88-.73,2.32-6.45,17.24-.74,17.74a2.43,2.43,0,0,0,1.5-.49c1.35-.93,2.1-2.5,3.31-3.6s3.39-1.53,4.29-.17c.36.55.41,1.25.73,1.82.89,1.59,3.36,1.52,4.49,3a15.65,15.65,0,0,1,1.05,2.27c.39.74,1.29,1.38,2,1s.81-1.75,1.58-2.27,2,.28,2.08,1.27a2.55,2.55,0,0,1-1.64,2.25,3.47,3.47,0,0,0-1.33.74c-.59.72-.17,1.78.26,2.6.68,1.3,1.37,2.6,2.06,3.9a2.16,2.16,0,0,1-2.28.67c-.82-.17-1.58-.57-2.42-.71-4-.64-6.66,4.46-10.64,1.12a2.45,2.45,0,0,0-1.27-3.71c-1.86-.45-4.15,1.35-5.54,0-.49-.46-.66-1.18-1.17-1.61-1.39-1.2-3.44.83-4.43,1.64-3.27,2.68-1.18,4.29-2.88,7.32-.77,1.39-2.43,2-3.41,3.28s-1.14,2.71-2,3.9c-2.31,3.29-5.87-1.29-7.73-2.77.08,2.58-2.86,4.15-5.4,4.59-3.92.67-3.34.74-5.29,3.63a2.54,2.54,0,0,1-2.32,1.22c-1.59-.22-2.21-2.23-3.55-3.1-.65-.42-1.45-.57-2.06-1-1.61-1.22-1.1-3.71-1.54-5.68a5.52,5.52,0,0,0-3.31-3.87,11.32,11.32,0,0,0-1.44,2.73l2,3.38a7.68,7.68,0,0,1,1.29,3.2,6.18,6.18,0,0,0,.18,1.93c.48,1.19,2,1.43,3.21,1.95,2.87,1.26,6.48,5.34,8.7,7.6,2.36,2.42,2.31,5,4.46,7.22a1,1,0,0,1-.35,1.39,2.13,2.13,0,0,1-1.61,0,5.77,5.77,0,0,1-3-2.26c.93,1.39-4.53,2.56-5.3,2.36-1.26-.34-2.34-2-3.46-2.64-2.79-1.63-4.74-1.93-4.48,2.16.1,1.56.15,3.51-1.23,4.24a2,2,0,0,0-2.53-.25,4.29,4.29,0,0,0-1.6,2.2,2.74,2.74,0,0,0-.19,1.82,4.59,4.59,0,0,1,.36.93c.11,1.07-1.44,1.38-2.51,1.26"/><path class="cls-9" d="M365.43,151c-.54-1.13-2.08-1.25-3.33-1.12s-2.7.29-3.55-.64l1.95-3.89a1.11,1.11,0,0,0,.16-.78,1.06,1.06,0,0,0-.62-.53l-2.55-1.18c-1.08.41.36,2.34-.43,3.18-.35.38-.94.31-1.45.32-4.37.06-4.19,5-3.72,7.87.55,3.33-1.27,6.54-3,9.44-.63,1-1.38,2.15-2.56,2.42s-2.31-.38-3.49-.61c-2-.41-4.1.51-6.17.46-7.26-.16-7.86-8.33-3.44-12.23,2.29-2,2.46-1.32,3.31-4.31.35-1.25,1.41-2.38.64-3.76a2.33,2.33,0,0,0-4-.06c-.87,1.44-1.94,2.67-2.06,4.38-1.38-1.52-3.62-2.18-5.49-3.15a2.76,2.76,0,0,1-4.69.56c.48-.82.86-2.1,0-2.53a1.5,1.5,0,0,0-.81-.11c-1.16.06-2.31.35-3.47.3-1.79-.08-5.75-2.54-7.4-.94-.29.28-.48.65-.79.92a1.82,1.82,0,0,1-2.35-.17,2.45,2.45,0,0,1-.52-2.41c.16-.55.49-1,.61-1.61.67-3-3.08-2.32-3.92-3.65-.4-.64-.45-6.34-.22-6.9a6.83,6.83,0,0,1-6.06.06c-2-1.18-2.06-3.3-1.48-5.56s1.92-4.94,2.25-6.73c.18-1,.49-2.08,1.41-2.42,1.15-.41,2.56.71,3.58,0a3.18,3.18,0,0,0,.76-.87,4.31,4.31,0,0,1,6.05-.57c.85-.09,1.34-1,1.77-1.74s1.25-1.51,2-1.17.71,1.74.24,2.61a11.27,11.27,0,0,1-1.79,2.44,3.51,3.51,0,0,0-1.25,1.83,2.9,2.9,0,0,0,.43,1.63,6.62,6.62,0,0,0,2.63,3.08,2.82,2.82,0,0,0,3.65-.79,5.64,5.64,0,0,1,.52-1c.62-.71,1.81-.45,2.59.09a8.39,8.39,0,0,0,2.33,1.59c.91.26,2.15-.46,1.88-1.37,1.31.19,3,.82,2.86,2.14a3.47,3.47,0,0,1-.47,1.17c-1.17,2.34,0,7.2,3.21,5.79,2.13-.92,1.41-5,4.41-5.09,1.44,0,2.66,1.29,4.1,1.21.55-.23.25-1.08-.19-1.49a5.6,5.6,0,0,0-5.32-1.16c.05-1.69,2.1-3.15,1.45-4.72s-3.4-1.55-3.62-3.21a2.76,2.76,0,0,1,.32-1.39c.94-2.17,3.59-5.68.81-7.58a4.55,4.55,0,0,1-1-.7c-.82-.93-.06-2.35.69-3.33,1.36.1,2.12,1.54,2.9,2.66s2.43,2.11,3.39,1.14c.69-.69.58-2.06,1.48-2.45.42-.18.93-.07,1.32-.29.95-.55.11-2,.38-3.1.37-1.47,2.54-1.4,3.83-.6s2.55,2,4,1.79c.47-.08.91-.3,1.38-.42,1.43-.35,2.89.31,4.22,1,2.11,1,1.83-10,2.05-10.57,1.72-4.16,6.9-4.16,10.56-5.48a27.18,27.18,0,0,0,5.34-2.92c27.93,32.2,37.14,78,23.6,118.46a40.49,40.49,0,0,1-2.05,5.39c-2.11-2-5-5.82-8.27-5.63-4.18.25-4.33,6.17-8.73,5.66-.9-.48.14-1.84,0-2.86a3.6,3.6,0,0,0-.87-1.44c-.34-.46-.52-1.17-.09-1.55-.47-1-2-.81-3.07-.5a7.43,7.43,0,0,1-4,.23c-2.69-.75-4-3.65-5.59-6a36.83,36.83,0,0,0-4.58-5.17c.91.55,2.07-.51,2.16-1.57a11,11,0,0,0-.65-3.11c-.38-1.78,1.16-2.82,1-4.59-.2-2.19-1.64-4.41-.8-6.44,1-2.47,4.4-2.62,7.05-2.35.22-3.27-2-6.73-.46-9.64a8.45,8.45,0,0,1,2.63-2.66l6.19-4.61a4.4,4.4,0,0,0,2-2.4c.27-1.22-.5-2.42-1.24-3.42l-2.38-3.3a2.61,2.61,0,0,0-1.23-1.1,2.35,2.35,0,0,0-1.72.29,12.92,12.92,0,0,0-6.51,6.9,52.72,52.72,0,0,1-9.52-8.88c-.75,2.41-2.92,4.37-3.32,6.79"/><path class="cls-9" d="M266.64,122.56a4.86,4.86,0,0,0-3.54,2.13,21.54,21.54,0,0,0-1,2.46,2.41,2.41,0,0,1-1.92,1.6c-1.12,0-1.86-1.12-2.37-2.12a3.67,3.67,0,0,1-.59-2.6,18.61,18.61,0,0,1,1-1.75c.51-1.22-.1-2.57-.49-3.83s-.41-2.94.74-3.57c.76-.42,1.75-.2,2.53-.58,1.9-.93,1-4.09,2.62-5,1.95-1.06,4.24,1.19,5.32,2.8s1.39,3.74,1.8,5.62C271.91,123,271.12,121.92,266.64,122.56Z"/><path class="cls-9" d="M255.73,44.28C282,38,311.43,43.06,335.22,55.22l2,1c1.29,5.16-.52,12.7-7.37,10.73-.35.67-.05,1,0,1.76.09,1.13-1.36,1.73-2.48,1.63-3.7-.33-7.36-2.32-9,2-2,5.22,2,3.3,3.6,6.41a6.57,6.57,0,0,1,.35,1.47c.44,1.81,2.35,2.79,4.05,3.54A2.12,2.12,0,0,1,328.87,82a3.51,3.51,0,0,0,1.29.3c.95-.14,1-1.59.42-2.32s-1.59-1.07-2.29-1.74-.93-2-.07-2.45a1.68,1.68,0,0,1,1.17,0,5.2,5.2,0,0,1,3.54,3.31,2.1,2.1,0,0,1,3.43,2.22c-.46,1.29-2.13,2.49-1.35,3.61a3,3,0,0,0-3.11-.54c-4,1.65-6.29,9.61-12.27,5A32.3,32.3,0,0,0,316.84,87a2.8,2.8,0,0,0-3.38.13c-.34-2.74-4.12-4.16-4.19-6.91a2.91,2.91,0,0,1,2.2-2.84,1.4,1.4,0,0,0,.61-.22c.33-.29.2-.83.35-1.25.25-.72,1.25-.86,1.69-1.48.61-.88-.16-2-1-2.75s-1.73-1.63-1.43-2.66c.1-.35.34-.64.44-1a1.83,1.83,0,0,0-.83-1.89,5.27,5.27,0,0,0-2.06-.71c-.61.14-.8,1-.63,1.57a12.42,12.42,0,0,1,.63,1.77c0,.35-3.74,5.51-3.24,5.58-2.36-.35-6.7-2.47-7.39,1-.25,1.21-.2,2.64-1.13,3.46,1.61.34,3.23.69,4.83,1.07.11.63-.78,1-1.41.81s-1.27-.51-1.87-.28a2.09,2.09,0,0,0-.91,1l-2.25,3.8c-.81,1.37-1.85,2.89-3.43,3.08-1.8.21-3.31-1.49-3.83-3.23-.12-.42-.24-.9-.63-1.1a1.69,1.69,0,0,0-1.15,0,6.57,6.57,0,0,1-5.89-1.1,4.29,4.29,0,0,1-.87-5.59c.48-.64,1.23-1.34.93-2.07-.18-.44-.71-.75-.65-1.22s.89-.61,1.48-.71A2.37,2.37,0,0,0,283.8,71c0-.55-3.06-4.18-3.82-4.2-1.75,0-3.44,3.81-4.36,5.16a2.41,2.41,0,0,1-1.41,1.19c-1,.15-1.7-.92-1.89-1.88a6.7,6.7,0,0,0-.72-2.84,4.33,4.33,0,0,0-1.36-1c-1-.56-2.18-1.15-3.29-.79-.51.16-.95.52-1.47.69a3.37,3.37,0,0,1-3.29-1.24c-.84-.91-1.44-2-2.36-2.87-1.94-1.78-5.08-2-6.6-4.21-.74-1-.72-2.85.5-3.24,1.05-.34,2.47.56,3.15-.3s-.91-3.33-.88-4.34c0-.8,1.32-1.62,1.2-3.18C257.11,46.69,255.83,45.64,255.73,44.28Z"/><path class="cls-9" d="M308,268.19c1.73-.19,3.43.07,4.8-1.47,1.86-2.09,1.09-3.79-1.77-4.14a1.18,1.18,0,0,1-.71-.25c-.57-.58.45-1.35,1.2-1.69a5.49,5.49,0,0,0,3-4.36c.06-.43,6.89,2.92,7.42,3.71,1.86,2.77-2.72,7.44.78,8.07,1.3-2,2.33-4.24,3.44-6.37l3.14,1.49c-.78-.37,1.72-4.07,2.2-4.36,1.88-1.14,4.64,1.19,6-2.11,1.72-4.17-5.58-9-7-3.94a22.56,22.56,0,0,1-8.16-2.94c-.48.78-1,1.58-1.42,2.36a2.45,2.45,0,0,1-2.07-.89,6.89,6.89,0,0,1,3.94-6.5c-.18-1.81,1.8-3,3.48-3.7-1.75-3.54,1.8-8.37,5.7-7.76s5.81,6.29,3.06,9.13a8.83,8.83,0,0,1,3.34,4.28,11.55,11.55,0,0,1,12.29-5.34c2.34.55,4.78,1.85,7,1,1-.38,1.8-1.16,2.77-1.61,2.2-1,4.74-.1,6.94.89q2.2,1,4.33,2.15a122,122,0,0,1-72.22,40.23,4.82,4.82,0,0,1-2-1.46c-.87-1.28-.45-3,0-4.49,1.77-5.78,4-8.78,10-9.83Z"/><path class="cls-10" d="M206.38,225.68c-2.14-.86-4.35,1.16-5.82,3l-6.62,8.2c2.82,3.68.15,8.06-3.19,10.23a121.93,121.93,0,0,1-19.54-138.81q2.76-5.4,6-10.4h.36c3.67.14,4.68,3.87,6.17,6.45.33.58,5.17,7.1,5.71,6.26a32.55,32.55,0,0,0-4,8.72,1,1,0,0,0,0,.71c.27.51,1.05.17,1.46-.23,1-1,1.89-2.27,3-3.25a5,5,0,0,1,4-1.45c1.46.26,2.58,1.43,4,1.93a6.07,6.07,0,0,0,5.16-.86,20.1,20.1,0,0,0,3.8-3.57c-.24,4.18,4.72,4.11,5.57,8,.28,1.26.5,3,1.78,3.12s2.23-1.55,3.38-1.12c.81.3.93,1.42.65,2.23a9,9,0,0,0-.86,2.41,2.23,2.23,0,0,0,2.28,2.25c1.08-.07,1.93-.91,2.87-1.46s2.39-.66,2.87.32a1.72,1.72,0,0,1,.15.74c0,1.84-1.76,3.15-3.43,3.91s-3.58,1.39-4.53,3a1.51,1.51,0,0,0,2.07.58,2.55,2.55,0,0,1,.72-.43c.6-.13,1,.52,1.34,1a11,11,0,0,0,6.68,5.13l5.7-9.6c.76.36,1.23.55,1.91-.07,1.22,3.69,2.14,7.46,3.73,11.05a2.18,2.18,0,0,1,.3,1.35,7.76,7.76,0,0,1-.71,1.29c-.66,1.48,1.07,2.86,2.53,3.57.3.45-.3,1-.84,1a9.7,9.7,0,0,0-1.6-.14,2.07,2.07,0,0,0-1.4,1.79,5.36,5.36,0,0,0,4.41,6.07,1.62,1.62,0,0,0,1-.11c.65-.35.67-1.24.94-1.92,1.07-2.69,3.51-.67,4.42.7,1.22,1.85.87,4.9.25,6.88-.73,2.32-6.45,17.24-.74,17.74a2.43,2.43,0,0,0,1.5-.49c1.35-.93,2.1-2.5,3.31-3.6s3.39-1.53,4.29-.17c.36.55.41,1.25.73,1.82.89,1.59,3.36,1.52,4.49,3a15.65,15.65,0,0,1,1.05,2.27c.39.74,1.29,1.38,2,1s.81-1.75,1.58-2.27,2,.28,2.08,1.27a2.55,2.55,0,0,1-1.64,2.25,3.47,3.47,0,0,0-1.33.74c-.59.72-.17,1.78.26,2.6.68,1.3,1.37,2.6,2.06,3.9a2.16,2.16,0,0,1-2.28.67c-.82-.17-1.58-.57-2.42-.71-4-.64-6.66,4.46-10.64,1.12a2.45,2.45,0,0,0-1.27-3.71c-1.86-.45-4.15,1.35-5.54,0-.49-.46-.66-1.18-1.17-1.61-1.39-1.2-3.44.83-4.43,1.64-3.27,2.68-1.18,4.29-2.88,7.32-.77,1.39-2.43,2-3.41,3.28s-1.14,2.71-2,3.9c-2.31,3.29-5.87-1.29-7.73-2.77.08,2.58-2.86,4.15-5.4,4.59-3.92.67-3.34.74-5.29,3.63a2.54,2.54,0,0,1-2.32,1.22c-1.59-.22-2.21-2.23-3.55-3.1-.65-.42-1.45-.57-2.06-1-1.61-1.22-1.1-3.71-1.54-5.68a5.52,5.52,0,0,0-3.31-3.87,11.32,11.32,0,0,0-1.44,2.73l2,3.38a7.68,7.68,0,0,1,1.29,3.2,6.18,6.18,0,0,0,.18,1.93c.48,1.19,2,1.43,3.21,1.95,2.87,1.26,6.48,5.34,8.7,7.6,2.36,2.42,2.31,5,4.46,7.22a1,1,0,0,1-.35,1.39,2.13,2.13,0,0,1-1.61,0,5.77,5.77,0,0,1-3-2.26c.93,1.39-4.53,2.56-5.3,2.36-1.26-.34-2.34-2-3.46-2.64-2.79-1.63-4.74-1.93-4.48,2.16.1,1.56.15,3.51-1.23,4.24a2,2,0,0,0-2.53-.25,4.29,4.29,0,0,0-1.6,2.2,2.74,2.74,0,0,0-.19,1.82,4.59,4.59,0,0,1,.36.93c.11,1.07-1.44,1.38-2.51,1.26"/><path class="cls-10" d="M365.43,151c-.54-1.13-2.08-1.25-3.33-1.12s-2.7.29-3.55-.64l1.95-3.89a1.11,1.11,0,0,0,.16-.78,1.06,1.06,0,0,0-.62-.53l-2.55-1.18c-1.08.41.36,2.34-.43,3.18-.35.38-.94.31-1.45.32-4.37.06-4.19,5-3.72,7.87.55,3.33-1.27,6.54-3,9.44-.63,1-1.38,2.15-2.56,2.42s-2.31-.38-3.49-.61c-2-.41-4.1.51-6.17.46-7.26-.16-7.86-8.33-3.44-12.23,2.29-2,2.46-1.32,3.31-4.31.35-1.25,1.41-2.38.64-3.76a2.33,2.33,0,0,0-4-.06c-.87,1.44-1.94,2.67-2.06,4.38-1.38-1.52-3.62-2.18-5.49-3.15a2.76,2.76,0,0,1-4.69.56c.48-.82.86-2.1,0-2.53a1.5,1.5,0,0,0-.81-.11c-1.16.06-2.31.35-3.47.3-1.79-.08-5.75-2.54-7.4-.94-.29.28-.48.65-.79.92a1.82,1.82,0,0,1-2.35-.17,2.45,2.45,0,0,1-.52-2.41c.16-.55.49-1,.61-1.61.67-3-3.08-2.32-3.92-3.65-.4-.64-.45-6.34-.22-6.9a6.83,6.83,0,0,1-6.06.06c-2-1.18-2.06-3.3-1.48-5.56s1.92-4.94,2.25-6.73c.18-1,.49-2.08,1.41-2.42,1.15-.41,2.56.71,3.58,0a3.18,3.18,0,0,0,.76-.87,4.31,4.31,0,0,1,6.05-.57c.85-.09,1.34-1,1.77-1.74s1.25-1.51,2-1.17.71,1.74.24,2.61a11.27,11.27,0,0,1-1.79,2.44,3.51,3.51,0,0,0-1.25,1.83,2.9,2.9,0,0,0,.43,1.63,6.62,6.62,0,0,0,2.63,3.08,2.82,2.82,0,0,0,3.65-.79,5.64,5.64,0,0,1,.52-1c.62-.71,1.81-.45,2.59.09a8.39,8.39,0,0,0,2.33,1.59c.91.26,2.15-.46,1.88-1.37,1.31.19,3,.82,2.86,2.14a3.47,3.47,0,0,1-.47,1.17c-1.17,2.34,0,7.2,3.21,5.79,2.13-.92,1.41-5,4.41-5.09,1.44,0,2.66,1.29,4.1,1.21.55-.23.25-1.08-.19-1.49a5.6,5.6,0,0,0-5.32-1.16c.05-1.69,2.1-3.15,1.45-4.72s-3.4-1.55-3.62-3.21a2.76,2.76,0,0,1,.32-1.39c.94-2.17,3.59-5.68.81-7.58a4.55,4.55,0,0,1-1-.7c-.82-.93-.06-2.35.69-3.33,1.36.1,2.12,1.54,2.9,2.66s2.43,2.11,3.39,1.14c.69-.69.58-2.06,1.48-2.45.42-.18.93-.07,1.32-.29.95-.55.11-2,.38-3.1.37-1.47,2.54-1.4,3.83-.6s2.55,2,4,1.79c.47-.08.91-.3,1.38-.42,1.43-.35,2.89.31,4.22,1,2.11,1,1.83-10,2.05-10.57,1.72-4.16,6.9-4.16,10.56-5.48a27.18,27.18,0,0,0,5.34-2.92c27.93,32.2,37.14,78,23.6,118.46a40.49,40.49,0,0,1-2.05,5.39c-2.11-2-5-5.82-8.27-5.63-4.18.25-4.33,6.17-8.73,5.66-.9-.48.14-1.84,0-2.86a3.6,3.6,0,0,0-.87-1.44c-.34-.46-.52-1.17-.09-1.55-.47-1-2-.81-3.07-.5a7.43,7.43,0,0,1-4,.23c-2.69-.75-4-3.65-5.59-6a36.83,36.83,0,0,0-4.58-5.17c.91.55,2.07-.51,2.16-1.57a11,11,0,0,0-.65-3.11c-.38-1.78,1.16-2.82,1-4.59-.2-2.19-1.64-4.41-.8-6.44,1-2.47,4.4-2.62,7.05-2.35.22-3.27-2-6.73-.46-9.64a8.45,8.45,0,0,1,2.63-2.66l6.19-4.61a4.4,4.4,0,0,0,2-2.4c.27-1.22-.5-2.42-1.24-3.42l-2.38-3.3a2.61,2.61,0,0,0-1.23-1.1,2.35,2.35,0,0,0-1.72.29,12.92,12.92,0,0,0-6.51,6.9,52.72,52.72,0,0,1-9.52-8.88c-.75,2.41-2.92,4.37-3.32,6.79"/><path class="cls-10" d="M266.64,122.56a4.86,4.86,0,0,0-3.54,2.13,21.54,21.54,0,0,0-1,2.46,2.41,2.41,0,0,1-1.92,1.6c-1.12,0-1.86-1.12-2.37-2.12a3.67,3.67,0,0,1-.59-2.6,18.61,18.61,0,0,1,1-1.75c.51-1.22-.1-2.57-.49-3.83s-.41-2.94.74-3.57c.76-.42,1.75-.2,2.53-.58,1.9-.93,1-4.09,2.62-5,1.95-1.06,4.24,1.19,5.32,2.8s1.39,3.74,1.8,5.62C271.91,123,271.12,121.92,266.64,122.56Z"/><path class="cls-10" d="M255.73,44.28C282,38,311.43,43.06,335.22,55.22l2,1c1.29,5.16-.52,12.7-7.37,10.73-.35.67-.05,1,0,1.76.09,1.13-1.36,1.73-2.48,1.63-3.7-.33-7.36-2.32-9,2-2,5.22,2,3.3,3.6,6.41a6.57,6.57,0,0,1,.35,1.47c.44,1.81,2.35,2.79,4.05,3.54A2.12,2.12,0,0,1,328.87,82a3.51,3.51,0,0,0,1.29.3c.95-.14,1-1.59.42-2.32s-1.59-1.07-2.29-1.74-.93-2-.07-2.45a1.68,1.68,0,0,1,1.17,0,5.2,5.2,0,0,1,3.54,3.31,2.1,2.1,0,0,1,3.43,2.22c-.46,1.29-2.13,2.49-1.35,3.61a3,3,0,0,0-3.11-.54c-4,1.65-6.29,9.61-12.27,5A32.3,32.3,0,0,0,316.84,87a2.8,2.8,0,0,0-3.38.13c-.34-2.74-4.12-4.16-4.19-6.91a2.91,2.91,0,0,1,2.2-2.84,1.4,1.4,0,0,0,.61-.22c.33-.29.2-.83.35-1.25.25-.72,1.25-.86,1.69-1.48.61-.88-.16-2-1-2.75s-1.73-1.63-1.43-2.66c.1-.35.34-.64.44-1a1.83,1.83,0,0,0-.83-1.89,5.27,5.27,0,0,0-2.06-.71c-.61.14-.8,1-.63,1.57a12.42,12.42,0,0,1,.63,1.77c0,.35-3.74,5.51-3.24,5.58-2.36-.35-6.7-2.47-7.39,1-.25,1.21-.2,2.64-1.13,3.46,1.61.34,3.23.69,4.83,1.07.11.63-.78,1-1.41.81s-1.27-.51-1.87-.28a2.09,2.09,0,0,0-.91,1l-2.25,3.8c-.81,1.37-1.85,2.89-3.43,3.08-1.8.21-3.31-1.49-3.83-3.23-.12-.42-.24-.9-.63-1.1a1.69,1.69,0,0,0-1.15,0,6.57,6.57,0,0,1-5.89-1.1,4.29,4.29,0,0,1-.87-5.59c.48-.64,1.23-1.34.93-2.07-.18-.44-.71-.75-.65-1.22s.89-.61,1.48-.71A2.37,2.37,0,0,0,283.8,71c0-.55-3.06-4.18-3.82-4.2-1.75,0-3.44,3.81-4.36,5.16a2.41,2.41,0,0,1-1.41,1.19c-1,.15-1.7-.92-1.89-1.88a6.7,6.7,0,0,0-.72-2.84,4.33,4.33,0,0,0-1.36-1c-1-.56-2.18-1.15-3.29-.79-.51.16-.95.52-1.47.69a3.37,3.37,0,0,1-3.29-1.24c-.84-.91-1.44-2-2.36-2.87-1.94-1.78-5.08-2-6.6-4.21-.74-1-.72-2.85.5-3.24,1.05-.34,2.47.56,3.15-.3s-.91-3.33-.88-4.34c0-.8,1.32-1.62,1.2-3.18C257.11,46.69,255.83,45.64,255.73,44.28Z"/><path class="cls-10" d="M308,268.19c1.73-.19,3.43.07,4.8-1.47,1.86-2.09,1.09-3.79-1.77-4.14a1.18,1.18,0,0,1-.71-.25c-.57-.58.45-1.35,1.2-1.69a5.49,5.49,0,0,0,3-4.36c.06-.43,6.89,2.92,7.42,3.71,1.86,2.77-2.72,7.44.78,8.07,1.3-2,2.33-4.24,3.44-6.37l3.14,1.49c-.78-.37,1.72-4.07,2.2-4.36,1.88-1.14,4.64,1.19,6-2.11,1.72-4.17-5.58-9-7-3.94a22.56,22.56,0,0,1-8.16-2.94c-.48.78-1,1.58-1.42,2.36a2.45,2.45,0,0,1-2.07-.89,6.89,6.89,0,0,1,3.94-6.5c-.18-1.81,1.8-3,3.48-3.7-1.75-3.54,1.8-8.37,5.7-7.76s5.81,6.29,3.06,9.13a8.83,8.83,0,0,1,3.34,4.28,11.55,11.55,0,0,1,12.29-5.34c2.34.55,4.78,1.85,7,1,1-.38,1.8-1.16,2.77-1.61,2.2-1,4.74-.1,6.94.89q2.2,1,4.33,2.15a122,122,0,0,1-72.22,40.23,4.82,4.82,0,0,1-2-1.46c-.87-1.28-.45-3,0-4.49,1.77-5.78,4-8.78,10-9.83Z"/><path class="cls-3" d="M285.64,74l5.3,5.42,5.42-5.3a7.58,7.58,0,0,0,.12-10.72h0a7.57,7.57,0,0,0-10.72-.12h0A7.58,7.58,0,0,0,285.64,74Zm3.22-3.15a3.08,3.08,0,1,1,4.36,0A3.08,3.08,0,0,1,288.86,70.83Z"/><path class="cls-11" d="M285.76,63.26a7.52,7.52,0,0,1,5.43-2.16l-.05,4.5a3.08,3.08,0,0,0-2.28,5.23,3,3,0,0,0,2.21.92l-.08,7.6-.05.05L285.64,74A7.58,7.58,0,0,1,285.76,63.26Z"/><path class="cls-3" d="M187.79,227.66l5.3,5.42,5.42-5.3a7.58,7.58,0,0,0,.12-10.72h0a7.58,7.58,0,0,0-10.72-.12h0A7.58,7.58,0,0,0,187.79,227.66Zm3.22-3.14a3.08,3.08,0,1,1,4.35,0A3.08,3.08,0,0,1,191,224.52Z"/><path class="cls-11" d="M187.91,216.94a7.56,7.56,0,0,1,5.43-2.16l-.05,4.5a3.08,3.08,0,1,0-.07,6.16l-.08,7.59,0,.05-5.3-5.42A7.58,7.58,0,0,1,187.91,216.94Z"/><path class="cls-3" d="M184.07,127.48l5.3,5.42,5.42-5.3a7.59,7.59,0,0,0,.12-10.72h0a7.58,7.58,0,0,0-10.72-.12h0A7.57,7.57,0,0,0,184.07,127.48Zm3.21-3.15a3.08,3.08,0,1,1,4.36,0A3.07,3.07,0,0,1,187.28,124.33Z"/><path class="cls-11" d="M184.19,116.76a7.55,7.55,0,0,1,5.43-2.16l-.05,4.5a3.08,3.08,0,1,0-.07,6.16l-.09,7.59,0,.05-5.3-5.42A7.57,7.57,0,0,1,184.19,116.76Z"/><path class="cls-3" d="M323.26,235.64l5.3,5.42,5.42-5.3A7.57,7.57,0,0,0,334.1,225h0a7.58,7.58,0,0,0-10.72-.12h0A7.59,7.59,0,0,0,323.26,235.64Zm3.22-3.14a3.08,3.08,0,1,1,4.36,0A3.08,3.08,0,0,1,326.48,232.5Z"/><path class="cls-11" d="M323.38,224.92a7.57,7.57,0,0,1,5.44-2.16l-.05,4.5a3.08,3.08,0,1,0-.07,6.16l-.09,7.59-.05.05-5.3-5.42A7.59,7.59,0,0,1,323.38,224.92Z"/><path class="cls-3" d="M381.42,140.43l5.3,5.42,5.42-5.3a7.58,7.58,0,0,0,.12-10.72h0a7.58,7.58,0,0,0-10.72-.12h0A7.58,7.58,0,0,0,381.42,140.43Zm3.22-3.14a3.08,3.08,0,1,1,4.35.05A3.08,3.08,0,0,1,384.64,137.29Z"/><path class="cls-11" d="M381.54,129.71a7.6,7.6,0,0,1,5.43-2.16l-.05,4.51a3,3,0,0,0-2.23.87,3.08,3.08,0,0,0,2.16,5.28l-.08,7.59,0,0-5.3-5.42A7.58,7.58,0,0,1,381.54,129.71Z"/><path class="cls-3" d="M309,128.71l5.3,5.42,5.42-5.3a7.58,7.58,0,0,0,.12-10.72h0a7.59,7.59,0,0,0-10.72-.12h0A7.58,7.58,0,0,0,309,128.71Zm3.22-3.14a3.08,3.08,0,1,1,4.36.05A3.08,3.08,0,0,1,312.25,125.57Z"/><path class="cls-11" d="M309.15,118a7.56,7.56,0,0,1,5.44-2.15l-.06,4.5a3,3,0,0,0-2.23.87,3.08,3.08,0,0,0-.05,4.36,3,3,0,0,0,2.22.92l-.09,7.6-.05,0-5.3-5.42A7.58,7.58,0,0,1,309.15,118Z"/><polygon class="cls-3" points="279.42 99.36 284.55 91.36 291.06 99.36 279.42 99.36"/><polygon class="cls-12" points="279.42 99.36 284.55 91.36 291.06 99.36 279.42 99.36"/><polygon class="cls-11" points="284.46 92.49 283.94 100.47 285.24 100.47 284.46 92.49"/><path class="cls-7" d="M271.93,98.42l4.63,6h17.19l4.69-7.83A157.59,157.59,0,0,1,271.93,98.42Z"/><polygon class="cls-3" points="245.24 218.32 240.12 210.33 233.6 218.32 245.24 218.32"/><polygon class="cls-12" points="245.24 218.32 240.12 210.33 233.6 218.32 245.24 218.32"/><polygon class="cls-11" points="240.2 211.46 240.72 219.44 239.42 219.44 240.2 211.46"/><path class="cls-7" d="M252.73,217.39l-4.62,6h-17.2l-4.69-7.84A157.09,157.09,0,0,0,252.73,217.39Z"/><polygon class="cls-3" points="355.69 230.79 360.81 222.8 367.33 230.79 355.69 230.79"/><polygon class="cls-12" points="355.69 230.79 360.81 222.8 367.33 230.79 355.69 230.79"/><polygon class="cls-11" points="360.73 223.93 360.2 231.91 361.51 231.91 360.73 223.93"/><path class="cls-7" d="M348.19,229.86l4.63,6H370l4.69-7.84A157.14,157.14,0,0,1,348.19,229.86Z"/><path class="cls-13" d="M285.24,107.4s-.25.86-.59,2.43"/><path class="cls-14" d="M283.43,118c-1.06,11.33-.33,30,11.73,47.1,16.89,24,50.8,37.93,57.4,55.24"/><path class="cls-13" d="M353.56,224.3a14.81,14.81,0,0,1,.11,2.5"/><path class="cls-13" d="M368.18,152.63s-.38.79-1.18,2.2"/><path class="cls-15" d="M362.91,161.26C351.93,177,322.33,209.5,261,218.61"/><path class="cls-13" d="M257.25,219.13l-2.48.31"/><path class="cls-13" d="M195.16,83.82c.28.31.84,1,1.71,1.82"/><path class="cls-16" d="M203.17,90.73c9.39,6.33,27.73,14.23,59.64,11.86"/><path class="cls-13" d="M266.87,102.24l2.48-.26"/><path class="cls-13" d="M240.07,227.26s.44.81,1.07,2.26"/><path class="cls-17" d="M243.75,237.16c2.28,8.83,3.26,22.09-5.91,33.55"/><path class="cls-13" d="M235.14,273.73c-.57.57-1.18,1.15-1.82,1.71"/><path class="cls-13" d="M300.66,101.38s.9.06,2.49.07"/><path class="cls-18" d="M311.9,101.09c13.28-1.15,34.87-5.71,45.3-22.73"/><path class="cls-13" d="M359.27,74.49c.34-.75.67-1.51,1-2.3"/><path class="cls-13" d="M298.64,137.79a21.24,21.24,0,0,1-1,2.29"/><path class="cls-19" d="M293.16,146.6c-4.82,5-13.14,8.47-26.13-.82-21.1-15.11-28.42-34-46.53-30.16"/><path class="cls-13" d="M216.67,116.71c-.76.27-1.53.58-2.33.92"/><path class="cls-13" d="M318.38,241.06s-.88.23-2.39.7"/><path class="cls-20" d="M308.58,244.43c-11.75,4.79-30.07,14.93-31.6,32.05"/><path class="cls-13" d="M276.92,280.42c.05.81.14,1.64.27,2.48"/><path class="cls-13" d="M276.88,77.47s-.93.12-2.49.22"/><path class="cls-21" d="M266.2,77.71c-10.42-.64-25-4.19-26.86-18.8"/><path class="cls-13" d="M239.14,54.82c0-.81.08-1.64.17-2.5"/></g><g id="Backpack"><path class="cls-3" d="M66,299.8a158.25,158.25,0,0,1,13,32.3c4.56,17.25,2,23.34-15.24,18.42v-1.28s9.16,3,12.15,1.28.78-16.29-8-31.3S66,299.8,66,299.8Z"/><path class="cls-22" d="M66,299.8a158.25,158.25,0,0,1,13,32.3c4.56,17.25,2,23.34-15.24,18.42v-1.28s9.16,3,12.15,1.28.78-16.29-8-31.3S66,299.8,66,299.8Z"/><path class="cls-3" d="M62.71,353.84c-2.74,0-7.89-.15-13.68-.31-12.38-.34-27.72-.87-28.9-1-4.56-.57-1.38-14.85,0-24.78s-.69-34,3.8-38.24c1-1,3.94-1.69,7.81-2.14,12.87-1.51,36.42-.16,37.42,3.38C70.46,295.35,71.32,353.93,62.71,353.84Z"/><path class="cls-23" d="M62.71,353.84c-2.74,0-7.89-.15-13.68-.31-12.38-.34-27.72-.87-28.9-1-4.56-.57-1.38-14.85,0-24.78s-.69-34,3.8-38.24c1-1,3.94-1.69,7.81-2.14,12.87-1.51,36.42-.16,37.42,3.38C70.46,295.35,71.32,353.93,62.71,353.84Z"/><path class="cls-24" d="M52.3,352a11.38,11.38,0,0,1-3.27,1.5c-12.38-.34-27.72-.87-28.9-1-4.56-.57-1.38-14.85,0-24.78s-.69-34,3.8-38.24c1-1,3.94-1.69,7.81-2.14,10.35.05,25.2,1.07,26.09,2.69C59.22,292.54,54.89,349.61,52.3,352Z"/><path class="cls-3" d="M19.61,321.76s17.51-3.11,31.58,0c0,0-1.17,24.1-3.14,26.58s-30.19,1.56-31.2,0S15.29,327,19.61,321.76Z"/><path class="cls-3" d="M19.61,321.76c-1.64.18-5.44,9.34-.43,11.94s19.54,3,21.62-1,6.09-11.93,10.39-10.9c0,0,2.32-1.64-11-2.42S19.61,321.76,19.61,321.76Z"/><path class="cls-25" d="M19.61,321.76c-1.64.18-5.44,9.34-.43,11.94s19.54,3,21.62-1,6.09-11.93,10.39-10.9c0,0,2.32-1.64-11-2.42S19.61,321.76,19.61,321.76Z"/><path class="cls-3" d="M59.48,321.33s-.61,20.75-2.43,26.37c0,0,8.22,2.94,11.24.7S70,323.06,70,323.06,67,320.64,59.48,321.33Z"/><path class="cls-24" d="M59.48,321.33s-.61,20.75-2.43,26.37c0,0,8.22,2.94,11.24.7S70,323.06,70,323.06,67,320.64,59.48,321.33Z"/><path class="cls-3" d="M24.37,313.12c.56,1.91,7.09.69,11.85.6s11.24,2.51,13.22.95,5.28-16.6-6.13-20.58S20.3,299.37,24.37,313.12Z"/><path class="cls-26" d="M62.88,290.06c-.75-.1-1.56-.24-2.4-.42C49,287.12,25.11,292,21.21,288.15s-2.33-14.46,3.63-15.21c21.51-2.71,33.48-2.49,40.21-.8s8.27,5,8.82,8.2C74.9,286.28,72.35,291.34,62.88,290.06Z"/><path class="cls-25" d="M62.88,290.06c-7.1-6.58-1.51-15.55,2.17-17.92,6.82,1.72,8.27,5,8.82,8.2C74.9,286.28,72.35,291.34,62.88,290.06Z"/><path class="cls-26" d="M66.09,288.65a.5.5,0,0,0,.09-1A5,5,0,0,1,62,282c.19-2.59,1.82-5.42,4-5.51,3.47-.16,5.27,1.75,5.51,5.82A3.86,3.86,0,0,1,68.85,286c-1.35.4-2.59-.23-3.5-1.78s-1-3.12,0-4a2.87,2.87,0,0,1,3.5-.15c.51.37.72.76.62,1.14a1.51,1.51,0,0,1-1.18,1c-.24,0-.41,0-.49-.16a.49.49,0,0,0-.68-.18.51.51,0,0,0-.19.68,1.43,1.43,0,0,0,1.5.65,2.48,2.48,0,0,0,2-1.71,2,2,0,0,0-1-2.19,3.85,3.85,0,0,0-4.76.21c-1.34,1.21-1.42,3.17-.21,5.25s2.84,2.78,4.65,2.24a4.93,4.93,0,0,0,3.35-4.73c-.34-5.8-3.75-6.86-6.55-6.76s-4.7,3.43-4.92,6.43c-.2,2.77,1,6,5,6.76Z"/><path class="cls-3" d="M48.55,291.91s-2.11-18.69,7.78-21a5.1,5.1,0,0,0-4.87,0c-2.49,1.42-7.79,10.8-4.88,21Z"/><path class="cls-3" d="M37.93,271.54c-2.86.26-9.17,7.68-6.65,20.31H28.74s-4.28-13.39,4.92-20.29c0,0,.67-.81,2.47-.42Z"/><path class="cls-23" d="M48.55,291.91s-2.11-18.69,7.78-21a5.1,5.1,0,0,0-4.87,0c-2.49,1.42-7.79,10.8-4.88,21Z"/><path class="cls-23" d="M37.93,271.54c-2.86.26-9.17,7.68-6.65,20.31H28.74s-4.28-13.39,4.92-20.29c0,0,.67-.81,2.47-.42Z"/></g><g id="Character"><g id="_Group_" data-name="&lt;Group&gt;"><path class="cls-27" d="M110.25,103s22.33-6.67,26.07-7.58,18.21-13.64,21-16.87c0,0,.07-1,1.64-1.94s10.24-2.94,11.52-2S170,81.92,168,82.27s-8,2.46-9,.91c0,0-12.28,14-20.5,18.87S108,116.82,108,116.82Z"/><path class="cls-3" d="M113,117.84s5.87-.67,14.17-7.61l-4-13.27-17,4.56Z"/><path class="cls-28" d="M123.24,97l-17,4.57,5.64,13.61.65,1.56,0,.1.43,1a17.48,17.48,0,0,0,4.52-1.44,39.89,39.89,0,0,0,9.65-6.17Z"/><path class="cls-29" d="M115.45,116s1.24-1.73-.11-2.25-1.47,1.77-1.47,1.77-1.28-1-2-.41l.65,1.56.15,0-.11,0,.43,1a17.48,17.48,0,0,0,4.52-1.44C117.35,115.49,115.45,116,115.45,116Z"/><path class="cls-23" d="M113.64,116.4a.69.69,0,1,1-.09,1.1A.79.79,0,0,1,113.64,116.4Z"/><path class="cls-29" d="M115.92,99.33h0l.31-.46,3.69-1c.28.4.89,1.51,0,2.19-1.16.85-1.61-1.61-1.61-1.61s-1.42,2.4-2.19,1.24A1.22,1.22,0,0,1,115.92,99.33Z"/><path class="cls-29" d="M123,109.51s1.1,1.6-.12,2.35-1.47-1.74-1.47-1.74-1.61,2.28-2.29,1.06,1.2-2.27,1.2-2.27-1.62-.26-1.15-1.26,2.15-.08,2.15-.08-.21-2.29,1.2-2,.42,2.22.42,2.22,2-.88,2.16.22S123,109.51,123,109.51Z"/><path class="cls-23" d="M121.18,108.44a.8.8,0,0,1,1-.36.92.92,0,0,1-1,1.46A.8.8,0,0,1,121.18,108.44Z"/><polygon class="cls-3" points="126.77 111.11 122.67 96.59 124.45 96.17 128.29 109.83 126.77 111.11"/><polygon class="cls-30" points="140.54 343.27 132.27 344.14 128.85 326.26 137.13 325.39 140.54 343.27"/><polygon class="cls-30" points="95.87 344.86 87.77 344.55 85.9 325.85 94.01 326.17 95.87 344.86"/><path class="cls-26" d="M141.28,343.42h-9.85a.71.71,0,0,0-.69.55l-1.6,7.22a1.19,1.19,0,0,0,.92,1.42l.27,0c3.18-.05,5.5-.25,9.51-.25,2.46,0,9.9.26,13.3.26s3.85-3.36,2.46-3.67c-6.25-1.37-11-3.25-13-5.05A2,2,0,0,0,141.28,343.42Z"/><path class="cls-3" d="M141.84,344.54a.19.19,0,0,1-.15-.16.19.19,0,0,1,.1-.19c.28-.19,2.9-1.79,3.8-1.33a.57.57,0,0,1,.33.54,1.13,1.13,0,0,1-.4,1,2.47,2.47,0,0,1-1.56.41A9.43,9.43,0,0,1,141.84,344.54Zm.55-.27a4,4,0,0,0,2.89-.14.79.79,0,0,0,.26-.69c0-.16-.07-.23-.12-.23a.45.45,0,0,0-.25,0A8,8,0,0,0,142.39,344.27Z"/><path class="cls-3" d="M141.79,344.58a.21.21,0,0,1-.1-.17c0-.12.21-2.45,1.15-3.21a1,1,0,0,1,.81-.25.63.63,0,0,1,.62.51c.17.85-1.45,2.64-2.29,3.09h-.09A.19.19,0,0,1,141.79,344.58Zm1.29-3.15a4.47,4.47,0,0,0-1,2.53c.83-.63,1.86-2,1.76-2.5,0,0,0-.2-.28-.2h-.09A.66.66,0,0,0,143.08,341.43Z"/><path class="cls-26" d="M97.05,343.16H87.2a.71.71,0,0,0-.69.56l-1.6,7.22a1.2,1.2,0,0,0,.93,1.41,1.09,1.09,0,0,0,.26,0c3.19-.05,5.51-.25,9.51-.25,2.46,0,9.9.26,13.3.26s3.85-3.36,2.46-3.67c-6.25-1.36-11-3.25-13-5.05A1.94,1.94,0,0,0,97.05,343.16Z"/><path class="cls-3" d="M97.61,344.28a.18.18,0,0,1-.14-.16.17.17,0,0,1,.09-.19c.29-.18,2.91-1.79,3.8-1.33a.57.57,0,0,1,.33.54,1.1,1.1,0,0,1-.4,1,2.38,2.38,0,0,1-1.56.41A9.51,9.51,0,0,1,97.61,344.28Zm.56-.26a4,4,0,0,0,2.88-.15.76.76,0,0,0,.26-.69c0-.15-.07-.23-.12-.23a.43.43,0,0,0-.25-.05A7.7,7.7,0,0,0,98.17,344Z"/><path class="cls-3" d="M97.56,344.32a.17.17,0,0,1-.09-.17c0-.11.2-2.45,1.14-3.21a1.09,1.09,0,0,1,.82-.25.62.62,0,0,1,.61.51c.17.86-1.45,2.64-2.29,3.09h-.09A.12.12,0,0,1,97.56,344.32Zm1.3-3.15a4.52,4.52,0,0,0-1,2.54c.83-.63,1.87-2,1.76-2.51,0-.05,0-.2-.28-.2h-.09A.63.63,0,0,0,98.86,341.17Z"/><polygon class="cls-11" points="137.13 325.39 128.85 326.26 130.62 335.48 138.9 334.61 137.13 325.39"/><polygon class="cls-11" points="94.01 326.18 85.9 325.86 86.87 335.5 94.98 335.82 94.01 326.18"/><path class="cls-26" d="M140.81,332H126s-13.77-55.84-20.14-81.38c-1.44-5.77-3.25-14.35-5.15-24-1.51-7.71-3.09-16.09-4.59-24.24C92.51,233,97.67,329.32,97.67,329.32l-14.38,1.79C70,242.64,68.45,160.83,68.45,160.83h48c.64,5.59,7.46,65.36,11.8,92.62C132.27,278.55,140.81,332,140.81,332Z"/><polygon class="cls-3" points="81.49 332.29 99.44 332.19 99.1 327.14 80.43 326.92 81.49 332.29"/><polygon class="cls-3" points="124.21 332.12 141.71 332.12 141.17 326.94 122.98 326.6 124.21 332.12"/><path class="cls-3" d="M119.08,172h0c-11.88,4-24.76,5-35.18,4.88l-1.9,0-.64,0c-1.17,0-2.3-.07-3.38-.13-4.14-.2-7.64-.55-10.21-.86a1.15,1.15,0,0,0,0-.19,1.21,1.21,0,0,1,0-.19l0-.38c.11-1.95.21-3.88.28-5.78.05-.88.08-1.75.11-2.61s.06-1.71.08-2.55,0-1.69.07-2.52h0c0-.69,0-1.37,0-2,0-.51,0-1,0-1.53,0-1.41,0-2.8,0-4.17,0-.66,0-1.32,0-2,0-.93,0-1.83,0-2.72V149c0-.88,0-1.77,0-2.63,0-.18,0-.35,0-.52,0-.42,0-.83,0-1.24,0-1.24,0-2.46-.08-3.65,0-.87,0-1.73-.08-2.58s-.06-1.86-.09-2.75c0-.22,0-.43,0-.64-.05-1.1-.1-2.18-.14-3.23a.49.49,0,0,1,0-.12c0-.77-.07-1.52-.11-2.25s-.09-1.44-.13-2.15c0-.47,0-1-.08-1.41s-.06-.92-.09-1.38c0-.73-.09-1.44-.15-2.15,0-.34,0-.68-.07-1-.05-.75-.11-1.48-.18-2.17,0-.24,0-.46,0-.69-.13-1.52-.25-2.87-.36-4.08,0-.58-.12-1.13-.16-1.64s-.11-1-.15-1.4a.19.19,0,0,1,0-.08c0-.16,0-.3,0-.44,0-.43-.08-.81-.13-1.14,0-.07,0-.14,0-.2s0-.35-.06-.49a3,3,0,0,1,0-.39,0,0,0,0,1,0,0l0-.24c0-.2,0-.31,0-.31A155.6,155.6,0,0,0,88,103.55c1.57-.12,4.36-.36,7.69-.73,1.29-.14,2.67-.31,4.09-.5.78-.1,1.58-.22,2.38-.34,1.23-.18,2.48-.38,3.71-.6,1.62-.29,3.22-.61,4.73-1l.18.94c.25,1.23.48,2.5.7,3.81.13.72.25,1.44.38,2.19.17,1,.35,2.09.51,3.15,0,.27.08.53.13.8h0l.15,1c.05.34.1.69.16,1s.13.88.19,1.32.16,1.06.23,1.59l.12.82.06.4c0,.13,0,.27,0,.4h0l.15,1.06c0,.4.11.8.16,1.2.1.69.18,1.37.28,2.07.14,1.15.3,2.32.44,3.49.27,2.1.52,4.22.77,6.34l.15,1.3.06.57c.1.8.19,1.59.27,2.39.56,5,1.07,9.93,1.52,14.6,0,.35.06.69.1,1,.18,1.84.34,3.62.51,5.36,0,.27,0,.52.07.78l.12,1.33c0,.5.09,1,.13,1.49s.09,1,.13,1.46a.71.71,0,0,1,0,.14l.06.6c0,.18,0,.37,0,.55s0,.13,0,.2l.09,1c0,.06,0,.12,0,.18s0,.07,0,.11v.08c0,.45.08.89.11,1.32l0,.34c0,.12,0,.23,0,.35a.22.22,0,0,1,0,.11c0,.38.07.77.1,1.15C118.91,169.74,119,170.91,119.08,172Z"/><path class="cls-31" d="M119.08,172h0c-11.88,4-24.76,5-35.18,4.88l-1.9,0-.64,0c-1.17,0-2.3-.07-3.38-.13-4.14-.2-7.64-.55-10.21-.86,0,.37,0,.75-.07,1.11q0-.56.06-1.11a1.11,1.11,0,0,0,0-.19,1.21,1.21,0,0,1,0-.19l0-.38c.11-1.95.21-3.88.28-5.78.05-.88.08-1.75.11-2.61s.06-1.71.08-2.55,0-1.69.07-2.52v-.5c0-.52,0-1,0-1.55s0-1,0-1.53c0-1.41,0-2.8,0-4.17,0-.66,0-1.32,0-2,0-.93,0-1.83,0-2.72V149c0-.88,0-1.77,0-2.63,0-.18,0-.35,0-.52,0-.42,0-.83,0-1.24,0-1.24,0-2.46-.08-3.65,0-.87,0-1.73-.08-2.58s-.06-1.86-.09-2.75c0-.22,0-.43,0-.64-.05-1.1-.1-2.18-.14-3.23a.49.49,0,0,1,0-.12c0-.77-.07-1.52-.11-2.25s-.09-1.44-.13-2.15c0-.47,0-1-.08-1.41s-.06-.92-.09-1.38c0-.73-.09-1.44-.15-2.15,0-.34,0-.68-.07-1-.05-.75-.11-1.48-.18-2.17,0-.24,0-.46,0-.69-.13-1.52-.25-2.87-.36-4.08,0-.58-.12-1.13-.16-1.64s-.11-1-.15-1.4a.19.19,0,0,1,0-.08c0-.16,0-.3,0-.44,0-.43-.09-.81-.13-1.14,0-.07,0-.14,0-.2s0-.35-.06-.49a3,3,0,0,1,0-.39,0,0,0,0,1,0,0l0-.24c0-.2-.05-.31-.05-.31h0A155.6,155.6,0,0,0,88,103.55c1.57-.12,4.36-.36,7.69-.73,1.29-.14,2.67-.31,4.09-.5.78-.1,1.58-.22,2.38-.34,1.23-.18,2.48-.38,3.71-.6,1.62-.29,3.22-.61,4.73-1l.18.94c.25,1.23.48,2.5.7,3.81.13.72.25,1.44.38,2.19.17,1,.35,2.09.51,3.15,0,.27.08.53.13.8h0l.15,1c.05.34.1.69.16,1s.13.88.19,1.32.16,1.06.23,1.59l.12.82.06.4.06.4c0,.35.09.71.14,1.07s.11.8.16,1.2c.1.69.18,1.37.28,2.07.14,1.15.3,2.32.44,3.49.27,2.1.52,4.22.77,6.34l.15,1.3c0,.18,0,.37.07.55h0c.09.8.18,1.6.26,2.4.56,5,1.07,9.93,1.52,14.6,0,.35.06.69.1,1,.18,1.84.34,3.62.51,5.36,0,.27,0,.52.07.78l.12,1.33c0,.5.09,1,.13,1.49s.09,1,.13,1.46a.71.71,0,0,1,0,.14l.06.6c0,.18,0,.37,0,.55s0,.31,0,.46,0,.3,0,.45,0,.31,0,.47,0,.07,0,.11c0,.47.08.94.12,1.39,0,.12,0,.24,0,.35s0,.23,0,.35a.22.22,0,0,1,0,.11c0,.38.07.77.1,1.15C118.91,169.74,119,170.91,119.08,172Z"/><path class="cls-29" d="M115.43,133.94c-.79.76-2.75.53-2.75.53s2.2,3.36-.13,3.71-2.44-3.13-2.44-3.13-2.2,2.56-3.31,1,1.84-3.48,1.84-3.48-2.93-1.78-1.77-3.65,3.56,1.75,3.56,1.75.47-4.42,2.45-3,.25,4,.14,4.17a3.26,3.26,0,0,1,2.19.25c.07.62.14,1.23.22,1.85Z"/><path class="cls-23" d="M112.13,133.07c-.06.78-.59,1.31-1.2,1.18a1.49,1.49,0,0,1-1-1.62c.06-.78.59-1.31,1.2-1.18A1.49,1.49,0,0,1,112.13,133.07Z"/><path class="cls-29" d="M103.87,152.38s-2.93-1.77-1.77-3.65,3.56,1.75,3.56,1.75.47-4.42,2.45-3,.13,4.17.13,4.17,2.56-.58,2.72,1.22-3.06,1.42-3.06,1.42,2.21,3.36-.12,3.71-2.44-3.12-2.44-3.12-2.2,2.55-3.31,1S103.87,152.38,103.87,152.38Z"/><path class="cls-23" d="M107.36,152.91c-.06.78-.6,1.31-1.21,1.18a1.49,1.49,0,0,1-1-1.62c0-.78.59-1.3,1.2-1.18A1.5,1.5,0,0,1,107.36,152.91Z"/><path class="cls-29" d="M118.64,166.56c-.75.58-1.81,1.14-2.48.18-1.11-1.59,1.84-3.48,1.84-3.48s-2.93-1.78-1.77-3.65c.47-.76,1.14-.61,1.78-.17C118.24,162,118.45,164.36,118.64,166.56Z"/><path class="cls-29" d="M83.9,176.86l-1.9,0h-.64c-1.17,0-2.3-.07-3.38-.13a2,2,0,0,1-.39-2.46c1.15-1.88,3.55,1.75,3.55,1.75s.47-4.43,2.46-3C85.18,174.14,84.31,176.12,83.9,176.86Z"/><path class="cls-23" d="M82,176.82h-.64a.87.87,0,0,1,.48,0Z"/><path class="cls-29" d="M76.54,143.19s2.82,1.95,1.51,3.72-3.46-2-3.46-2-.8,4.34-2.69,2.77.18-4.13.18-4.13-2.62.39-2.65-1.39S72.62,141,72.62,141s-2-3.47.4-3.66,2.23,3.27,2.23,3.27,2.41-2.37,3.4-.72S76.54,143.19,76.54,143.19Z"/><path class="cls-23" d="M73.07,142.41c.11-.76.69-1.24,1.3-1.08a1.49,1.49,0,0,1,.88,1.68c-.11.76-.7,1.24-1.3,1.07A1.46,1.46,0,0,1,73.07,142.41Z"/><path class="cls-29" d="M71.37,166.51s1.12,3.12-1.17,3.48-1.65-3.54-1.65-3.54l-.34.22c.06-1.71.11-3.41.14-5.08a7.16,7.16,0,0,1,1.13.94s.61-3.6,2.76-2.21-.26,3.61-.26,3.61,3.63-.06,3.39,1.69S71.37,166.51,71.37,166.51Z"/><path class="cls-23" d="M68.92,163.77a1.34,1.34,0,0,1,1.82.1,1.19,1.19,0,0,1-.35,1.7,1.37,1.37,0,0,1-1.83-.1A1.2,1.2,0,0,1,68.92,163.77Z"/><path class="cls-29" d="M106.63,102.61c-.23,1.76-4,.9-4,.9s1.12,3.11-1.17,3.47-1.65-3.53-1.65-3.53-3.56,2.41-4.14.15a1.92,1.92,0,0,1,0-.78c1.29-.14,2.67-.31,4.09-.5.78-.1,1.58-.22,2.38-.34,1.23-.18,2.48-.38,3.71-.6A1.15,1.15,0,0,1,106.63,102.61Z"/><path class="cls-23" d="M102.11,102a1.32,1.32,0,0,1-.46.58,1.34,1.34,0,0,1-1.82-.1.71.71,0,0,1-.1-.14C100.51,102.22,101.31,102.1,102.11,102Z"/><path class="cls-29" d="M78.57,120.74s1.11,3.12-1.18,3.48-1.64-3.54-1.64-3.54-3.56,2.42-4.14.16,2.89-2.68,2.89-2.68-2.51-1.41-1.35-2.63,3.52,1.23,3.52,1.23.61-3.6,2.76-2.22-.26,3.62-.26,3.62,3.63-.06,3.39,1.69S78.57,120.74,78.57,120.74Z"/><path class="cls-23" d="M76.11,118a1.34,1.34,0,0,1,1.82.1,1.19,1.19,0,0,1-.35,1.7,1.37,1.37,0,0,1-1.83-.1A1.2,1.2,0,0,1,76.11,118Z"/><path class="cls-29" d="M91.34,130.06s.87,2.44-.92,2.72S89.14,130,89.14,130s-2.78,1.89-3.23.12,2.25-2.09,2.25-2.09-2-1.09-1-2.05,2.73,1,2.73,1,.48-2.81,2.16-1.73-.2,2.83-.2,2.83,2.83-.05,2.65,1.31S91.34,130.06,91.34,130.06Z"/><path class="cls-23" d="M89.42,127.93a1,1,0,0,1,1.42.08.92.92,0,0,1-.27,1.32,1.06,1.06,0,0,1-1.43-.08A.93.93,0,0,1,89.42,127.93Z"/><path class="cls-29" d="M113.41,117.91a1.2,1.2,0,0,1-.83.45c-1.79.28-1.28-2.76-1.28-2.76s-2.78,1.89-3.23.12,2.25-2.08,2.25-2.08-1.95-1.1-1-2,2.74,1,2.74,1a4.26,4.26,0,0,1,.42-1.22c.11.68.22,1.37.32,2.06.06.43.13.87.19,1.31C113.11,115.75,113.26,116.82,113.41,117.91Z"/><path class="cls-23" d="M113,114.69a.77.77,0,0,1-.22.22,1.06,1.06,0,0,1-1.42-.07.93.93,0,0,1,.27-1.33,1.16,1.16,0,0,1,1.18-.13C112.82,113.81,112.89,114.25,113,114.69Z"/><path class="cls-29" d="M90.27,159.08s.77,2.16-.82,2.41S88.31,159,88.31,159s-2.46,1.67-2.86.11,2-1.85,2-1.85-1.73-1-.93-1.82,2.43.85,2.43.85.43-2.49,1.91-1.53-.18,2.5-.18,2.5,2.51-.05,2.35,1.16S90.27,159.08,90.27,159.08Z"/><path class="cls-23" d="M88.57,157.18a.94.94,0,0,1,1.26.07.83.83,0,0,1-.25,1.18.94.94,0,0,1-1.26-.07A.83.83,0,0,1,88.57,157.18Z"/><path class="cls-3" d="M100.81,138a.94.94,0,0,1-1.18.84,1.29,1.29,0,0,1-1-1.29.94.94,0,0,1,1.18-.83A1.28,1.28,0,0,1,100.81,138Z"/><path class="cls-3" d="M103.13,162.53a1,1,0,0,1-1.19.84,1.29,1.29,0,0,1-1-1.29.94.94,0,0,1,1.18-.84A1.29,1.29,0,0,1,103.13,162.53Z"/><path class="cls-3" d="M67.77,175.82c0,.37,0,.74-.07,1.11,0-.38,0-.74.06-1.11Z"/><path class="cls-27" d="M97.39,102.05c-1.23,3.19-4.77,7.85-4.77,7.85l-15.44-4.18c6.51-4.38-1.37-16-1.37-16l13.61,1a27.5,27.5,0,0,0,2.35,7.66C94.34,103.32,97.39,102.05,97.39,102.05Z"/><path class="cls-11" d="M91.77,98.32a14.31,14.31,0,0,1-13.68-5.6L88,90.56l1.4.1A27.5,27.5,0,0,0,91.77,98.32Z"/><path class="cls-3" d="M64.09,91.85c-3.17-2.94,17.54-35.06,29-31.07S71.68,98.87,64.09,91.85Z"/><path class="cls-26" d="M82.21,71.36c-2.1,3.12.55,5.91,9.17,8.47,1.27-4.51-2.07-14.36-4.85-15.19S84,68.65,82.21,71.36Z"/><path class="cls-27" d="M95,81.32a0,0,0,0,1,0,0,25.62,25.62,0,0,1,.58,2.87c1,7.7-6.45,14.29-13.9,11l-.08,0c-5-2.27-6.47-6.48-9.63-13.41A10.39,10.39,0,0,1,81.62,67C88.58,67.09,93.26,74.76,95,81.32Z"/><path class="cls-26" d="M83.3,79.62c.22.58.71.93,1.09.78s.5-.72.27-1.3-.7-.93-1.07-.79S83.12,79,83.3,79.62Z"/><path class="cls-26" d="M89.87,77.11c.22.58.71.93,1.08.79s.51-.73.29-1.32-.71-.92-1.09-.78S89.65,76.54,89.87,77.11Z"/><path class="cls-32" d="M87.83,78.21a22.46,22.46,0,0,0,4.65,3.88,3.56,3.56,0,0,1-2.56,1.57Z"/><path class="cls-26" d="M80.72,78.24a.34.34,0,0,1-.24,0,.36.36,0,0,1-.25-.44,3.54,3.54,0,0,1,2.22-2.46.35.35,0,0,1,.45.21v0a.38.38,0,0,1-.24.45h0a2.85,2.85,0,0,0-1.74,2A.41.41,0,0,1,80.72,78.24Z"/><path class="cls-26" d="M92,73.76a.38.38,0,0,1-.39-.08,2.87,2.87,0,0,0-2.49-.8.36.36,0,0,1-.44-.27.37.37,0,0,1,.26-.44,3.64,3.64,0,0,1,3.17,1,.37.37,0,0,1,0,.51h0Z"/><path class="cls-26" d="M80.71,62.88C71.39,62.07,62.28,70,65.36,80.14c1.74,5.71,7.73,11.45,10.45,10.5,1.62-5.87.59-13.48-.69-15.15a5.45,5.45,0,0,1,.24-4.13s7.5-1.23,8.94-2a16.74,16.74,0,0,0,2.5-1.77l2.45,2.16S90.08,63.69,80.71,62.88Z"/><path class="cls-27" d="M70.76,88.7a7.22,7.22,0,0,0,4.76,2.81c2.51.33,3.41-2,2.42-4.19-.89-2-3.29-4.51-5.66-3.84A3.22,3.22,0,0,0,70.76,88.7Z"/><path class="cls-26" d="M90.8,85.87a20,20,0,0,0-.43,2.93l-.52,0c-2.36.18-3.51-.51-4.07-1.34a2.87,2.87,0,0,1-.48-1.35,3.12,3.12,0,0,1,0-.83,11.15,11.15,0,0,0,4.7.6C90.49,85.9,90.8,85.87,90.8,85.87Z"/><path class="cls-7" d="M90,85.92l-.15.86c-2.22.16-3.81,0-4.55-.63a3.12,3.12,0,0,1,0-.83A11.15,11.15,0,0,0,90,85.92Z"/><path class="cls-33" d="M89.85,88.84c-2.36.18-3.51-.51-4.07-1.34a7.73,7.73,0,0,1,2.65.32A2.85,2.85,0,0,1,89.85,88.84Z"/><path class="cls-3" d="M83.22,62,65.63,80.77l-2.06-3.7-2.66-4.79C63.44,59.07,76.38,57,76.38,57L82,61.1Z"/><path class="cls-3" d="M65.56,92.64C63.78,91,74.69,63.42,94,61.26c0,0-2.39-3.5-17.3,3.34A31.52,31.52,0,0,0,65,77.69S62.4,88.1,64.09,91.85Z"/><path class="cls-34" d="M83.22,62a69.81,69.81,0,0,0-6.5,2.64A31.51,31.51,0,0,0,65,77.69s-.12.5-.3,1.32l-1.08-1.94c2.3-4.62,8-13.63,18.46-16Z"/><path class="cls-25" d="M65.56,92.64C63.78,91,74.69,63.42,94,61.26c0,0-2.39-3.5-17.3,3.34A31.52,31.52,0,0,0,65,77.69S62.4,88.1,64.09,91.85Z"/><path class="cls-3" d="M77.85,102.71a43.58,43.58,0,0,0,14,5.82s1.52-6.18.57-9.55l5.39,3s2.28,1.31.74,9.1l-5.95-1.18L90.19,117s-13.63-4.28-16-10.75Z"/><path class="cls-25" d="M77.85,102.71a43.58,43.58,0,0,0,14,5.82s1.52-6.18.57-9.55l5.39,3s2.28,1.31.74,9.1l-5.95-1.18L90.19,117s-13.63-4.28-16-10.75Z"/><path class="cls-3" d="M96.09,110.62a1.07,1.07,0,1,1-1-1.14A1.07,1.07,0,0,1,96.09,110.62Z"/><path class="cls-11" d="M68.3,160.79c.19-8.33.11-16-.1-22.73,1-2.86,1.72-4.72,1.72-4.72S74.57,148.89,68.3,160.79Z"/><path class="cls-27" d="M63.19,149.86c1.41.13,6.38-3.49,9-3.3s4.17-.28,4.65.89-2.14,9.1-2.91,9.23a20.19,20.19,0,0,1-3.74-.45s-4.8,2.19-8.85-1.15S63.19,149.86,63.19,149.86Z"/><path class="cls-27" d="M58.52,120.31S43,140,42.59,146.51s19.71,9.81,19.71,9.81l1.7-4.23s-12.47-6-12.91-7.2,12.8-15.29,12.8-15.29Z"/><path class="cls-3" d="M66.08,108.25s-8.38,5-16.67,21.8L61.2,141.34l6.55-5.47S71.9,111.48,66.08,108.25Z"/><path class="cls-28" d="M67.86,135.21h0l-.11.65-3.46,2.89-3.09,2.58L49.41,130.05a81,81,0,0,1,7.47-12.41,53.21,53.21,0,0,1,4.94-5.8,24.81,24.81,0,0,1,4.26-3.59C71.33,111.16,68.47,131.3,67.86,135.21Z"/><path class="cls-29" d="M61.19,116.33s1.56,2.22-.09,2.72-1.72-2-1.72-2-1.55,2.08-2.33,1a.83.83,0,0,1-.17-.4,53.21,53.21,0,0,1,4.94-5.8c.51,1-.32,2.41-.39,2.53.12,0,1.81-.62,1.92.63S61.19,116.33,61.19,116.33Z"/><path class="cls-23" d="M60.81,115.37c0,.57-.42,1-.85,1a.94.94,0,0,1-.71-1.09c0-.57.42-1,.85-1A.93.93,0,0,1,60.81,115.37Z"/><path class="cls-29" d="M67.86,135.21h0l-.11.65-3.46,2.89c-.5-.3-1.7-1.18-1-2.37.82-1.48,2.52.92,2.52.92s.32-3.26,1.73-2.41A1.37,1.37,0,0,1,67.86,135.21Z"/><path class="cls-29" d="M54.15,128.34s-2.07-1-1.25-2.48,2.52.92,2.52.92.32-3.27,1.73-2.42.09,3,.09,3,1.81-.68,1.92.61S57,129.34,57,129.34s1.56,2.22-.09,2.71-1.72-2-1.72-2-1.56,2.07-2.34,1S54.15,128.34,54.15,128.34Z"/><path class="cls-23" d="M56.61,128.38c0,.57-.42,1-.85,1a.92.92,0,0,1-.7-1.08c0-.57.42-1,.85-1A.93.93,0,0,1,56.61,128.38Z"/><polygon class="cls-3" points="49.34 128.91 62 141.39 60.42 142.85 48.52 131.1 49.34 128.91"/><path class="cls-26" d="M97.79,120a3.23,3.23,0,1,1-3.67-2.71A3.23,3.23,0,0,1,97.79,120Z"/><path class="cls-26" d="M96.63,112.39A3.23,3.23,0,1,1,93,109.68,3.22,3.22,0,0,1,96.63,112.39Z"/><path class="cls-35" d="M92.45,108.61l1.09,7.18a2,2,0,0,0,.32,2.12L94.93,125"/><polygon class="cls-3" points="163.43 72.32 168.66 64.15 175.32 72.32 163.43 72.32"/><polygon class="cls-36" points="163.43 72.32 168.66 64.15 175.32 72.32 163.43 72.32"/><polygon class="cls-11" points="168.58 65.31 168.04 73.47 169.38 73.47 168.58 65.31"/><path class="cls-3" d="M155.76,71.37l4.73,6.1h17.59l4.79-8A161.54,161.54,0,0,1,155.76,71.37Z"/><path class="cls-12" d="M155.76,71.37l4.73,6.1h17.59l4.79-8A161.54,161.54,0,0,1,155.76,71.37Z"/></g></g></g></svg>