<svg xmlns="http://www.w3.org/2000/svg" xmlns:xlink="http://www.w3.org/1999/xlink" viewBox="0 0 306.23 345.54"><defs><style>.cls-1{fill:none;}.cls-2{clip-path:url(#clip-path);}.cls-3{fill:url(#linear-gradient);}</style><clipPath id="clip-path" transform="translate(-0.51)"><rect class="cls-1" width="307" height="345.54"/></clipPath><linearGradient id="linear-gradient" x1="0.51" y1="172.77" x2="306.74" y2="172.77" gradientUnits="userSpaceOnUse"><stop offset="0" stop-color="#766df4"/><stop offset="1" stop-color="#6a9bf4"/></linearGradient></defs><g id="Layer_2" data-name="Layer 2"><g id="Layer_1-2" data-name="Layer 1"><g id="surface1"><g class="cls-2"><path class="cls-3" d="M153.63,0a53.75,53.75,0,1,0,53.72,53.75A53.73,53.73,0,0,0,153.63,0ZM99.89,138.21c-24.94,0-42,17.46-45.57,22.17C40.68,178.47,8.21,231.59,8.21,231.59c-10.82,18.57-10.91,33,4.08,48l39.48,39.53a20.76,20.76,0,0,0,29.39,0A20.47,20.47,0,0,0,86,311.23l2.37,34.31H218.86L221,313.39A20.81,20.81,0,0,0,255,320.22l40-40.61c15-15,14.9-29.45,4.08-48,0,0-32.47-53.12-46.11-71.21-3.57-4.71-20.63-22.17-45.58-22.17h-8l-34.15,81.92,8.12,2.79a4.74,4.74,0,0,1,3.06,6.15l-13.64,36.47a5.17,5.17,0,0,1-6.48,2.94L134,260.84a4.77,4.77,0,0,1-3.08-6.16L143,222.35l-35.2-84.14Zm22.43,0,31.31,74.72,31.17-74.72ZM76.84,207.32l7.7,87.11a22.08,22.08,0,0,0-3.38-4.68L43.92,252.46Zm153.57,0,32.92,45.14-37.75,38.37a19.39,19.39,0,0,0-2.88,3.63Z" transform="translate(-0.51)"/></g></g></g></g></svg>