<svg xmlns="http://www.w3.org/2000/svg" viewBox="0 0 471.3 443.94"><defs><style>.cls-1{fill:#f5f5f5;}.cls-2{fill:#e0e0e0;}.cls-12,.cls-18,.cls-3,.cls-5{fill:#766df4;}.cls-4,.cls-7,.cls-8{fill:#fff;}.cls-4{opacity:0.7;}.cls-10,.cls-5{opacity:0.1;}.cls-6{opacity:0.05;}.cls-12,.cls-7{opacity:0.5;}.cls-26,.cls-8{opacity:0.4;}.cls-9{opacity:0.3;}.cls-11,.cls-18{opacity:0.2;}.cls-13{fill:#454863;}.cls-14{fill:#353b4c;}.cls-15{fill:#ffa8a7;}.cls-16{fill:#f28f8f;}.cls-17,.cls-20{fill:#fafafa;}.cls-17,.cls-21{opacity:0.8;}.cls-19{opacity:0.6;}.cls-22{fill:#263238;}.cls-23,.cls-27{fill:none;stroke-linecap:round;stroke-linejoin:round;stroke-width:0.94px;}.cls-23{stroke:#ebebeb;}.cls-24{fill:#b16668;}.cls-25{fill:#9a4a4d;}.cls-27{stroke:#353b4c;}</style></defs><g id="Layer_2" data-name="Layer 2"><g id="Floor"><ellipse id="Floor-2" data-name="Floor" class="cls-1" cx="235.65" cy="310.18" rx="235.65" ry="133.75"/></g><g id="Shadows"><ellipse id="Shadow" class="cls-2" cx="386.45" cy="332.01" rx="61.46" ry="35.48"/><polygon id="Shadow-2" data-name="Shadow" class="cls-2" points="16.02 290.87 250.48 426.23 359.68 363.19 125.22 227.82 16.02 290.87"/><path id="Shadow-3" data-name="Shadow" class="cls-2" d="M288.9,266.15l-3.57-2.06c-2.43-1.4-2.43-3.67,0-5.07l8-4.6-28.83-16.65-8,4.6a9.7,9.7,0,0,1-8.78,0l-3.57-2.06c-2.43-1.4-2.43-3.67,0-5.07l24.17-14a9.7,9.7,0,0,1,8.78,0l3.57,2.07c2.43,1.4,2.43,3.67,0,5.07l-8.79,5.08,28.83,16.64,8.8-5.08a9.7,9.7,0,0,1,8.78,0l3.57,2.07c2.43,1.4,2.43,3.67,0,5.07l-24.17,13.95A9.7,9.7,0,0,1,288.9,266.15Z"/><ellipse id="Shadow-4" data-name="Shadow" class="cls-2" cx="184.14" cy="232.36" rx="16.38" ry="9.46"/></g><g id="Mat"><g id="Mat-2" data-name="Mat"><polygon class="cls-3" points="16.02 284.98 250.48 420.34 359.68 357.29 125.22 221.93 16.02 284.98"/><polygon class="cls-4" points="16.02 284.98 250.48 420.34 359.68 357.29 125.22 221.93 16.02 284.98"/><path class="cls-5" d="M262.22,370.85c5.13,2.85,8.93,7.69,14.68,9.31a27.43,27.43,0,0,0,17.77-1c2.44-1,4.86-2.5,6-4.86s.63-5.73-1.72-6.93a10.41,10.41,0,0,1-1.81-.87,1.34,1.34,0,0,1-.45-1.75c.51-.67,1.55-.34,2.31,0a23.46,23.46,0,0,0,21.87-1.51c1.86-1.17,3.67-2.82,4-5a6.32,6.32,0,0,0-2.22-5.43c-3-2.79-7.37-3.56-11.2-4.61l-13-3.58c-6.86-1.89-13.43-5.66-19.95-8.59-9.79-4.41-19.83-9-27.33-16.67-5.08-5.19-9-11.79-15.36-15.28-8.64-4.73-19.37-3-28.68-5.45a301.41,301.41,0,0,1-29.08-8.77,313.46,313.46,0,0,1-57.41-28.25,105.58,105.58,0,0,0,10-30.36c-6.37-2.23-12.54,3.28-18.82,5.75C107,239,102,238.91,97.12,238.15l-20.86,12c.87,3.06,2.26,6,3.21,9.1,1.45,4.65,1.61,10.41-2,13.66-2.09,1.87-5,2.48-7.74,3l-11.5,2.27c-3.28.65-7.06,1.68-8.34,4.77-1.56,3.78,1.76,7.81,5.25,10,6.49,4,14.23,5.27,21.39,7.88,16.78,6.12,29.92,19.33,45.55,28a92.09,92.09,0,0,0,35.18,11c12.74,1.3,25.74-.07,38.32,2.38,9.88,1.92,19.94,4.62,29.63,7.54A67.21,67.21,0,0,1,237,354.42c3.38,1.77,6.48,3,9,6.08,1.79,2.26,3.38,4.78,5.81,6.31s5.4,1.87,8.07,2.9A19,19,0,0,1,262.22,370.85Z"/><path class="cls-6" d="M262.22,370.85c5.13,2.85,8.93,7.69,14.68,9.31a27.43,27.43,0,0,0,17.77-1c2.44-1,4.86-2.5,6-4.86s.63-5.73-1.72-6.93a10.41,10.41,0,0,1-1.81-.87,1.34,1.34,0,0,1-.45-1.75c.51-.67,1.55-.34,2.31,0a23.46,23.46,0,0,0,21.87-1.51c1.86-1.17,3.67-2.82,4-5a6.32,6.32,0,0,0-2.22-5.43c-3-2.79-7.37-3.56-11.2-4.61l-13-3.58c-6.86-1.89-13.43-5.66-19.95-8.59-9.79-4.41-19.83-9-27.33-16.67-5.08-5.19-9-11.79-15.36-15.28-8.64-4.73-19.37-3-28.68-5.45a301.41,301.41,0,0,1-29.08-8.77,313.46,313.46,0,0,1-57.41-28.25,105.58,105.58,0,0,0,10-30.36c-6.37-2.23-12.54,3.28-18.82,5.75C107,239,102,238.91,97.12,238.15l-20.86,12c.87,3.06,2.26,6,3.21,9.1,1.45,4.65,1.61,10.41-2,13.66-2.09,1.87-5,2.48-7.74,3l-11.5,2.27c-3.28.65-7.06,1.68-8.34,4.77-1.56,3.78,1.76,7.81,5.25,10,6.49,4,14.23,5.27,21.39,7.88,16.78,6.12,29.92,19.33,45.55,28a92.09,92.09,0,0,0,35.18,11c12.74,1.3,25.74-.07,38.32,2.38,9.88,1.92,19.94,4.62,29.63,7.54A67.21,67.21,0,0,1,237,354.42c3.38,1.77,6.48,3,9,6.08,1.79,2.26,3.38,4.78,5.81,6.31s5.4,1.87,8.07,2.9A19,19,0,0,1,262.22,370.85Z"/><polygon class="cls-3" points="16.02 284.98 16.02 287.1 250.48 422.47 250.48 420.34 16.02 284.98"/><polygon class="cls-7" points="16.02 284.98 16.02 287.1 250.48 422.47 250.48 420.34 16.02 284.98"/><polygon class="cls-3" points="250.48 420.34 359.68 357.29 359.68 359.42 250.48 422.47 250.48 420.34"/><polygon class="cls-8" points="250.48 420.34 359.68 357.29 359.68 359.42 250.48 422.47 250.48 420.34"/></g></g><g id="Water_Bottle" data-name="Water Bottle"><g id="Water"><path class="cls-3" d="M195.67,212.15a27.11,27.11,0,0,0-1.92-5l-.26-.53a10.15,10.15,0,0,1,.14-9.56l.17-.31a10.77,10.77,0,0,0,1.48-5.62,6.65,6.65,0,0,0-3.21-5.32,9.75,9.75,0,0,0-1.49-.72,2.57,2.57,0,0,1-1.62-2.36v-2.92l-9.32,0v2.91a2.57,2.57,0,0,1-1.64,2.35,10.74,10.74,0,0,0-1.49.71,6.6,6.6,0,0,0-3.25,5.29,10.73,10.73,0,0,0,1.43,5.64l.16.29a10.17,10.17,0,0,1,.08,9.57c-.1.18-.18.36-.27.54a26.34,26.34,0,0,0-1.95,4.93,23.69,23.69,0,0,0-.46,5l-.05,13.57c0,1.76,1.15,3.52,3.46,4.87a16.43,16.43,0,0,0,6.74,2,21.07,21.07,0,0,0,3.37,0,16.36,16.36,0,0,0,6.71-1.91c2.33-1.33,3.5-3.09,3.5-4.84l0-9.82c0-1.22,0-2.5.06-3.77A22.92,22.92,0,0,0,195.67,212.15Z"/><path class="cls-9" d="M195.67,212.15a27.11,27.11,0,0,0-1.92-5l-.26-.53a10.15,10.15,0,0,1,.14-9.56l.17-.31a10.77,10.77,0,0,0,1.48-5.62,6.65,6.65,0,0,0-3.21-5.32,9.75,9.75,0,0,0-1.49-.72,2.57,2.57,0,0,1-1.62-2.36v-2.92l-9.32,0v2.91a2.57,2.57,0,0,1-1.64,2.35,10.74,10.74,0,0,0-1.49.71,6.6,6.6,0,0,0-3.25,5.29,10.73,10.73,0,0,0,1.43,5.64l.16.29a10.17,10.17,0,0,1,.08,9.57c-.1.18-.18.36-.27.54a26.34,26.34,0,0,0-1.95,4.93,23.69,23.69,0,0,0-.46,5l-.05,13.57c0,1.76,1.15,3.52,3.46,4.87a16.43,16.43,0,0,0,6.74,2,21.07,21.07,0,0,0,3.37,0,16.36,16.36,0,0,0,6.71-1.91c2.33-1.33,3.5-3.09,3.5-4.84l0-9.82c0-1.22,0-2.5.06-3.77A22.92,22.92,0,0,0,195.67,212.15Z"/><path class="cls-10" d="M193.63,197.11l.17-.31a10.71,10.71,0,0,0,1.45-4.76,8.9,8.9,0,0,1-.89,1.93,18,18,0,0,1-4.2,4.38c-1.59,1.31-3.37,2.79-3.57,4.84s1.21,3.8,2.8,5,3.46,2,4.9,3.43a12.24,12.24,0,0,1,1.62,2,14.65,14.65,0,0,0-.24-1.5,27.11,27.11,0,0,0-1.92-5l-.26-.53A10.15,10.15,0,0,1,193.63,197.11Z"/><path class="cls-3" d="M178.07,183.08v1.57a3.15,3.15,0,0,0,1.84,2.6,9.92,9.92,0,0,0,9,0,4.08,4.08,0,0,0,1.39-1.2,2.39,2.39,0,0,0,.47-1.37v-1.59a1.54,1.54,0,0,0-.05-.43,3.4,3.4,0,0,0-1.79-2.17.31.31,0,0,0-.1-.05,9.9,9.9,0,0,0-8.86,0,3.39,3.39,0,0,0-1.82,2.15A2.12,2.12,0,0,0,178.07,183.08Z"/><path class="cls-10" d="M178.07,183.08v1.57a3.15,3.15,0,0,0,1.84,2.6,9.92,9.92,0,0,0,9,0,4.08,4.08,0,0,0,1.39-1.2,2.39,2.39,0,0,0,.47-1.37v-1.59a1.54,1.54,0,0,0-.05-.43,3.4,3.4,0,0,0-1.79-2.17.31.31,0,0,0-.1-.05,9.9,9.9,0,0,0-8.86,0,3.39,3.39,0,0,0-1.82,2.15A2.12,2.12,0,0,0,178.07,183.08Z"/><path class="cls-11" d="M188.87,185.69c2.48-1.42,2.49-3.73,0-5.17a9.87,9.87,0,0,0-8.95,0c-2.48,1.41-2.49,3.73,0,5.17A9.9,9.9,0,0,0,188.87,185.69Z"/><path class="cls-3" d="M178.08,181.25v.94a2.28,2.28,0,0,0,0,.45,3.43,3.43,0,0,0,1.8,2.16,8.93,8.93,0,0,0,4,1.07,9.35,9.35,0,0,0,5-1,4.18,4.18,0,0,0,1.39-1.2,2.32,2.32,0,0,0,.42-.94,1.58,1.58,0,0,0,.05-.43v-1a3.12,3.12,0,0,0-1.84-2.6l-.33-.18a9.94,9.94,0,0,0-8.62.15A3.14,3.14,0,0,0,178.08,181.25Z"/><path class="cls-10" d="M178.08,181.25v.94a2.28,2.28,0,0,0,0,.45,3.43,3.43,0,0,0,1.8,2.16,8.93,8.93,0,0,0,4,1.07,9.35,9.35,0,0,0,5-1,4.18,4.18,0,0,0,1.39-1.2,2.32,2.32,0,0,0,.42-.94,1.58,1.58,0,0,0,.05-.43v-1a3.12,3.12,0,0,0-1.84-2.6l-.33-.18a9.94,9.94,0,0,0-8.62.15A3.14,3.14,0,0,0,178.08,181.25Z"/><path class="cls-3" d="M178.08,181.22c0,2,2.82,3.65,6.32,3.66s6.34-1.6,6.34-3.61-2.82-3.65-6.31-3.67S178.09,179.21,178.08,181.22Z"/><path class="cls-3" d="M182.23,177.48v3.28a.44.44,0,0,0,0,.16,1.18,1.18,0,0,0,.62.75,3.16,3.16,0,0,0,1.37.37,3.27,3.27,0,0,0,1.73-.36,1.61,1.61,0,0,0,.49-.42.83.83,0,0,0,.14-.32.77.77,0,0,0,0-.15V177.5a1.09,1.09,0,0,0-.64-.9.39.39,0,0,0-.11-.06,3.44,3.44,0,0,0-3,.05A1.09,1.09,0,0,0,182.23,177.48Z"/><path class="cls-10" d="M182.23,177.48v3.28a.44.44,0,0,0,0,.16,1.18,1.18,0,0,0,.62.75,3.16,3.16,0,0,0,1.37.37,3.27,3.27,0,0,0,1.73-.36,1.61,1.61,0,0,0,.49-.42.83.83,0,0,0,.14-.32.77.77,0,0,0,0-.15V177.5a1.09,1.09,0,0,0-.64-.9.39.39,0,0,0-.11-.06,3.44,3.44,0,0,0-3,.05A1.09,1.09,0,0,0,182.23,177.48Z"/><path class="cls-3" d="M182.23,177.47c0,.7,1,1.27,2.19,1.27s2.2-.55,2.2-1.25-1-1.27-2.19-1.27S182.24,176.78,182.23,177.47Z"/><path class="cls-12" d="M183.65,177.48c0,.25.35.45.78.45s.77-.2.78-.45-.35-.44-.78-.45S183.65,177.23,183.65,177.48Z"/><path class="cls-9" d="M183.65,177.48c0,.25.35.45.78.45s.77-.2.78-.45-.35-.44-.78-.45S183.65,177.23,183.65,177.48Z"/></g></g><g id="Dumbbell"><g id="Dumbbell-2" data-name="Dumbbell"><path class="cls-13" d="M274.21,208.13h0c-1.9-6.22-9.67-11.35-16.93-9.32h0A13.64,13.64,0,0,0,254,200.2c-7,4.07-12.75,14-12.75,22.08a13.4,13.4,0,0,0,.57,4h0c1.9,6.21,9.66,11.32,16.92,9.29h0a13.75,13.75,0,0,0,3.26-1.39c7-4.06,12.75-14,12.75-22.08A13.51,13.51,0,0,0,274.21,208.13Z"/><path class="cls-14" d="M262,234.21c7-4.06,12.75-14,12.75-22.08s-5.71-11.42-12.75-7.36-12.75,13.94-12.75,22.07S255,238.27,262,234.21Z"/><path class="cls-13" d="M262,213.78c2.71-1.56,4.9-.29,4.9,2.84a10.85,10.85,0,0,1-4.9,8.49c-2.71,1.56-4.9.29-4.9-2.83A10.85,10.85,0,0,1,262,213.78Z"/><path class="cls-14" d="M263.7,218.48a3.72,3.72,0,0,1-1.68,2.91,1.21,1.21,0,0,1-1.12.15.57.57,0,0,1-.13-.08,1.22,1.22,0,0,1-.43-1.05A3.76,3.76,0,0,1,262,217.5a1.21,1.21,0,0,1,1.12-.15l.13.08A1.2,1.2,0,0,1,263.7,218.48Z"/><path class="cls-3" d="M290.63,234a3.72,3.72,0,0,1-1.68,2.91,1.41,1.41,0,0,1-.73.22,1,1,0,0,1-.56-.16L260.9,221.54a.57.57,0,0,1-.13-.08,1.22,1.22,0,0,1-.43-1.05A3.76,3.76,0,0,1,262,217.5a1.21,1.21,0,0,1,1.12-.15l.13.08L290,232.88A1.17,1.17,0,0,1,290.63,234Z"/><path class="cls-13" d="M316.9,232.77h0c-1.9-6.21-9.66-11.35-16.92-9.32h0a14.3,14.3,0,0,0-3.27,1.4c-7,4.06-12.74,13.94-12.74,22.08a13.33,13.33,0,0,0,.57,4h0c1.9,6.21,9.67,11.32,16.93,9.29h0a14.11,14.11,0,0,0,3.27-1.4c7-4.06,12.74-14,12.74-22.07A13.21,13.21,0,0,0,316.9,232.77Z"/><path class="cls-14" d="M304.72,258.85c7-4.06,12.74-14,12.74-22.07s-5.7-11.43-12.74-7.37S292,243.36,292,251.49,297.68,262.92,304.72,258.85Z"/><path class="cls-13" d="M304.72,238.43c2.7-1.57,4.9-.3,4.9,2.83a10.86,10.86,0,0,1-4.9,8.49c-2.71,1.56-4.91.3-4.91-2.83A10.82,10.82,0,0,1,304.72,238.43Z"/><path class="cls-14" d="M306.39,243.12a3.71,3.71,0,0,1-1.67,2.91,1.23,1.23,0,0,1-1.13.15l-.12-.07a1.25,1.25,0,0,1-.43-1.05,3.72,3.72,0,0,1,1.68-2.91,1.21,1.21,0,0,1,1.12-.15l.12.07A1.22,1.22,0,0,1,306.39,243.12Z"/><path class="cls-3" d="M310.45,245.46a3.71,3.71,0,0,1-1.67,2.91,1.41,1.41,0,0,1-.73.22,1,1,0,0,1-.56-.16l-3.9-2.25-.12-.07a1.25,1.25,0,0,1-.43-1.05,3.72,3.72,0,0,1,1.68-2.91,1.21,1.21,0,0,1,1.12-.15l.12.07,3.9,2.25A1.16,1.16,0,0,1,310.45,245.46Z"/><path class="cls-11" d="M310.45,245.45a3.71,3.71,0,0,1-1.67,2.91,1.2,1.2,0,0,1-1.13.15l-.12-.07a1.22,1.22,0,0,1-.43-1.05,3.72,3.72,0,0,1,1.68-2.91,1.21,1.21,0,0,1,1.12-.15l.12.07A1.22,1.22,0,0,1,310.45,245.45Z"/></g></g><g id="Character_2" data-name="Character 2"><g id="Character"><path class="cls-15" d="M363.5,72.45c-4.77,7.76-13.69,26.23-16.42,30.13-4.38-5.07-13.19-16.22-15.15-18.47-2.48-2.86-10.24-7.45-10.24-7.45l-2.64,11.66s17.06,26.77,22.18,31.88c3.25,3.24,7,5.31,14.63-2.77,7.12-7.53,24-30,24-30l.49-26.75C372.18,60.1,369.67,62.41,363.5,72.45Z"/><path class="cls-16" d="M347.08,102.58c1.83,2,3.95,5,4.53,6.71a16.2,16.2,0,0,0-3.39-8.55Z"/><path class="cls-14" d="M318.1,63.76l-6.84-3.95V97.45a4,4,0,0,1-1.37,2.37l6.84,4a4,4,0,0,0,1.37-2.37Z"/><path class="cls-15" d="M311.26,75s-1.93.5-2.61,3.53-.92,8.78.84,10.63,4.15,2.64,5.7,1.92c2.91-1.33,1.89-7.27-.49-8.59-3.8-2.11-3.4-4.54-3.4-4.54Z"/><path class="cls-13" d="M326.41,63.7l-2.88,3.67v25.7l3.12,5-9.93,5.74a3.69,3.69,0,0,0,1.37-2.37V68.49Z"/><polygon class="cls-3" points="326.66 98.03 326.66 99.61 316.73 105.34 316.73 103.77 326.66 98.03"/><polygon class="cls-3" points="316.73 105.34 309.89 101.4 309.89 99.82 316.73 103.77 316.73 105.34"/><polygon class="cls-10" points="316.73 105.34 309.89 101.4 309.89 99.82 316.73 103.77 316.73 105.34"/><path class="cls-3" d="M318.41,47.15h0c1.17-.69,2.78-.61,4.57.43l.07,0a14.17,14.17,0,0,1,6.4,11.09v.08c0,2.11-.77,3.57-2,4.21h0L322.27,66,313.63,50Z"/><path class="cls-17" d="M318.41,47.15h0c1.17-.69,2.78-.61,4.57.43l.07,0a14.17,14.17,0,0,1,6.4,11.09v.08c0,2.11-.77,3.57-2,4.21h0L322.27,66,313.63,50Z"/><path class="cls-18" d="M327.44,63h0L322.27,66l-2.87-5.33,9.45-5.45a11.17,11.17,0,0,1,.6,3.44v.08C329.45,60.89,328.68,62.35,327.44,63Z"/><path class="cls-3" d="M307.24,51.08h0c1.31-.76,3.08-.73,5,.23q.32.15.63.33c.25.15.49.3.73.47a12.28,12.28,0,0,1,1.18.9,16.42,16.42,0,0,1,2,2,19.46,19.46,0,0,1,3.62,6.88,13.87,13.87,0,0,1,.53,3.64c0,2.5-.86,4.27-2.25,5.13l4.94-2.85h0a6.38,6.38,0,0,0,2.91-5.51,13.32,13.32,0,0,0-.49-3.47,19.34,19.34,0,0,0-3.66-7.05,16.39,16.39,0,0,0-2-2,12.17,12.17,0,0,0-1.17-.9c-.24-.17-.49-.32-.73-.46a5.54,5.54,0,0,0-.64-.33,6.35,6.35,0,0,0-5.6.09h0l-.14.08-.17.1Z"/><path class="cls-10" d="M323.63,67.84h0a6.38,6.38,0,0,0,2.91-5.51,13.32,13.32,0,0,0-.49-3.47l-5.64,3.07a13.87,13.87,0,0,1,.53,3.64c0,2.5-.86,4.27-2.25,5.13Z"/><path class="cls-3" d="M304.88,56.29a17.72,17.72,0,0,0,8,13.9c2.23,1.29,4.25,1.41,5.7.55l.08,0c1.39-.86,2.25-2.63,2.25-5.13,0-5.12-3.6-11.35-8-13.91-2.21-1.27-4.22-1.4-5.67-.56S304.88,53.72,304.88,56.29Z"/><path class="cls-11" d="M304.88,56.29a17.72,17.72,0,0,0,8,13.9c2.23,1.29,4.25,1.41,5.7.55l.08,0c1.39-.86,2.25-2.63,2.25-5.13,0-5.12-3.6-11.35-8-13.91-2.21-1.27-4.22-1.4-5.67-.56S304.88,53.72,304.88,56.29Z"/><path class="cls-3" d="M280.26,55s8.1,4.16,15,16.14a54.43,54.43,0,0,1,3.28,6.68c3.48,8.53,3.19,14.4,3.19,14.4,2.41-5.92,5.41-12,10.42-16.73a75.25,75.25,0,0,1,6.16-5.14h0c1.33-.77,2.1-2.44,2.1-4.74a13.92,13.92,0,0,0-.9-4.72,19.12,19.12,0,0,0-1.38-2.94,15.84,15.84,0,0,0-5.49-5.8c-2-1.15-3.83-1.32-5.15-.55h0A77.63,77.63,0,0,1,300,54.3C293.39,56.29,286.59,55.83,280.26,55Z"/><path class="cls-17" d="M280.26,55s8.1,4.16,15,16.14a54.43,54.43,0,0,1,3.28,6.68c3.48,8.53,3.19,14.4,3.19,14.4,2.41-5.92,5.41-12,10.42-16.73a75.25,75.25,0,0,1,6.16-5.14h0c1.33-.77,2.1-2.44,2.1-4.74a13.92,13.92,0,0,0-.9-4.72,19.12,19.12,0,0,0-1.38-2.94,15.84,15.84,0,0,0-5.49-5.8c-2-1.15-3.83-1.32-5.15-.55h0A77.63,77.63,0,0,1,300,54.3C293.39,56.29,286.59,55.83,280.26,55Z"/><path class="cls-18" d="M298.56,77.78c3.48,8.53,3.19,14.4,3.19,14.4,2.41-5.92,5.41-12,10.42-16.73a75.25,75.25,0,0,1,6.16-5.14h0c1.33-.77,2.1-2.44,2.1-4.74a13.92,13.92,0,0,0-.9-4.72C313.38,63.92,303.45,69.58,298.56,77.78Z"/><path class="cls-3" d="M265,66.52a37.66,37.66,0,0,0,4.39,16.58h0c3.5,6.91,8.8,13.08,14.72,16.5,10.55,6.09,19.11,1.15,19.11-11A32.27,32.27,0,0,0,302,79.94a45.45,45.45,0,0,0-11.57-19.61c-.75-.74-1.52-1.43-2.3-2.08-.33-.27-.66-.53-1-.78h0c-.48-.36-.95-.7-1.44-1s-1-.65-1.53-.95C273.56,49.4,265,54.34,265,66.52Z"/><path class="cls-10" d="M269.39,83.11c3.5,6.91,8.8,13.08,14.72,16.5,10.55,6.09,19.11,1.15,19.11-11A32.27,32.27,0,0,0,302,79.94h0c-.71,1.58-3.28,3.83-4.43,2.25a29.19,29.19,0,0,1,1.11,7.66c0,3.5-.78,6.33-2.25,8.18a6.25,6.25,0,0,1-5.15,2.37,14.53,14.53,0,0,1-7-2.21c-5-2.91-9.67-8.14-13-14.06C271.24,84.13,270.59,84.69,269.39,83.11Z"/><path class="cls-3" d="M266.31,67.2c0,5.38,1.89,11.45,4.93,16.93,3.29,5.92,7.92,11.15,13,14.06a14.53,14.53,0,0,0,7,2.21A6.25,6.25,0,0,0,296.38,98c1.47-1.85,2.25-4.68,2.25-8.18a29.19,29.19,0,0,0-1.11-7.66c-.27-1-.58-2-.94-3a42.74,42.74,0,0,0-2.26-5.11c-.17-.35-.36-.69-.54-1-.31-.57-.63-1.13-1-1.67a42.19,42.19,0,0,0-3.77-5.3l-.05-.06A37.88,37.88,0,0,0,286.15,63c-.71-.68-1.43-1.31-2.18-1.91l-.93-.72-1.16-.8c-.37-.24-.75-.47-1.13-.7a14.6,14.6,0,0,0-7-2.21C269.08,56.66,266.31,60.6,266.31,67.2Z"/><path class="cls-9" d="M266.31,67.2c0,5.38,1.89,11.45,4.93,16.93,3.29,5.92,7.92,11.15,13,14.06a14.53,14.53,0,0,0,7,2.21A6.25,6.25,0,0,0,296.38,98c1.47-1.85,2.25-4.68,2.25-8.18a29.19,29.19,0,0,0-1.11-7.66c-.27-1-.58-2-.94-3a42.74,42.74,0,0,0-2.26-5.11c-.17-.35-.36-.69-.54-1-.31-.57-.63-1.13-1-1.67a42.19,42.19,0,0,0-3.77-5.3l-.05-.06A37.88,37.88,0,0,0,286.15,63c-.71-.68-1.43-1.31-2.18-1.91l-.93-.72-1.16-.8c-.37-.24-.75-.47-1.13-.7a14.6,14.6,0,0,0-7-2.21C269.08,56.66,266.31,60.6,266.31,67.2Z"/><path class="cls-3" d="M282.55,70.2l6.7,12.51a79.89,79.89,0,0,1,7.67-2.5c-.11-.33-.22-.66-.34-1a42.74,42.74,0,0,0-2.26-5.11q-.27-.52-.54-1c-.31-.56-.63-1.12-1-1.67a42.94,42.94,0,0,0-3.77-5.3l-.05-.06-.61-.71A43.29,43.29,0,0,1,282.55,70.2Z"/><g class="cls-19"><path class="cls-20" d="M282.55,70.2l6.7,12.51a79.89,79.89,0,0,1,7.67-2.5c-.11-.33-.22-.66-.34-1a42.74,42.74,0,0,0-2.26-5.11q-.27-.52-.54-1c-.31-.56-.63-1.12-1-1.67a42.94,42.94,0,0,0-3.77-5.3l-.05-.06-.61-.71A43.29,43.29,0,0,1,282.55,70.2Z"/></g><path class="cls-3" d="M288.69,82.68c1.52,0,2.42-1.23,2.42-3.28v-.06a11.19,11.19,0,0,0-5.06-8.76l-.05,0a4.37,4.37,0,0,0-2.12-.65c-1.51,0-2.42,1.22-2.42,3.27v.06A11.2,11.2,0,0,0,286.52,82l.06,0a4.33,4.33,0,0,0,2.11.66Z"/><g class="cls-21"><path class="cls-20" d="M288.69,82.68c1.52,0,2.42-1.23,2.42-3.28v-.06a11.19,11.19,0,0,0-5.06-8.76l-.05,0a4.37,4.37,0,0,0-2.12-.65c-1.51,0-2.42,1.22-2.42,3.27v.06A11.2,11.2,0,0,0,286.52,82l.06,0a4.33,4.33,0,0,0,2.11.66Z"/></g><path class="cls-2" d="M281.46,47.43A1.51,1.51,0,0,0,283,45.92V31.34a1.51,1.51,0,0,0-3,0V45.92A1.51,1.51,0,0,0,281.46,47.43Z"/><path class="cls-2" d="M294.73,51a1.5,1.5,0,0,0,1.3-.75l7.29-12.63a1.51,1.51,0,1,0-2.61-1.5l-7.29,12.62a1.52,1.52,0,0,0,.55,2.06A1.49,1.49,0,0,0,294.73,51Z"/><path class="cls-2" d="M308.53,121.23a1.59,1.59,0,0,0,.75-.2,1.51,1.51,0,0,0,.55-2.06l-7.29-12.63a1.51,1.51,0,0,0-2.61,1.51l7.29,12.63A1.51,1.51,0,0,0,308.53,121.23Z"/><path class="cls-2" d="M281.46,123.18a1.5,1.5,0,0,0,1.51-1.51V107.1a1.51,1.51,0,1,0-3,0v14.57A1.5,1.5,0,0,0,281.46,123.18Z"/><path class="cls-2" d="M260.91,109.55a1.52,1.52,0,0,0,1.31-.75l7.28-12.62a1.51,1.51,0,1,0-2.61-1.51l-7.29,12.62a1.51,1.51,0,0,0,.56,2.06A1.43,1.43,0,0,0,260.91,109.55Z"/><path class="cls-2" d="M245.87,94.51a1.59,1.59,0,0,0,.75-.2L259.24,87a1.51,1.51,0,1,0-1.51-2.61L245.11,91.7a1.51,1.51,0,0,0,.76,2.81Z"/><path class="cls-2" d="M240.36,74h14.57a1.51,1.51,0,0,0,0-3H240.36a1.51,1.51,0,0,0,0,3Z"/><path class="cls-2" d="M258.49,60.69a1.51,1.51,0,0,0,.75-2.81l-12.62-7.29a1.51,1.51,0,1,0-1.51,2.61l12.62,7.29A1.49,1.49,0,0,0,258.49,60.69Z"/><path class="cls-2" d="M268.2,51a1.43,1.43,0,0,0,.75-.2,1.51,1.51,0,0,0,.55-2.06L262.22,36.1a1.51,1.51,0,1,0-2.62,1.5l7.29,12.63A1.52,1.52,0,0,0,268.2,51Z"/><path class="cls-15" d="M331.93,84.11c-2.95-3.58-3.11-5.86-5.39-7.6s-4.53-1.81-7.85-.78c-2.5.78-5.45.48-6.45,1.43-.29.2.2,1.81,1.39,2.36,1.44.67,3.73.45,5.42.42,3.85-.06.77,3.79,4.57,7.55C325.25,90.2,331.93,84.11,331.93,84.11Z"/><path class="cls-22" d="M402.38,55c1.43-4.41,6.6-9.8,10.34-14.72,4.25-5.58,8.07-16.95-.13-24.4,0,0,.56-12.94-12.62-15.36-11.69-2.14-21.85,3.77-34.21,2.09-6.05-.82-8.81,6.09-2.26,12.7,0,0-4.54,4.74-2,10.27s10.51,4.64,10.51,4.64Z"/><path class="cls-22" d="M409.52,14.55a5.23,5.23,0,0,1,1.27-1.3A9.09,9.09,0,0,1,415,11.84a17.55,17.55,0,0,1,14.77,4.93c3.56,3.76,5,9.11,5.15,14.28s-.79,10.31-1.35,15.45a43.69,43.69,0,0,0-.08,10.78c.43,3,1.45,6.77,3.5,9.15,1.33,1.55,3.47,2.82,3.42,5.06s-2.07,3.4-4.13,3.73c-5.92,1-12.36-1.92-16-6.54-.2-.24-.38-.49-.56-.74-3.2-4.51-3.33-9.61-3.31-14.91,0-5.74,1.61-11.3,2.6-16.91A60.42,60.42,0,0,0,420,27.55c.06-1.83.07-4.09-1.05-5.65a5.72,5.72,0,0,0-5.37-2.37,6.06,6.06,0,0,1-2.64.18A3.12,3.12,0,0,1,408.81,17,3.92,3.92,0,0,1,409.52,14.55Z"/><path class="cls-15" d="M405.47,269.58l21.2-.39c-.31,14.16-2.56,29.88-2.93,43.16-.07,2.5.06,19.43-.88,24.57-1.42,7.73-10.59,6.69-11.08,2.06s.59-24.39.56-26.42c.08-8.52-3.91-22.9-6-38.2C406.24,273.61,405.56,270.31,405.47,269.58Z"/><path class="cls-22" d="M408.32,342.2c-.19,4.55.21,7.61,1.55,10.42s4.28,3.95,7.42,3.48,7.26-2.15,8.53-6,1.36-6.49,1.09-10.75Z"/><path class="cls-13" d="M423.8,310.73c1.25.22,1,6.32,1.13,12.47.12,6.58,1.79,9.47,1.95,14.88.19,6.17-.41,8.86-2.92,12.34s-10.43,6.32-13.62.67c-2.61-4.61-2.25-9.4-1.36-15.46a153.57,153.57,0,0,0,1.83-15.46c.22-4.59.35-9.05,1.49-9.44,0,.68,0,1.53,0,2.2,0,.51-.1,3,.6,3.09a9.74,9.74,0,0,0,.19-1.72,2.06,2.06,0,0,1,.49-1.43,2.34,2.34,0,0,1,1.46-.49,37.4,37.4,0,0,1,3.81-.2c.64,0,1.27,0,1.9.11a5.09,5.09,0,0,1,1.58.39,1.14,1.14,0,0,1,.62.69,1.84,1.84,0,0,1,0,.7,4.92,4.92,0,0,0,0,1.27c0,.18.13.41.31.39s.23-.2.24-.35c.08-.74,0-1.28.09-2.14,0-.4,0-.94,0-1.34S423.78,311.12,423.8,310.73Z"/><path class="cls-14" d="M426.77,336.31c0,.9.19,6.79-1.5,7.68s-2.31-3.71-2.31-3.71-3.9-1.63-10,.34c.21,1-1,4-2.55,3.18s-1.49-7.56-1.49-7.64c-.83,5.81-1.09,10.45,1.44,14.93,3.19,5.65,11.12,2.8,13.62-.67s3.11-6.17,2.92-12.34C426.86,337.46,426.82,336.88,426.77,336.31Z"/><path class="cls-22" d="M422.46,340.63c-.19,2.2,2.06,1.68,2.46-1.42s-.55-10.66,0-16c-.12-6.15.12-12.25-1.14-12.47,0,.07,0,.15,0,.22l-.14,3.1c0,.45,0,.85-.07,1.33-.42,4.5-.66,13.25-.68,17.4A72.38,72.38,0,0,1,422.46,340.63Z"/><path class="cls-22" d="M413.63,340.63a70.45,70.45,0,0,1-.42-7.85c0-4.12-.27-12.77-.68-17.3a11.39,11.39,0,0,1-.19-2.55c0-.62,0-1.41,0-2.06a.66.66,0,0,1,0-.14c-.83.3-1.13,2.74-1.31,5.8,0,1.78,0,4,.18,6.67.55,5.35-.42,12.95,0,16.05S413.83,342.83,413.63,340.63Z"/><path class="cls-15" d="M366.28,297.56c.15-4.38-2.78-45.1-2.78-45.1l20.07,12.71c-4.31,25.75-5.23,31.82-5.31,36h0a3.68,3.68,0,0,1,.11,1.08c0,5-5.66,7.69-10.06,11a82.11,82.11,0,0,1-11.91,7.77c-3.2,1.61-9.69,1.76-10.5-.3,5.36-4.09,13.15-10.22,17.41-14.89C365.35,303.66,366.12,301.94,366.28,297.56Z"/><path class="cls-22" d="M336.77,326.16c-.28,0-.6,2.74.89,4,1.72,1.49,6.69,4.05,13.37,3.18s10.3-2.76,13-5,6.42-5.4,9.44-6.06c2.81-.62,5.86-1.9,6.76-2.76s.77-4.73.77-4.73Z"/><path class="cls-13" d="M378.3,300a1.08,1.08,0,0,1,1,.91c.2,1.06.42,4.15.87,5.9a31.17,31.17,0,0,1,.65,9.37c-.36,2-4.94,3.35-7.86,4.46a37.27,37.27,0,0,0-9.48,6c-3.14,2.59-9.74,5.28-14.1,5.25-5.15,0-10.95-1.71-12.28-4.1-1.64-2.95-.35-4.66,7.29-8.2,1.44-.67,6.52-3.68,8.25-4.77,4.69-2.95,9.32-7,11.48-12.27a2.87,2.87,0,0,1,1.1-1.6,2.48,2.48,0,0,1,1.48-.13,12.83,12.83,0,0,1,3.68,1.11c1,.49,2.48,1.06,2.46,2.37a4.34,4.34,0,0,1-.29,1.33c-.09.27-.17.63.07.79s.51,0,.71-.2a20.28,20.28,0,0,0,2.06-2.47,7.89,7.89,0,0,1,1.21-1.24,13.32,13.32,0,0,0,1.31-.84C378.39,301.16,378.28,300.59,378.3,300Z"/><path class="cls-14" d="M363.5,326.6a51.86,51.86,0,0,1,4.17-3.11h0s-9,5.46-12.61,3c-2.34-1.59-1.23-3.53-1.17-4.15s-5.72-3.28-8-3.55h0c-.63.35-1.16.63-1.49.79-7.64,3.54-8.93,5.25-7.29,8.2,1.33,2.39,5.53,4.26,12.19,4.26C353.67,332,360.36,329.19,363.5,326.6Z"/><path class="cls-22" d="M354.51,320.5c-4.75,1.9-2.72,2.78-1.39,3s9.32-4.48,14.2-8.33c5.09-4,8.29-8.43,10.18-9.91.71-.55,1.46-1.22,2.14-1.86-.13-1-.23-2-.32-2.49a1.08,1.08,0,0,0-1-.91c0,.62.09,1.19-.37,1.66a13.32,13.32,0,0,1-1.31.84,7.89,7.89,0,0,0-1.21,1.24,20.28,20.28,0,0,1-2.06,2.47C369.21,311.44,359.26,318.6,354.51,320.5Z"/><path class="cls-23" d="M353.46,322.31a10.87,10.87,0,0,0-8.29-3.27"/><path class="cls-23" d="M357.6,319.76a10.83,10.83,0,0,0-8.29-3.26"/><path class="cls-23" d="M361.74,317.34a10.85,10.85,0,0,0-8.28-3.26"/><path class="cls-23" d="M365.58,314.58a10.85,10.85,0,0,0-8.28-3.26"/><path class="cls-23" d="M369.35,311.82c-1.68-2.11-5.68-3.67-9.09-3.3"/><path class="cls-3" d="M409.86,119.2c2.87,6.12,10.93,16.17,13.51,23,5.29,14.08,2.76,24.27,1.24,42.79-1.64,19.84-3.21,35.53-3.21,35.53.29,3.53,5.2,10.41,5.83,26,.59,14.57-1,33.09-1,33.09s-11,6.1-19.14,0c0,0-7.85-37.49-10.15-55.73-2-15.91-4.3-28.76-4.3-28.76l-6.22,29.6s.44,8,1.1,14.79c1,10.73-5,31.79-5,31.79s-11.37,3.39-18.31-2.76c0,0-2.7-30.74-2.41-46,.32-17.35,3.34-75.52,5.48-100.32Z"/><path class="cls-9" d="M409.86,119.2c2.87,6.12,10.93,16.17,13.51,23,5.29,14.08,2.76,24.27,1.24,42.79-1.64,19.84-3.21,35.53-3.21,35.53.29,3.53,5.2,10.41,5.83,26,.59,14.57-1,33.09-1,33.09s-11,6.1-19.14,0c0,0-7.85-37.49-10.15-55.73-2-15.91-4.3-28.76-4.3-28.76l-6.22,29.6s.44,8,1.1,14.79c1,10.73-5,31.79-5,31.79s-11.37,3.39-18.31-2.76c0,0-2.7-30.74-2.41-46,.32-17.35,3.34-75.52,5.48-100.32Z"/><path class="cls-11" d="M392.64,195.11l-4.25-34.69s-8.3-1.08-15.35-9.34c0,0,1.41,7.94,11.59,11.88l5.6,30.9-3.81,30.87Z"/><path class="cls-23" d="M412.8,340.32a15.32,15.32,0,0,1,10.16,0"/><path class="cls-23" d="M412.23,335.43a18.88,18.88,0,0,1,11.3,0"/><path class="cls-23" d="M412.32,330.73s5.88-2.36,11.21.07"/><path class="cls-23" d="M412.23,326.35a14.23,14.23,0,0,1,11.41.13"/><path class="cls-23" d="M412.23,321.63s6-2.71,11.51,0"/><path class="cls-15" d="M401.42,61.52h0c4.09.28,11.53.93,11.53.93,4.3,2.4,5.38,4.36,6.18,10.07.34,2.42-1.64,8.89-3.33,18.09L412,107.87l-2.1,11.33c-5.06,4.43-12.33,7-25.84,7.13a34.64,34.64,0,0,1-16.7-4.12c-.19-8.09-1.36-16.14-1.52-20.86-6.38-5.24-8.52-13.87-5-19.51,8.08-13.08,15.94-21.32,21.15-20.9Z"/><path class="cls-13" d="M365.13,101.43l1.38,8.65s6.37,4.08,21.24,3.48c20.68-.84,24.34-6.3,24.34-6.3,1.59-6,3-12.43,4.2-19.23a11.92,11.92,0,0,1-8.8-11,19.33,19.33,0,0,1,5-14.59l-10.14-.62s-19.11-1.3-22-1.14-7.55,3.4-13,10.5S353.23,90.66,365.13,101.43Z"/><path class="cls-15" d="M453.34,101c-8.25-10-17.45-20.38-23.36-27.5-9.19-11.08-11-10.76-17.46-11.08-3.37,2.57-3.49,10.3,1,24.46,6.66,5.61,23.65,22.94,23.65,22.94-.75,1.8-7.93,14.91-12.56,20.47-.83,1-3.44,1.09-4.71,1.28a38.43,38.43,0,0,0-9.39,2.72c-2.29,1-3.81.79-3.83,1.41a2.82,2.82,0,0,0,2.8,2.62c1.11.13,3.94-.56,5.94-.88a16.87,16.87,0,0,1-3.84,2.59c-1.3.73-6.83,3.44-9,4.5-2.86,1.36-2.15,6.55,5.93,8.27,4.12.88,9.5.41,17.82-6.46,2.43-2,6-6.19,8.9-9.53,7.53-8.82,12.09-14.5,16.15-20.11C458.1,107.36,456.06,104.3,453.34,101Z"/><path class="cls-10" d="M376.46,100.16s7.48,5.8,16,2.77a14.61,14.61,0,0,0,9.79-10.49s.9,9.76-9.87,13.09C382,108.75,376.46,100.16,376.46,100.16Z"/><path class="cls-15" d="M366.27,34.71c.32,14.17,4.92,17.67,7.23,18.68s6.75.39,11.07-.32v8.5s-9,7.69-8.63,11.59,10.73,4.42,16.33.61c4.08-2.78,8.12-8.52,9.39-10a3,3,0,0,0,.72-2v-20a5.22,5.22,0,0,0,5.65-.83c3.85-3.29,4.1-8.5,1.3-11.3-1.35-1.34-4.87-1.74-7.1,1.59-1,4.38-2.87,5.24-3.94,3.88-5.2-6.62-6.86-3.56-14.45-8.1-8.77-5.24-10.28-10.83-12-16.33C368.7,12.56,365.88,18,366.27,34.71Z"/><path class="cls-22" d="M382,32.88a1.63,1.63,0,1,0,1.71-1.61A1.66,1.66,0,0,0,382,32.88Z"/><path class="cls-22" d="M368.8,32.88a1.63,1.63,0,1,0,1.71-1.61A1.66,1.66,0,0,0,368.8,32.88Z"/><polygon class="cls-16" points="377.73 29.64 377.41 41.57 371.14 39.62 377.73 29.64"/><path class="cls-16" d="M384.57,53.06c4.56-.59,13.94-3.29,15.4-7a9.62,9.62,0,0,1-3.29,4.73c-2.8,2.4-12.11,5.1-12.11,5.1Z"/><path class="cls-22" d="M383.84,24.88,388,27.42a2.56,2.56,0,0,0-.85-3.44A2.38,2.38,0,0,0,383.84,24.88Z"/><path class="cls-24" d="M384.63,41.72l-5.55,2.85a3.27,3.27,0,0,0,4.32,1.37A3,3,0,0,0,384.63,41.72Z"/><path class="cls-16" d="M382,45.8a2.42,2.42,0,0,0,0,.47,3.07,3.07,0,0,0,1.37-.33A3,3,0,0,0,385,42.75,3.05,3.05,0,0,0,382,45.8Z"/><path class="cls-22" d="M367.42,26.2l4.63-1.62A2.35,2.35,0,0,0,369,23,2.59,2.59,0,0,0,367.42,26.2Z"/></g></g><g id="Character_1" data-name="Character 1"><g id="Character-2" data-name="Character"><path class="cls-22" d="M65.71,294.74a22,22,0,0,1-10.31.63c-5.51-1-12.47-4.56-12-11.18A5.15,5.15,0,0,1,44,282c1.25-2.18,4.14-2.59,6.56-3.28A18.16,18.16,0,0,0,61.47,270c2.47-4.6,2.83-10,2.53-15.25a19.21,19.21,0,0,1,.1-5,11.3,11.3,0,0,1,1.57-3.66,19.44,19.44,0,0,1,10.21-7.92,5.8,5.8,0,0,1,4.53-.11,2.77,2.77,0,0,1,1.45,2.61c-.12,1.19-1.42,2-2.15,2.79a11.94,11.94,0,0,0-3.25,7.44c-.06,2.74,1.13,5.33,2.1,7.9,3,8.07,4,17.45,0,25.12A22.12,22.12,0,0,1,65.71,294.74Z"/><path class="cls-24" d="M145.49,258.38s6.74-48.52,5.41-66c-.68-9-5.3-11.81-11.92-11.3s-45.11,22.15-45.11,22.15l5.36,13,31.58-9.91s-3.21,18.61-4,22.15-2.3,8.3-3.53,12.57a32.43,32.43,0,0,0-1.44,6.15C121.89,250.35,145.49,258.38,145.49,258.38Z"/><path class="cls-25" d="M130.81,206.37c4.39-.87,8.79-3.45,10.17-5.52a9.62,9.62,0,0,1-4.4,5.52,37.37,37.37,0,0,1-6.34,3.28Z"/><path class="cls-24" d="M138.26,304.16c-11.33-4.55-25.16-8.78-32.87-13.23s-8.14-5.61-16.78-10.66,2.26-24.4,2.26-24.4,16.14-5.59,23.75-8.6c4.83-1.11,10.43-3,16-2.75s16.28.14,20.29,3.83,3.86,11.29,3.86,11.29l12.94,13Z"/><path class="cls-3" d="M158.21,263.11l-3.44-3.47a3.84,3.84,0,0,1-.67-1.79c-2.22-.66-7.24-1.11-19.22,6-15.76,9.3-19.81,31.6-19.81,31.6h0c1.93.77,5,2,7.11,2.74,1.73-10.36,8.6-20.91,17.57-27.26A48.16,48.16,0,0,1,158.21,263.11Z"/><path class="cls-26" d="M158.21,263.11l-3.44-3.47a3.84,3.84,0,0,1-.67-1.79c-2.22-.66-7.24-1.11-19.22,6-15.76,9.3-19.81,31.6-19.81,31.6h0c1.93.77,5,2,7.11,2.74,1.73-10.36,8.6-20.91,17.57-27.26A48.16,48.16,0,0,1,158.21,263.11Z"/><path class="cls-3" d="M100.07,269.5c2.43,8.33,1.34,13.08-.17,18.24h0c1.44.85,3.12,1.82,5.49,3.19A83.64,83.64,0,0,0,118,296.56c0-7.15,6.7-19.38,13.61-25.48,9.43-8.32,23.2-11.44,23.2-11.44s.14-7.61-3.86-11.29-13.15-4.11-18.39-4.12-10.22.55-10.22.55a59.13,59.13,0,0,0-8.57,2.84s11.51,1.28,5,4.61c-9,4.57-21.85,1.55-21.85,1.55a21.84,21.84,0,0,0-6,2.09S97.06,259.19,100.07,269.5Z"/><path class="cls-9" d="M100.07,269.5c2.43,8.33,1.34,13.08-.17,18.24h0c1.44.85,3.12,1.82,5.49,3.19A83.64,83.64,0,0,0,118,296.56c0-7.15,6.7-19.38,13.61-25.48,9.43-8.32,23.2-11.44,23.2-11.44s.14-7.61-3.86-11.29-13.15-4.11-18.39-4.12-10.22.55-10.22.55a59.13,59.13,0,0,0-8.57,2.84s11.51,1.28,5,4.61c-9,4.57-21.85,1.55-21.85,1.55a21.84,21.84,0,0,0-6,2.09S97.06,259.19,100.07,269.5Z"/><path class="cls-24" d="M315.41,344.69c-11.27-6.5-16.21-8.68-24.7-20.29-6.32-15.66-12.16-41.53-16.69-48.91-3.49-5.68-4.45-8.82-15.41-8.71-22.26.23-77.31,15.82-77.31,15.82l-21.38,9.17-3.72,6.67c3.87,4.13,10.91-1.16,18,2.55s9.09,11.15,19.46,10.27c20.77-1.76,33.1-7.15,43.86-11,9-3.23,20.11-6.62,20.11-6.62,1,5.78,2.4,10.2,6.77,16.81,5.8,8.76,7.19,10.33,11.48,17.58a6,6,0,0,0,1.12,2.05c1.1,2.06.94,5.61,1.12,8.08.66,9.05,4.36,2.78,17.2,13.85,3,2.59,5.81,4.75,9.84,5.64,3.57.79,8.09,0,11.63-.81,3.27-.78,4.26-2.1,6.3-5C324.92,349.19,318.38,346.41,315.41,344.69Z"/><path class="cls-13" d="M135.51,303.08s1.13-14.82,12.9-23.55c10.57-7.84,15.85-9.34,18.53-8.45s12.51,2.13,19.2,1.64c5-.36,45.6-7.2,72.13-7,10.48.09,14.16,2.77,17.48,11.95,3.37,9.34,8.7,28.28,8.7,28.28s-4.48,8.5-17.4,8.38a41.41,41.41,0,0,1-6.87-10,32,32,0,0,1-2.95-10S218,316.12,196.64,319,135.51,303.08,135.51,303.08Z"/><path class="cls-14" d="M259,283.79a21.11,21.11,0,0,0-4.06,7.72l-.34-1.21c-1.65-5.79-3.53-10.49-6.74-13.47s-6.19-3.92-13.55-3.54S184.09,281,184.09,281c-.94-3.28-2.66-4.13-2.66-4.13,1.16,2.62.65,6-1.16,7.43l-7.82,31.77c8.63,2.48,17.35,3.79,24.19,2.88,19-2.53,52.26-20.09,59.27-23.89l1.32-.72C257,290.51,259,283.79,259,283.79Z"/><path class="cls-14" d="M277.93,340.77c-.76.44.25,3.8.84,4.62a10.3,10.3,0,0,0,5,2.76c2.89.72,5.43,2.27,8.42,4.87a33.63,33.63,0,0,0,11.16,6.29,21.53,21.53,0,0,0,15.89-.91c5.55-2.71,5.36-5.51,4.8-7.57Z"/><path class="cls-3" d="M290.68,324.32l-.55-1.4c1-.61,4.07,3.73,8.14,8.22a50.4,50.4,0,0,0,10.5,9c8.28,4.6,11.28,5.36,14.21,7.82,3.76,3.17-.53,7.63-7.61,9.7-7.37,2.17-13.39-.61-17.94-3.37-3.2-1.95-7.85-5.74-10.21-7.33s-7.63-2.72-9.38-4.91c-1-1.2-.71-4.36-.94-7.13-.22-2.54-1.77-7-.9-7l1.11,2.05C283.48,331.62,290.77,327.79,290.68,324.32Z"/><path class="cls-11" d="M290.68,324.32l-.55-1.4c1-.61,4.07,3.73,8.14,8.22a50.4,50.4,0,0,0,10.5,9c8.28,4.6,11.28,5.36,14.21,7.82,3.76,3.17-.53,7.63-7.61,9.7-7.37,2.17-13.39-.61-17.94-3.37-3.2-1.95-7.85-5.74-10.21-7.33s-7.63-2.72-9.38-4.91c-1-1.2-.71-4.36-.94-7.13-.22-2.54-1.77-7-.9-7l1.11,2.05C283.48,331.62,290.77,327.79,290.68,324.32Z"/><path class="cls-11" d="M312.35,343.05a41.67,41.67,0,0,1-8.55-5.54c-5.26-4.16-11.57-12.31-13.12-13.19,0,0,0,.05,0,.07,0,2.3-3.23,4.74-7.25,5.61,3.53-.65,10,7.71,13.08,10.77,4.16,4.16,6.95,6.51,8.9,6.62C308,345.05,310.39,343.52,312.35,343.05Z"/><path class="cls-27" d="M301.46,346.56c2.58-3.36,5.53-5.34,9.1-5"/><path class="cls-27" d="M297.63,343.74c2.57-3.36,5.52-5.34,9.09-5"/><path class="cls-27" d="M293.8,340.92c2.57-3.36,5.52-5.34,9.09-5"/><path class="cls-27" d="M290.33,337.77c2.57-3.36,5.52-5.34,9.09-5"/><path class="cls-27" d="M287.47,334c2.58-3.36,5.53-5.33,9.1-5"/><path class="cls-24" d="M291.42,360.55c-11.13-4.37-16.45-9.19-24.94-20.8-6.32-15.66-12.94-48.06-17.47-55.44-3.48-5.68-7.6-9.29-18.31-7.92-22.08,2.82-57,10.13-57,10.13l-15.08-6.62L136.31,303c5.9,3,8.55,7.74,14.68,12.15,6.51,4.68,9.89,7.81,20.26,8,16.85.35,30.72-9.66,41.48-13.53a100,100,0,0,0,17.57-8.77c.13,4.72,2.23,14.27,9.89,24.88a168.7,168.7,0,0,1,11.49,17.58,6.12,6.12,0,0,0,1.11,2.05c1.1,2.06,1,5.61,1.13,8.08.65,9.05,4.35,2.78,17.19,13.85,3,2.59,5.82,4.75,9.84,5.64a25.17,25.17,0,0,0,11.06-.21,9.57,9.57,0,0,0,6.87-5.63C301,362.92,294.61,361.81,291.42,360.55Z"/><path class="cls-13" d="M242.09,328.41a15.69,15.69,0,0,1-2.19-2.56c-7.67-10.6-9.85-19.18-10-23.9,0,0-4.48,2.55-17.47,9.76-10,5.55-23,14.18-40.56,13.3-9-.45-15-4.12-21.39-9-4.34-3.32-7.4-8.77-15-12.95,2.75-8.88,4.61-20.3,21.85-27l22.91,8.21s26.31-6,48.45-8.21c14.29-1.42,15.92.33,19.4,6,4,6.61,7.79,22.05,12.45,38.52C259.36,322.57,250.34,329,242.09,328.41Z"/><path class="cls-14" d="M253.61,356.27c-.76.44.25,3.8.84,4.62a10.22,10.22,0,0,0,5,2.75c2.89.73,5.43,2.28,8.42,4.88a33.63,33.63,0,0,0,11.16,6.29,21.53,21.53,0,0,0,15.89-.91c5.55-2.72,5.36-5.51,4.8-7.57Z"/><path class="cls-3" d="M266.48,339.75l-.55-1.41c1-.61,3.95,3.8,8,8.3a51,51,0,0,0,10.5,9c8.28,4.59,11.28,5.36,14.21,7.82,3.76,3.17-.53,7.62-7.61,9.7-7.37,2.16-13.39-.61-17.94-3.37-3.2-1.95-7.85-5.75-10.21-7.33s-7.63-2.73-9.38-4.91c-1-1.2-.71-4.36-.94-7.13-.22-2.54-1.77-7-.9-7l1.11,2.05C259.16,347.12,266.58,343.22,266.48,339.75Z"/><path class="cls-11" d="M266.48,339.75l-.55-1.41c1-.61,3.95,3.8,8,8.3a51,51,0,0,0,10.5,9c8.28,4.59,11.28,5.36,14.21,7.82,3.76,3.17-.53,7.62-7.61,9.7-7.37,2.16-13.39-.61-17.94-3.37-3.2-1.95-7.85-5.75-10.21-7.33s-7.63-2.73-9.38-4.91c-1-1.2-.71-4.36-.94-7.13-.22-2.54-1.77-7-.9-7l1.11,2.05C259.16,347.12,266.58,343.22,266.48,339.75Z"/><path class="cls-11" d="M279.48,353c-5.26-4.16-11.46-12.25-13-13.12-.06,2.3-3.36,4.75-7.43,5.61h0c3.51-.75,10.07,7.7,13.14,10.77,4.16,4.16,6.95,6.51,8.9,6.62,2.55-2.34,5-3.87,6.95-4.35A41,41,0,0,1,279.48,353Z"/><path class="cls-27" d="M277.14,362.06c2.58-3.36,5.53-5.34,9.1-5"/><path class="cls-27" d="M273.31,359.23c2.57-3.35,5.52-5.33,9.09-5"/><path class="cls-27" d="M269.48,356.41c2.57-3.35,5.52-5.33,9.09-5"/><path class="cls-27" d="M266,353.26c2.57-3.35,5.52-5.33,9.09-5"/><path class="cls-27" d="M263.15,349.5c2.58-3.36,5.53-5.34,9.1-5"/><path class="cls-24" d="M90.87,255.87S63.36,241.16,59,239.18l24-14.13-5.1-13.27S42.63,223.32,35.86,227c-3.56,1.93-5.59,4.71-5.6,7.45,0,4.57,2.68,10.28,8.7,15.41,12.83,10.94,31.91,21.34,48.85,30.67,5.68,3.08,12.09,7.23,12.09,7.23C101.83,283.67,104.24,269.48,90.87,255.87Z"/><path class="cls-25" d="M59,239.18a43.38,43.38,0,0,1-13,4.56s7.23,1.84,15.86-3.17Z"/><path class="cls-22" d="M118.92,203l-.18-.47c-5.57-14.47-14.89-14.84-30-8.84-11.18,4.43-20.11,12.76-20.7,24a27.18,27.18,0,0,0,9.62,22c6.75,5.72,15.91,7.38,27,3.11h0C120,240.37,124.5,217.41,118.92,203Z"/><path class="cls-24" d="M106.71,198.77c3.45.57,9.65,6.31,15,21.27,4.55,12.67,1.67,17.35,0,19s-5.85,2.66-9.93,3.5l2.91,7.54-17.85,3.67-5.32-14S90.1,242.82,85,241c-4.23-1.54-7.09-5.79-5.59-9.24a5.9,5.9,0,0,1,9.43-1.63s2.32-.69,3-5.73a18.31,18.31,0,0,0,9.86-6.58C107.89,210,107,201.55,106.71,198.77Z"/><path class="cls-22" d="M103.35,222a1.7,1.7,0,1,1-2.19-1.09A1.74,1.74,0,0,1,103.35,222Z"/><path class="cls-22" d="M115.82,212.27l-4.06-1a2,2,0,0,1,2.45-1.57A2.2,2.2,0,0,1,115.82,212.27Z"/><path class="cls-22" d="M99.63,217.64l-3.09,2.8a2,2,0,0,1,.08-2.91A2.19,2.19,0,0,1,99.63,217.64Z"/><path class="cls-22" d="M116.78,216.55a1.69,1.69,0,1,1-2.19-1.08A1.73,1.73,0,0,1,116.78,216.55Z"/><path class="cls-25" d="M111.24,233a1.7,1.7,0,1,1-2.2-1.09A1.73,1.73,0,0,1,111.24,233Z"/><polygon class="cls-25" points="107.94 218.15 110.84 227.93 115.59 224.93 107.94 218.15"/><path class="cls-25" d="M111.78,242.57c-4.25,1-13.48,1.85-16-.94a9.06,9.06,0,0,0,4.53,3.07c3.3,1.17,12.48.39,12.48.39Z"/><path class="cls-22" d="M88.83,230.08l2.55,6.61h0a4.83,4.83,0,0,0,2.76-6.24l-2.35-6.1Z"/></g></g><g id="Go_Letters" data-name="Go Letters"><g id="Go"><path class="cls-3" d="M167.77,24a6.6,6.6,0,0,0-2.54-.12A4.4,4.4,0,0,0,162.12,26a9.84,9.84,0,0,0-.83,1.8,11.32,11.32,0,0,0-.44,1.53c-.16.65-.31,1.33-.46,2s-.29,1.39-.4,2.07-.2,1.21-.25,1.59a7.29,7.29,0,0,0,0,2,5.05,5.05,0,0,0,.6,1.79,4.58,4.58,0,0,0,1.4,1.45,7,7,0,0,0,2.34.93,8.55,8.55,0,0,0,2.16.19,4.87,4.87,0,0,0,1.9-.45,4.12,4.12,0,0,0,1.47-1.21,5.34,5.34,0,0,0,.9-2.1l-3.61-.77a1.15,1.15,0,0,1-.74-.52,1.14,1.14,0,0,1-.17-.89l1-4.56a1.15,1.15,0,0,1,.52-.74,1.12,1.12,0,0,1,.89-.17l10.39,2.23a1.18,1.18,0,0,1,.75.52,1.13,1.13,0,0,1,.16.89l-1.18,5.5a11.63,11.63,0,0,1-2.09,4.72,11.15,11.15,0,0,1-3.63,3.11A12.92,12.92,0,0,1,168,48.34a16.54,16.54,0,0,1-5.43-.31,15.81,15.81,0,0,1-5.33-2.11,12.91,12.91,0,0,1-3.6-3.4,11.23,11.23,0,0,1-1.85-4.29,13.3,13.3,0,0,1-.09-4.71c.2-1.19.44-2.45.73-3.8s.59-2.63.92-3.85a12.29,12.29,0,0,1,2-4.27,11.64,11.64,0,0,1,3.44-3.15,12.85,12.85,0,0,1,4.69-1.62,15.93,15.93,0,0,1,5.74.26,16.09,16.09,0,0,1,5.22,2.05,14.44,14.44,0,0,1,3.6,3.11,11.11,11.11,0,0,1,2,3.53,7.06,7.06,0,0,1,.37,3.29.78.78,0,0,1-.4.61,1,1,0,0,1-.75.13l-5.71-1.23a1.35,1.35,0,0,1-.93-.6c-.19-.31-.37-.62-.54-.92A5.43,5.43,0,0,0,167.77,24Z"/><path class="cls-3" d="M205.58,43.41c-.07.43-.17,1-.32,1.66s-.27,1.22-.39,1.65A10.17,10.17,0,0,1,200.05,53,11.15,11.15,0,0,1,196,54.38a15.17,15.17,0,0,1-9.49-2,11.29,11.29,0,0,1-3.18-2.9,10.12,10.12,0,0,1-1.68-3.67,10,10,0,0,1-.12-4.07c.07-.44.17-1,.31-1.66s.28-1.22.4-1.65a9.63,9.63,0,0,1,1.73-3.67A10.31,10.31,0,0,1,187,32.07a11.93,11.93,0,0,1,4.11-1.36,14.84,14.84,0,0,1,9.5,2,11.86,11.86,0,0,1,3.19,2.93,9.83,9.83,0,0,1,1.68,3.66A10.5,10.5,0,0,1,205.58,43.41Zm-16.31-.26A3.71,3.71,0,0,0,189.9,46a4.77,4.77,0,0,0,5.55,1.19,3.75,3.75,0,0,0,1.73-2.31,12.13,12.13,0,0,0,.62-2.92,3.7,3.7,0,0,0-.63-2.81,4.13,4.13,0,0,0-2.57-1.52,4.19,4.19,0,0,0-3,.33,3.7,3.7,0,0,0-1.73,2.3,11.85,11.85,0,0,0-.4,1.45A11.45,11.45,0,0,0,189.27,43.15Z"/><path class="cls-3" d="M215,57.61a1.15,1.15,0,0,1-.52.74,1.14,1.14,0,0,1-.89.17l-5.41-1.16a1.15,1.15,0,0,1-.75-.52,1.18,1.18,0,0,1-.17-.89l.93-4.34a1.16,1.16,0,0,1,.52-.74,1.14,1.14,0,0,1,.89-.17L215,51.86a1.15,1.15,0,0,1,.74.52,1.13,1.13,0,0,1,.17.89Zm2-9.24a1.15,1.15,0,0,1-.52.74,1.13,1.13,0,0,1-.89.17l-5.41-1.16a1.17,1.17,0,0,1-.75-.52,1.12,1.12,0,0,1-.16-.89l4-18.52a1.15,1.15,0,0,1,.52-.74,1.13,1.13,0,0,1,.89-.17L220,28.44a1.17,1.17,0,0,1,.75.52,1.13,1.13,0,0,1,.16.89Z"/></g><g id="Go-2" data-name="Go"><path class="cls-3" d="M167.64,105a6.5,6.5,0,0,0-2.21,1.23,4.43,4.43,0,0,0-1.18,1.61,4.62,4.62,0,0,0-.35,1.85,11.27,11.27,0,0,0,.24,2,11.11,11.11,0,0,0,.43,1.52c.21.64.44,1.3.68,2s.49,1.33.75,2,.46,1.13.62,1.48a7.18,7.18,0,0,0,1,1.68,4.78,4.78,0,0,0,1.45,1.21,4.6,4.6,0,0,0,1.95.5,6.74,6.74,0,0,0,2.48-.44,8.21,8.21,0,0,0,1.94-1,4.87,4.87,0,0,0,1.38-1.37,4.2,4.2,0,0,0,.62-1.81,5.44,5.44,0,0,0-.34-2.26l-3.48,1.24a1.11,1.11,0,0,1-.91,0,1.15,1.15,0,0,1-.61-.67l-1.56-4.39a1.13,1.13,0,0,1,0-.9,1.15,1.15,0,0,1,.67-.61l10-3.57a1.13,1.13,0,0,1,.9,0,1.15,1.15,0,0,1,.61.67l1.89,5.3a11.75,11.75,0,0,1,.7,5.12,11.06,11.06,0,0,1-1.45,4.55,13.19,13.19,0,0,1-3.28,3.71,16.79,16.79,0,0,1-4.79,2.59,15.71,15.71,0,0,1-5.63,1,12.88,12.88,0,0,1-4.86-1,11.16,11.16,0,0,1-3.82-2.68,13.21,13.21,0,0,1-2.56-4c-.46-1.12-.92-2.32-1.38-3.62s-.88-2.55-1.24-3.75a12.24,12.24,0,0,1-.55-4.68,11.58,11.58,0,0,1,1.27-4.49,12.65,12.65,0,0,1,3.13-3.84,16,16,0,0,1,5-2.8,16.32,16.32,0,0,1,5.51-1,14.51,14.51,0,0,1,4.7.76,11.31,11.31,0,0,1,3.55,1.95,7.12,7.12,0,0,1,2,2.61.76.76,0,0,1,0,.73,1,1,0,0,1-.56.51l-5.51,2a1.35,1.35,0,0,1-1.1,0l-1-.5a6.43,6.43,0,0,0-2.06-.81A6.21,6.21,0,0,0,167.64,105Z"/><path class="cls-3" d="M210,101.69c.18.4.38.93.61,1.58s.41,1.18.53,1.61a10,10,0,0,1,.42,4.05,10.17,10.17,0,0,1-1.2,3.85,11.24,11.24,0,0,1-2.77,3.3,15.24,15.24,0,0,1-9.14,3.25,11.07,11.07,0,0,1-4.23-.8,10.14,10.14,0,0,1-5.6-5.63c-.18-.41-.38-.93-.61-1.58s-.41-1.19-.52-1.61a9.47,9.47,0,0,1-.46-4,10.12,10.12,0,0,1,1.21-3.86A12,12,0,0,1,191,98.49a15.06,15.06,0,0,1,9.15-3.26,11.92,11.92,0,0,1,4.26.82,9.73,9.73,0,0,1,3.36,2.23A10.29,10.29,0,0,1,210,101.69ZM196,110a3.68,3.68,0,0,0,2,2,4.72,4.72,0,0,0,5.34-1.9,3.69,3.69,0,0,0,.26-2.87,11.93,11.93,0,0,0-.41-1.43,11.66,11.66,0,0,0-.59-1.38,3.73,3.73,0,0,0-2-2.06,4.72,4.72,0,0,0-5.34,1.9,3.69,3.69,0,0,0-.27,2.87,14.5,14.5,0,0,0,.42,1.44A11.43,11.43,0,0,0,196,110Z"/><path class="cls-3" d="M222.32,99.92a1.2,1.2,0,0,1,0,.91,1.18,1.18,0,0,1-.67.61l-5.22,1.86a1.13,1.13,0,0,1-.9,0,1.15,1.15,0,0,1-.61-.67l-6.36-17.84a1.2,1.2,0,0,1,.72-1.52l5.22-1.86a1.13,1.13,0,0,1,.9,0,1.18,1.18,0,0,1,.61.67Zm3.17,8.9a1.2,1.2,0,0,1-.05.91,1.18,1.18,0,0,1-.67.61l-5.22,1.86a1.13,1.13,0,0,1-.9,0,1.2,1.2,0,0,1-.62-.67l-1.48-4.18a1.2,1.2,0,0,1,.72-1.52l5.21-1.86a1.16,1.16,0,0,1,.91.06,1.13,1.13,0,0,1,.61.66Z"/></g></g><g id="Speech_Bubble" data-name="Speech Bubble"><g id="Speech_Bubble-2" data-name="Speech Bubble"><g id="Speech_Bubble-3" data-name="Speech Bubble"><path class="cls-3" d="M89.24,180.78,83.91,167.1l4.29-12.39v-7.58l-13.14,7.58v7.59l5.65,13.42a.75.75,0,0,0,.39.34h0Z"/><path class="cls-11" d="M89.24,180.78,83.91,167.1l4.29-12.39v-7.58l-13.14,7.58v7.59l5.65,13.42a.75.75,0,0,0,.39.34h0Z"/><path class="cls-3" d="M114.29,100.11a8.71,8.71,0,0,0-3.94-6.82l-3.21-1.85a8.69,8.69,0,0,0-7.88,0L58.85,114.68a8.71,8.71,0,0,0-3.94,6.82v44.59a8.71,8.71,0,0,0,3.94,6.82l3.21,1.85a8.69,8.69,0,0,0,7.88,0l13.37-7.69L89,180.48a.84.84,0,0,0,1.52-.15l6-20.83,13.92-8a8.71,8.71,0,0,0,3.94-6.82Z"/><path class="cls-11" d="M54.91,166.09a8.71,8.71,0,0,0,3.94,6.82l3.21,1.85a8.76,8.76,0,0,0,7.2.32c-1.85.7-3.26-.34-3.26-2.59V127.9A8,8,0,0,1,67.15,124l-11.08-6.4a8,8,0,0,0-1.16,3.88Z"/><path class="cls-7" d="M114.16,99c-.46-1.67-2-2.2-3.81-1.16L69.93,121.08A7.87,7.87,0,0,0,67.16,124l-11.08-6.39a8,8,0,0,1,2.77-2.94L99.26,91.44a8.75,8.75,0,0,1,7.88,0l3.21,1.86A8.67,8.67,0,0,1,114.16,99Z"/></g><g id="Heart"><path id="Heart-2" data-name="Heart" class="cls-20" d="M73.27,140.45a24,24,0,0,1,2-9.32h0l0-.06c1.47-3.35,3.61-6.17,6-7.53,3.46-2,6.4,1.28,7.51,5.84.11.46.65.49.73,0,1-6,4.06-13,7.62-15,2.37-1.36,4.5-1,6,.68l0,0h0c1.24,1.46,2,3.87,2,7,0,9.72-5.87,18.45-10.79,27.65L89,158.69l-5-2.95C79.1,152.18,73.26,150.17,73.27,140.45Z"/><path class="cls-3" d="M96.42,137.26l-2.26-5.93a.91.91,0,0,0-.88-.66.9.9,0,0,0-.84.7L88.94,145l-2.79-7.63a.88.88,0,0,0-.86-.58h0a.89.89,0,0,0-.82.64l-2.08,7.37L75.18,149l.17.25a10,10,0,0,0,.77,1l.15.17,7.31-4.22a.87.87,0,0,0,.41-.53l1.43-5.08,2.9,7.92a.89.89,0,0,0,.89.58.9.9,0,0,0,.81-.7l3.38-13.07L95,138.84a.89.89,0,0,0,1.3.54l5.77-3.33,0-.08c.28-.63.55-1.25.8-1.88l.3-.74Z"/></g></g></g></g></svg>